<svg width="551" height="156" viewBox="0 0 551 156" fill="none" xmlns="http://www.w3.org/2000/svg">
<path d="M348.967 112.194C351.055 113.267 352.746 114.317 354.565 115.028C356.979 115.972 358.915 118.363 358.658 120.509C358.425 122.468 356.629 123.576 354.763 122.818C352.069 121.721 349.411 120.532 346.74 119.378C345.341 118.771 343.976 118.071 342.542 117.617C342.04 117.453 341.061 117.71 340.781 118.106C339.627 119.774 338.542 121.512 337.632 123.331C336.828 124.94 335.685 125.383 334.274 124.473C332.093 123.086 330.309 123.377 328.07 124.637C325.329 126.176 322.297 127.435 319.23 128.123C313.621 129.395 308.712 128.03 305.365 122.923C305.213 122.701 305.015 122.514 304.583 122.013C304.548 122.678 304.455 123.027 304.537 123.331C305.236 125.698 304.187 128.077 301.271 127.669C297.703 127.167 294.158 126.328 290.671 125.383C289.003 124.928 288.14 125.196 287.441 126.794C286.38 129.208 285.12 131.529 283.954 133.896C283.114 135.587 281.867 135.925 280.141 135.272C278.426 134.619 277.598 133.348 276.875 131.75C276.036 129.896 276.969 128.963 278.007 127.61C279.686 125.43 281.633 123.307 280.444 119.926C279.581 117.465 280.304 117.034 282.904 116.637C283.686 116.521 284.689 115.751 285.027 115.016C286.963 110.713 288.759 106.352 290.531 101.991C291.254 100.206 291.826 98.3523 292.444 96.5215C292.875 95.2388 293.621 94.5974 295.091 94.7373C298.041 95.0172 300.187 96.8713 300.922 100.521C301.656 104.206 302.041 107.961 302.589 111.681C302.659 112.183 302.869 112.661 303.545 113.197C303.989 112.089 304.408 110.981 304.898 109.897C307.324 104.405 310.601 99.9499 317.061 98.6555C321.598 97.7576 325.423 100.953 327.16 104.731C328.548 107.751 326.892 111.669 323.58 113.908C322.624 114.55 321.703 115.238 320.7 115.786C320.175 116.077 319.51 116.229 318.904 116.229C314.951 116.241 314.111 116.462 310.111 118.736C310.193 121.01 311.102 121.99 313.446 121.943C319.055 121.85 323.58 119.203 327.93 115.926C332.023 112.847 332.42 108.299 333.364 103.926C333.807 101.897 333.877 99.775 334.367 97.7693C334.589 96.848 335.51 95.3204 335.965 95.3671C337.457 95.5303 339.16 95.9734 340.268 96.918C341.889 98.3057 342.495 100.253 341.679 102.562C341.154 104.008 341.189 105.652 340.968 107.285C341.259 107.262 341.516 107.331 341.644 107.227C347.941 102.504 355.486 100.148 362.297 96.4049C364.804 95.0289 367.37 93.7928 369.877 92.4284C371.731 91.4139 373.678 91.1107 375.264 92.5684C376.512 93.7112 377.737 95.402 376.559 97.1745C375.848 98.2474 374.495 98.9937 373.282 99.6117C365.609 103.553 357.889 107.413 350.192 111.32C349.9 111.436 349.656 111.681 348.967 112.194ZM293.097 115.553C296.525 115.063 297.353 112.509 295.371 109.209C294.613 111.343 293.901 113.314 293.097 115.553ZM319.604 106.095C319.417 105.781 319.242 105.466 319.055 105.151C317.808 105.897 316.56 106.643 315.312 107.39C315.464 107.658 315.627 107.926 315.779 108.194C317.05 107.495 318.321 106.795 319.604 106.095Z" fill="black"/>
<path d="M485.793 101.351C486.062 100.068 486.271 98.7856 486.61 97.5262C487.589 93.8296 488.592 90.133 489.665 86.4714C490.085 85.0371 491.484 84.6172 492.86 85.2819C495.519 86.5763 497.28 88.6287 497.851 91.509C498.504 94.7742 498.936 98.0743 499.437 101.363C499.636 102.646 499.799 103.94 499.974 105.223C500.149 105.258 500.335 105.293 500.51 105.316C501.222 103.555 501.945 101.794 502.656 100.033C503.717 97.398 504.79 94.7742 505.851 92.1387C506.493 90.5528 507.915 89.9231 509.396 90.7394C510.469 91.3225 511.379 92.197 512.44 92.8034C513.186 93.2232 514.154 93.8063 514.877 93.643C521.023 92.2204 527.134 90.6461 533.244 89.1185C533.244 88.9319 533.256 88.7337 533.256 88.5471C530.119 88.0457 526.982 87.5909 523.869 87.0195C522.621 86.7862 521.443 86.1915 520.195 85.9466C519.262 85.76 518.224 85.6551 517.303 85.8417C514.679 86.3781 512.102 87.1594 509.478 87.6841C507.286 88.1273 505.42 86.9728 504.86 85.0487C504.079 82.39 504.72 80.8507 507.111 79.8128C513.501 77.0374 520.242 75.6381 527.134 75.0084C531.693 74.5886 536.3 74.2621 540.871 74.402C544.148 74.507 547.553 75.0784 549.582 78.4135C550.329 79.6379 550.714 80.7924 549.477 81.7136C548.918 82.1334 547.903 82.0634 547.099 82.0401C544.288 81.9352 541.478 81.5037 538.69 81.667C533.839 81.9468 529.023 82.5882 524.183 83.078C524.195 83.3229 524.207 83.5794 524.218 83.8243C525.874 83.8243 527.542 83.8243 529.198 83.8243C533.501 83.8243 537.419 85.107 540.976 87.4742C542.609 88.5587 543.903 89.9698 543.553 92.1271C543.238 94.0512 541.618 94.7858 540.032 95.3223C537.524 96.1619 534.97 96.8615 532.405 97.5379C528.323 98.6107 524.23 99.6136 520.3 100.605C522.201 101.888 524.172 103.042 525.933 104.465C526.807 105.176 527.437 106.284 527.95 107.333C529.384 110.237 528.452 112.231 525.373 113.304C520.603 114.971 515.974 115.1 512.067 111.45C510.341 109.829 509.14 107.648 507.507 105.456C506.516 108.103 505.548 110.703 504.58 113.316C504.195 114.353 503.997 115.496 503.449 116.429C502.248 118.458 499.507 118.446 497.886 116.522C495.939 114.213 495.321 111.333 494.656 108.546C493.945 105.596 493.723 102.517 493.257 99.5086C493.21 99.2171 493 98.9372 492.615 98.1093C491.939 102.214 491.344 105.747 490.796 109.281C490.54 110.878 490.516 112.534 490.12 114.097C489.548 116.312 487.694 116.919 485.758 115.729C482.855 113.945 482.073 110.867 481.035 107.963C480.487 106.412 480.044 104.814 479.438 102.89C479.006 103.497 478.68 103.777 478.598 104.103C477.712 107.671 476.837 111.251 475.998 114.831C475.426 117.304 473.747 118.423 471.508 117.758C469.665 117.222 468.289 114.19 468.931 112.173C470.773 106.412 472.639 100.663 474.423 94.8791C474.855 93.4914 475.088 92.0338 475.321 90.5995C475.648 88.5471 476.452 88.1389 478.516 88.8153C481.105 89.6666 482.621 91.2991 483.228 94.0045C483.799 96.5 484.709 98.9256 485.467 101.374C485.572 101.328 485.677 101.339 485.793 101.351ZM520.207 106.494C520.743 106.447 521.478 106.575 521.944 106.272C522.294 106.039 522.492 104.838 522.411 104.803C520.312 103.823 518.224 102.762 516.02 102.109C514.982 101.806 514.563 102.657 515.029 103.87C515.974 106.354 518.038 106.377 520.207 106.494Z" fill="black"/>
<path d="M161.484 132.777C159.828 135.273 158.568 137.43 157.064 139.401C154.825 142.328 151.245 143.237 148.796 139.669C147.7 138.071 146.79 136.357 145.647 134.445C144.656 137.418 143.606 140.229 142.802 143.121C142.265 145.08 142.3 147.214 141.659 149.126C141.227 150.409 140.166 152.298 139.21 152.415C137.729 152.589 135.77 151.866 134.592 150.84C132.365 148.916 132.761 147.237 134.125 144.555C135.898 141.045 137.379 137.325 138.534 133.558C140.329 127.716 141.752 121.769 143.303 115.857C143.665 114.492 144.224 113.967 145.81 114.317C149.402 115.134 150.732 116.65 151.128 120.929C151.408 124.054 151.676 127.168 151.968 130.293C152.003 130.678 152.178 131.063 152.866 131.646C154.183 129.045 155.676 126.503 156.772 123.821C157.892 121.069 158.498 118.119 159.629 115.379C159.921 114.679 161.39 114.002 162.23 114.096C165.658 114.481 167.279 116.743 167.396 120.521C167.501 123.798 167.723 127.063 167.921 130.328C167.956 130.853 168.119 131.366 168.725 131.867C168.819 130.48 168.959 129.092 168.97 127.704C168.994 126.014 168.935 124.323 168.842 122.643C168.76 120.988 168.632 119.332 168.457 117.687C168.271 115.868 169.122 114.819 170.731 114.142C174.323 112.638 177.88 111.052 181.483 109.56C186.125 107.635 190.941 107.262 195.839 108.195C196.76 108.37 197.716 108.825 198.439 109.42C199.046 109.909 199.862 111.029 199.675 111.437C199.267 112.3 198.369 113.279 197.483 113.536C191.967 115.099 186.148 115.647 181.052 118.585C180.305 119.017 179.559 119.425 178.999 120.276C181.507 119.635 184.037 119.098 186.498 118.34C188.667 117.676 190.568 118.119 192.049 119.635C192.737 120.346 193.285 121.746 193.075 122.632C192.842 123.623 191.839 124.801 190.883 125.186C188.574 126.118 186.043 126.492 183.699 127.355C181.448 128.171 179.314 129.314 176.912 130.41C177.297 131.949 177.518 133.29 177.973 134.573C178.906 137.22 181.367 137.686 183.221 135.622C184.585 134.106 185.985 134.118 187.361 135.576C189.11 137.418 189.355 139.657 188.41 141.745C187.547 143.657 185.623 144.485 183.407 144.555C179.349 144.672 176.41 142.631 173.822 139.832C173.273 139.237 172.714 138.643 171.851 137.71C171.513 139.447 171.174 140.742 171.011 142.071C170.72 144.485 168.854 145.581 166.615 144.392C164.119 143.062 163.314 140.543 162.65 138.025C162.242 136.404 161.938 134.783 161.484 132.777Z" fill="black"/>
<path d="M108.901 144.461C106.441 146.595 104.26 148.892 101.706 150.63C95.8637 154.571 89.4031 156.426 82.4761 154.082C75.5958 151.749 70.7445 146.327 71.7824 138.047C72.3072 133.849 73.5666 130.176 76.4237 126.981C78.5228 124.637 80.1205 121.827 82.3012 119.576C84.1204 117.699 86.3245 116.101 88.5985 114.807C91.9687 112.894 95.3855 110.818 99.4088 110.667C104.225 110.492 107.863 112.976 110.417 116.731C111.187 117.862 111.012 120.311 110.301 121.64C107.047 127.716 102.616 132.742 95.9453 135.307C91.7588 136.916 88.8667 135.505 87.1408 131.972C85.9979 129.64 86.8959 128.299 89.4381 128.683C92.2835 129.115 94.5459 128.042 96.3884 126.316C99.059 123.809 101.403 120.929 103.817 118.165C104.132 117.804 104.108 117.151 104.272 116.544C101.123 115.809 98.4176 116.637 95.8403 117.932C87.1174 122.293 81.0884 129.022 78.4179 138.479C77.6599 141.173 77.4733 144.018 79.4324 146.455C81.6132 149.184 84.6568 149.604 87.7705 149.091C94.231 148.029 99.0589 144.251 103.082 139.319C103.63 138.642 104.015 137.744 104.237 136.893C104.761 134.922 105.461 134.421 107.467 134.864C108.202 135.027 108.936 135.167 109.869 135.365C110.021 134.467 110.207 133.616 110.289 132.753C111.28 122.69 122.767 118.958 130.86 124.066C138.58 128.94 137.624 140.426 131.525 144.928C124.446 150.128 116.26 150.747 108.901 144.461ZM125.671 127.984C121.787 127.762 117.298 130.736 115.817 134.456C115.385 135.54 115.047 136.788 114.289 137.604C112.237 139.797 112.528 141.138 115.49 142.117C120.726 143.831 128.236 139.33 129.402 133.779C130.289 129.546 129.426 128.205 125.671 127.984Z" fill="black"/>
<path d="M420.897 14.8004C423.532 13.611 426.039 12.6081 428.418 11.372C430.482 10.2992 431.998 10.3808 432.955 12.853C433.153 12.8063 433.351 12.7597 433.549 12.7131C433.619 10.2759 433.701 7.83867 433.736 5.40147C433.748 4.50355 433.514 3.59398 433.643 2.73105C433.759 1.91476 434.028 0.597043 434.517 0.457108C435.369 0.212222 436.511 0.503753 437.398 0.888574C440.08 2.07802 440.663 4.42193 440.488 7.10401C440.336 9.40127 440.127 11.6985 440.103 13.9958C440.092 15.2086 440.418 16.4213 440.593 17.6224C440.826 17.7507 441.048 17.879 441.281 18.0073C442.762 16.7712 444.465 15.71 445.701 14.2523C448.663 10.7423 451.228 6.95241 452.744 2.53281C453.118 1.45997 453.316 -0.0676472 455.042 0.00232022C456.523 0.0606264 459.473 2.15965 459.566 3.57066C459.66 5.08662 459.496 6.74251 458.96 8.15352C456.313 15.0919 453.397 21.9488 450.774 28.8988C449.398 32.5605 449.421 36.3387 450.809 40.1053C451.147 41.0382 451.065 42.8573 450.505 43.2072C449.689 43.7203 448.08 43.6386 447.147 43.1605C444.243 41.6796 443.38 38.7642 443.124 35.8256C442.855 32.6771 443.065 29.4936 443.065 26.2634C435.823 26.1468 434.751 20.4445 433.293 14.7888C432.442 15.6983 431.719 16.363 431.112 17.121C429.188 19.5582 426.401 20.6777 423.707 21.9021C422.506 22.4502 421.841 23.1382 422.296 24.4676C423.287 27.3945 424.372 30.2865 425.328 33.2252C425.713 34.3913 426.039 35.6274 426.074 36.8285C426.121 38.5427 424.675 39.5222 423.019 39.0791C421.13 38.566 419.905 37.2716 419.206 35.4991C417.946 32.2923 416.745 29.0738 415.474 25.727C412.558 26.2401 410.203 27.4995 409.165 30.6947C408.302 33.3184 407.322 35.9306 406.121 38.4261C405.433 39.8487 404.617 41.5046 402.611 41.5746C401.037 41.6329 398.809 39.6388 398.098 38.3095C396.909 36.0822 397.608 34.4729 399.066 32.7704C400.687 30.8696 402.156 28.8172 399.672 26.4616C399.532 26.3334 399.521 26.0768 399.439 25.8786C398.11 22.6251 398.833 20.9226 402.215 21.0159C405.48 21.1091 406.343 19.3366 407.241 16.9228C408.524 13.4827 409.981 10.1009 411.416 6.73085C412.034 5.28486 413.223 5.50642 414.448 5.87958C417.806 6.89411 419.241 9.56453 420.278 12.5964C420.43 13.1329 420.582 13.7392 420.897 14.8004Z" fill="black"/>
<path d="M329.038 26.6611C327.125 28.0255 325.644 29.005 324.268 30.1128C324 30.3344 323.965 31.0341 324.035 31.4772C324.548 34.8356 325.108 38.1941 325.668 41.5525C325.726 41.8907 325.901 42.2055 326.006 42.5437C326.531 44.1763 326.286 45.6223 324.816 46.6251C323.779 47.3248 321.178 46.4619 320.513 45.0042C319.604 43.0102 318.927 40.8762 318.379 38.7538C317.913 36.9463 317.796 35.0339 317.458 33.1914C317.388 32.7833 316.887 32.0603 316.805 32.0952C315.032 32.69 312.537 32.8999 311.72 34.1709C310.204 36.4915 309.586 39.4302 308.793 42.1705C308.245 44.048 308.199 46.182 305.726 46.6135C303.86 46.94 301.738 45.2841 300.677 42.9052C300.082 41.5758 299.965 40.5146 300.968 39.1386C302.239 37.3778 302.986 35.2321 304 33.1681C303.347 32.0719 302.636 30.9175 301.971 29.7164C301.085 28.1304 301.866 25.9498 303.522 26.1364C307.091 26.5445 307.406 23.9674 308.082 21.7984C309.925 15.8395 311.615 9.8223 313.353 3.82842C313.843 2.13755 315.242 2.18419 316.373 2.59233C318.741 3.4436 320.723 5.02953 321.306 7.53669C322.239 11.5132 322.834 15.5713 323.545 19.6061C323.662 20.2708 323.697 20.9588 323.755 21.5185C325.994 21.6934 328.047 21.8567 330.321 22.0316C331.195 19.4661 332.257 16.4692 333.236 13.4489C333.703 12.0146 333.831 9.93891 335.755 10.2304C337.364 10.4753 339.044 11.5948 340.221 12.7959C340.839 13.4373 340.758 15.1515 340.455 16.236C338.892 21.8567 337.096 27.4191 335.51 33.0398C335.149 34.3225 335.324 35.7452 335.219 37.576C337.073 37.0513 338.612 36.7131 340.07 36.1767C343.055 35.0922 345.994 33.8678 348.979 32.7716C349.527 32.5734 350.227 32.585 350.81 32.7133C352.653 33.0981 353.539 34.9173 352.326 36.13C348.443 40.0249 344.361 43.6982 338.624 44.6544C332.735 45.6339 329.656 43.1268 328.117 37.1562C327.51 34.8123 328.315 32.1069 328.513 29.5764C328.595 28.7251 328.805 27.9322 329.038 26.6611ZM314.624 24.2356C314.881 24.4338 315.149 24.6321 315.405 24.842C316.024 24.3638 317.12 23.9324 317.178 23.396C317.388 21.2503 317.26 19.0697 317.26 16.9007C316.921 16.8773 316.572 16.8424 316.233 16.819C315.697 19.2912 315.161 21.7634 314.624 24.2356Z" fill="black"/>
<path d="M151.665 37.9123C152.551 30.5541 154.906 23.7673 160.877 18.9978C165.822 15.0563 171.944 15.7327 175.687 21.0385C176.609 22.3446 176.62 23.5341 175.419 24.6535C174.113 25.8663 172.702 25.3998 171.769 24.3853C170.09 22.5312 168.504 22.8227 166.626 23.8955C162.685 26.1462 160.831 29.9361 159.676 33.9475C158.918 36.6063 158.93 39.5566 158.976 42.3669C159.035 45.9119 163.28 47.8127 165.927 47.5678C170.685 47.1247 174.929 45.2822 178.906 42.7517C179.384 42.4486 179.781 41.8772 180.026 41.3407C182.743 35.4168 185.413 29.4696 188.119 23.5341C188.865 21.8898 189.658 20.2572 190.521 18.6713C191.256 17.3186 193.821 16.7939 195.559 17.6801C198.194 19.0212 200.422 20.852 201.506 23.709C202.393 26.0529 203.361 28.3851 203.932 30.8107C204.387 32.7697 205.32 34.0058 207.139 34.7521C208.69 35.3935 209.028 36.583 207.862 37.7491C206.882 38.7286 206.882 39.4516 207.745 40.4078C208.352 41.0725 208.876 41.8189 209.448 42.5185C210.871 44.2327 210.999 45.7603 209.821 46.9265C208.737 47.9993 206.206 47.8827 204.958 46.4717C203.78 45.1423 202.742 43.6497 201.879 42.0987C201.226 40.9093 200.433 40.5245 199.197 40.7693C196.084 41.399 192.947 41.9704 189.856 42.7051C189.355 42.8217 188.853 43.5447 188.62 44.1045C187.816 46.0869 187.151 48.1276 186.37 50.1216C185.472 52.4189 182.498 53.4218 180.55 51.9758C179.408 51.1362 178.498 51.1828 177.297 51.7659C172.469 54.1214 167.443 54.378 162.253 53.1186C157.204 51.9291 151.21 45.5155 151.665 37.9123ZM193.553 33.2012C193.646 33.4578 193.751 33.7026 193.845 33.9592C195.069 33.726 197.157 33.7726 197.343 33.2129C197.74 31.9651 197.18 30.4025 197.017 28.9682C196.818 28.9215 196.632 28.8866 196.434 28.8399C195.477 30.2976 194.509 31.7436 193.553 33.2012Z" fill="black"/>
<path d="M250.718 129.466C249.436 126.061 248.957 122.341 249.587 118.61C250.357 114.039 251.418 109.526 252.456 105.001C252.619 104.301 253.307 103.718 253.54 103.392C252.747 101.713 251.838 100.068 251.208 98.3192C251.022 97.7828 251.395 96.6166 251.85 96.3484C255.511 94.2727 258.986 91.7889 263.604 91.9988C267.22 92.162 270.1 93.5264 272.281 96.2551C274.03 98.4474 273.284 100.943 272.327 103.194C271.616 104.884 270.426 106.377 269.295 108.185C270.007 108.464 270.613 108.698 271.219 108.954C272.642 109.537 274.1 110.027 275.464 110.715C280.735 113.409 280.98 118.073 277.983 121.84C275.301 125.21 272.094 128.335 268.619 130.877C264.899 133.594 260.829 136.043 256.071 136.708C253.645 137.046 251.126 138.096 249.004 135.635C247.826 134.282 246.765 132.825 247.523 131.215C247.943 130.341 249.587 130.049 250.718 129.466ZM257.902 115.45C256.339 119.601 255.278 124.021 257.727 128.708C263.931 125.898 269.447 122.4 272.934 115.45C267.616 115.45 262.951 115.45 257.902 115.45ZM265.773 99.6369C262.567 99.1355 260.607 100.651 258.648 102.016C258.065 102.424 257.809 103.287 257.389 103.94C258.1 104.29 258.823 104.943 259.535 104.919C260.421 104.896 261.494 104.558 262.123 103.963C263.371 102.797 264.362 101.351 265.773 99.6369Z" fill="black"/>
<path d="M382.296 29.5283C383.334 26.4031 384.326 23.2663 385.422 20.1527C386.74 16.4328 388.127 12.7362 389.503 9.03957C390.238 7.06882 391.789 7.41865 393.107 8.07168C395.941 9.48269 397.072 12.2231 394.518 15.1151C393.235 16.5611 392.815 18.835 392.209 20.8057C390.646 25.8317 389.188 30.9044 387.684 35.9537C387.509 36.5484 387.229 37.1315 387.136 37.7495C386.856 39.5337 385.76 40.968 384.174 41.1546C382.88 41.3062 381.189 40.6182 380.139 39.7552C377.422 37.5163 376.337 34.2395 375.463 30.9394C375.09 29.54 374.798 28.129 374.332 26.1466C373.247 29.3068 372.407 31.9072 371.44 34.461C370.775 36.1986 370.017 37.9011 369.142 39.5453C367.766 42.0991 364.023 41.8309 362.227 39.4754C359.498 35.9187 359.265 31.7207 358.658 27.6159C358.215 24.584 358.052 21.5054 357.912 18.4385C357.842 16.9692 357.131 15.1151 359.428 14.4387C360.746 14.0422 363.37 14.9401 364.163 16.4328C364.711 17.4706 365.084 18.7067 365.154 19.8728C365.305 22.3917 365.201 24.9222 365.201 27.441C365.457 27.4643 365.714 27.4876 365.97 27.511C367.031 24.3274 368.104 21.1439 369.165 17.9487C369.562 16.771 369.923 15.5699 370.308 14.3804C370.926 12.468 372.501 13.0977 373.62 13.4009C375.894 14.0072 377.48 15.5932 378.215 17.8555C379.451 21.657 380.594 25.4936 381.772 29.3068C381.935 29.3767 382.122 29.4467 382.296 29.5283Z" fill="black"/>
<path d="M227.174 30.3684C226.509 31.4179 225.786 32.0943 225.646 32.8756C224.981 36.5838 224.41 40.3038 223.943 44.047C223.663 46.2976 222.649 47.4288 220.048 48.0468C218.031 48.5249 217.098 47.3588 215.838 46.0061C213.238 43.2191 214.602 40.8518 215.64 38.0065C217.215 33.6802 218.276 29.1673 219.419 24.6894C220.235 21.4825 222.427 20.4097 225.541 21.3776C228.328 22.2405 229.972 24.118 231.313 26.4502C232.829 29.0973 234.24 31.7911 235.756 34.4382C236.456 35.6626 237.296 36.8054 238.065 37.9715C238.334 37.9249 238.602 37.8899 238.87 37.8432C239.278 34.2866 239.546 30.6949 240.141 27.1616C240.853 22.9285 241.727 18.7188 242.765 14.5441C243.162 12.9465 244.141 11.4539 246.217 11.5239C248.094 11.5822 250.602 13.2847 251.033 14.9406C251.196 15.5586 251.115 16.6315 250.707 16.9696C247.733 19.4418 247.686 22.9752 247.243 26.287C246.695 30.4267 246.543 34.6131 246.112 38.7645C245.914 40.6886 245.471 42.5894 245.144 44.5018C244.619 47.5221 241.587 48.4666 238.835 46.4842C234.427 43.3124 231.372 39.1027 229.203 34.17C228.713 33.0388 228.048 31.9776 227.174 30.3684Z" fill="black"/>
<path d="M431.439 104.324C427.24 106.062 422.972 107.741 418.809 109.642C418.121 109.957 417.724 111.193 417.48 112.079C417.2 113.07 417.328 114.166 417.13 115.181C416.652 117.606 414.343 118.609 412.558 117C409.468 114.213 407.835 112.021 409.561 108.569C411.567 104.546 411.462 100.196 412.232 95.9747C412.757 93.106 413.211 90.2141 413.666 87.3337C413.946 85.5496 414.972 85.2114 416.535 85.7245C419.695 86.7623 421.211 89.8409 420.302 93.0244C419.579 95.5432 419.101 98.132 418.401 101.211C420.36 100.604 421.853 100.184 423.31 99.6713C425.479 98.9133 427.672 98.202 429.748 97.2108C430.424 96.8843 431.007 95.8348 431.159 95.0301C431.567 92.9195 431.59 90.7272 432.022 88.6165C432.686 85.3163 435.975 84.1502 438.272 86.5408C439.812 88.1267 441.059 90.1324 441.969 92.1498C443.205 94.9019 442.435 97.8055 440.01 99.6363C438.296 100.931 438.226 102.47 438.389 104.231C438.715 107.683 439.194 111.123 439.357 114.574C439.403 115.519 438.75 117.14 438.074 117.338C436.896 117.7 435.45 117.186 434.96 115.636C433.829 112.032 432.721 108.417 431.439 104.324Z" fill="black"/>
<path d="M466.482 40.0711C472.604 40.0011 478.202 38.4735 482.831 34.2521C484.767 32.4913 484.802 31.9432 482.761 30.3573C479.473 27.8035 476.068 25.378 472.779 22.8125C469.187 20.0021 467.286 16.2589 467.006 11.6993C466.89 9.72859 467.718 8.34091 469.269 7.09315C473.77 3.48984 478.621 0.702802 484.546 0.714463C487.041 0.714463 489.677 0.539544 491.881 2.37036C493.245 3.51316 494.073 4.73759 493.397 6.48677C492.697 8.27094 491.193 8.24762 489.56 8.00273C483.624 7.11648 478.82 9.50703 474.598 13.3669C473.595 14.2765 473.525 15.5475 474.61 16.4921C476.849 18.4395 479.228 20.2354 481.444 22.2178C484.231 24.7016 486.983 27.2554 489.63 29.8909C492.452 32.7012 491.473 37.0975 488.534 39.7446C483.403 44.3624 477.187 46.4265 470.447 47.0445C467.508 47.3127 464.709 46.7996 463.135 43.791C461.665 41.004 462.272 40.0245 465.42 40.0711C465.782 40.0711 466.132 40.0711 466.482 40.0711Z" fill="black"/>
<path d="M468.114 105.244C468.453 108.615 467.846 112.148 464.511 114.678C460.721 117.535 456.523 118.597 451.765 117.955C448.686 117.535 446.785 115.436 444.651 113.699C439.019 109.104 438.739 102.749 443.52 97.0466C447.648 92.1256 452.849 90.6562 458.995 91.5542C463.695 92.2422 468.336 97.0816 468.126 102.224C468.091 103.064 468.114 103.903 468.114 105.244ZM456.476 98.3293C453.024 98.5042 449.538 100.568 447.124 104.463C446.879 104.848 446.587 105.583 446.75 105.793C448.056 107.355 449.211 109.466 450.925 110.189C455.182 111.985 461.712 108.533 462.249 103.88C462.797 99.1923 462.307 98.411 456.476 98.3293Z" fill="black"/>
<path d="M17.7774 47.7325C12.5413 48.2689 8.84459 46.2632 6.65221 42.2284C4.44816 38.1703 2.85052 33.7857 1.04296 29.5177C0.576499 28.4099 0.0750493 27.2321 0.00507957 26.066C-0.0532286 25.0864 0.401575 23.2556 0.79807 23.209C2.08085 23.0574 4.00502 23.0923 4.65807 23.8853C6.01082 25.5412 6.83879 27.6752 7.62012 29.7276C8.61136 32.3514 9.18278 35.1384 10.2323 37.7272C11.3169 40.4093 13.3693 40.8174 15.585 38.8816C18.8503 36.0363 21.3225 32.6429 22.5353 28.3749C23.305 25.6811 24.3079 23.0457 25.2758 20.4103C25.4741 19.8622 26.1854 18.9759 26.407 19.0459C28.1912 19.594 30.1737 20.0138 31.5498 21.1333C32.3428 21.7746 32.6693 23.8853 32.2495 24.9581C28.9492 33.3892 26.8618 42.1235 25.1359 50.9743C24.0747 56.4201 22.9901 61.8543 21.9872 67.3117C21.7773 68.4778 21.719 69.7373 21.8823 70.9034C22.1155 72.5593 22.3371 74.1335 24.9493 73.7254C27.1533 73.3756 29.0192 75.253 28.9492 76.9672C28.8793 78.5531 25.7073 80.8737 23.6549 80.8504C19.375 80.7921 15.6083 77.3404 14.6171 72.8974C13.3926 67.405 14.8853 62.1924 15.9115 56.9216C16.5063 53.9829 17.1243 51.0093 17.7774 47.7325Z" fill="black"/>
<path d="M72.9136 42.0181C72.9602 37.2836 72.9719 32.5492 73.0652 27.8147C73.1002 26.0889 73.9398 25.4242 75.724 25.9373C78.9426 26.8468 80.6686 29.5523 80.3304 33.3771C79.9339 37.89 79.5724 42.3913 81.1 46.7992C82.3945 50.5425 83.2808 50.6824 86.1612 47.977C91.1407 43.2775 92.5751 37.202 93.0882 30.765C93.2631 28.5377 93.0299 26.2871 93.0765 24.0482C93.0998 22.5322 93.508 21.6226 95.4555 22.229C100.015 23.64 100.575 24.6779 100.412 29.459C100.19 35.721 99.3388 41.7732 96.7033 47.5105C95.1056 50.9856 93.0765 54.2041 89.9279 56.3381C84.96 59.7082 82.033 58.2972 78.5578 54.2624C75.6774 50.9156 73.6366 46.6943 72.9136 42.0181Z" fill="black"/>
<path d="M39.7363 43.6966C40.0512 42.0523 40.2145 40.5247 40.6576 39.0904C42.057 34.5542 45.2989 32.047 49.8936 31.3007C55.0597 30.4727 59.3745 32.2569 62.4648 36.3267C68.0508 43.6966 66.0566 52.3609 57.8002 57.2119C49.6954 61.9697 39.0133 54.6698 37.5556 46.7401C37.2174 44.9327 37.8821 43.7899 39.7363 43.6966ZM50.7566 50.635C53.8935 49.9003 56.599 47.9296 57.9285 44.816C58.5815 43.2884 58.3483 40.8979 57.567 39.3936C56.634 37.6094 54.3717 37.8776 52.5291 38.4024C48.121 39.6734 46.3718 42.1573 46.3135 47.1483C46.2785 50.2152 47.4213 51.1831 50.7566 50.635Z" fill="black"/>
</svg>
