<svg fill="none" height="156" viewBox="0 0 551 156" width="551" xmlns="http://www.w3.org/2000/svg"><g fill="#000"><path d="m348.967 112.194c2.088 1.073 3.779 2.123 5.598 2.834 2.414.944 4.35 3.335 4.093 5.481-.233 1.959-2.029 3.067-3.895 2.309-2.694-1.097-5.352-2.286-8.023-3.44-1.399-.607-2.764-1.307-4.198-1.761-.502-.164-1.481.093-1.761.489-1.154 1.668-2.239 3.406-3.149 5.225-.804 1.609-1.947 2.052-3.358 1.142-2.181-1.387-3.965-1.096-6.204.164-2.741 1.539-5.773 2.798-8.84 3.486-5.609 1.272-10.518-.093-13.865-5.2-.152-.222-.35-.409-.782-.91-.035.665-.128 1.014-.046 1.318.699 2.367-.35 4.746-3.266 4.338-3.568-.502-7.113-1.341-10.6-2.286-1.668-.455-2.531-.187-3.23 1.411-1.061 2.414-2.321 4.735-3.487 7.102-.84 1.691-2.087 2.029-3.813 1.376-1.715-.653-2.543-1.924-3.266-3.522-.839-1.854.094-2.787 1.132-4.14 1.679-2.18 3.626-4.303 2.437-7.684-.863-2.461-.14-2.892 2.46-3.289.782-.116 1.785-.886 2.123-1.621 1.936-4.303 3.732-8.664 5.504-13.025.723-1.785 1.295-3.6387 1.913-5.4695.431-1.2827 1.177-1.9241 2.647-1.7842 2.95.2799 5.096 2.134 5.831 5.7837.734 3.685 1.119 7.44 1.667 11.16.07.502.28.98.956 1.516.444-1.108.863-2.216 1.353-3.3 2.426-5.492 5.703-9.9471 12.163-11.2415 4.537-.8979 8.362 2.2975 10.099 6.0755 1.388 3.02-.268 6.938-3.58 9.177-.956.642-1.877 1.33-2.88 1.878-.525.291-1.19.443-1.796.443-3.953.012-4.793.233-8.793 2.507.082 2.274.991 3.254 3.335 3.207 5.609-.093 10.134-2.74 14.484-6.017 4.093-3.079 4.49-7.627 5.434-12 .443-2.029.513-4.151 1.003-6.1567.222-.9213 1.143-2.4489 1.598-2.4022 1.492.1632 3.195.6063 4.303 1.5509 1.621 1.3877 2.227 3.335 1.411 5.644-.525 1.446-.49 3.09-.711 4.723.291-.023.548.046.676-.058 6.297-4.723 13.842-7.079 20.653-10.8221 2.507-1.376 5.073-2.6121 7.58-3.9765 1.854-1.0145 3.801-1.3177 5.387.14 1.248 1.1428 2.473 2.8336 1.295 4.6061-.711 1.0729-2.064 1.8192-3.277 2.4372-7.673 3.9413-15.393 7.8013-23.09 11.7083-.292.116-.536.361-1.225.874zm-55.87 3.359c3.428-.49 4.256-3.044 2.274-6.344-.758 2.134-1.47 4.105-2.274 6.344zm26.507-9.458c-.187-.314-.362-.629-.549-.944-1.247.746-2.495 1.492-3.743 2.239.152.268.315.536.467.804 1.271-.699 2.542-1.399 3.825-2.099z"/><path d="m485.793 101.351c.269-1.283.478-2.5654.817-3.8248.979-3.6966 1.982-7.3932 3.055-11.0548.42-1.4343 1.819-1.8542 3.195-1.1895 2.659 1.2944 4.42 3.3468 4.991 6.2271.653 3.2652 1.085 6.5653 1.586 9.854.199 1.283.362 2.577.537 3.86.175.035.361.07.536.093.712-1.761 1.435-3.522 2.146-5.283 1.061-2.635 2.134-5.2588 3.195-7.8943.642-1.5859 2.064-2.2156 3.545-1.3993 1.073.5831 1.983 1.4576 3.044 2.064.746.4198 1.714 1.0029 2.437.8396 6.146-1.4226 12.257-2.9969 18.367-4.5245 0-.1866.012-.3848.012-.5714-3.137-.5014-6.274-.9562-9.387-1.5276-1.248-.2333-2.426-.828-3.674-1.0729-.933-.1866-1.971-.2915-2.892-.1049-2.624.5364-5.201 1.3177-7.825 1.8424-2.192.4432-4.058-.7113-4.618-2.6354-.781-2.6587-.14-4.198 2.251-5.2359 6.39-2.7754 13.131-4.1747 20.023-4.8044 4.559-.4198 9.166-.7463 13.737-.6064 3.277.105 6.682.6764 8.711 4.0115.747 1.2244 1.132 2.3789-.105 3.3001-.559.4198-1.574.3498-2.378.3265-2.811-.1049-5.621-.5364-8.409-.3731-4.851.2798-9.667.9212-14.507 1.411.012.2449.024.5014.035.7463h4.98c4.303 0 8.221 1.2827 11.778 3.6499 1.633 1.0845 2.927 2.4956 2.577 4.6529-.315 1.9241-1.935 2.6587-3.521 3.1952-2.508.8396-5.062 1.5392-7.627 2.2156-4.082 1.0728-8.175 2.0757-12.105 3.0671 1.901 1.283 3.872 2.437 5.633 3.86.874.711 1.504 1.819 2.017 2.868 1.434 2.904.502 4.898-2.577 5.971-4.77 1.667-9.399 1.796-13.306-1.854-1.726-1.621-2.927-3.802-4.56-5.994-.991 2.647-1.959 5.247-2.927 7.86-.385 1.037-.583 2.18-1.131 3.113-1.201 2.029-3.942 2.017-5.563.093-1.947-2.309-2.565-5.189-3.23-7.976-.711-2.95-.933-6.029-1.399-9.0374-.047-.2915-.257-.5714-.642-1.3993-.676 4.1047-1.271 7.6377-1.819 11.1717-.256 1.597-.28 3.253-.676 4.816-.572 2.215-2.426 2.822-4.362 1.632-2.903-1.784-3.685-4.862-4.723-7.766-.548-1.551-.991-3.149-1.597-5.073-.432.607-.758.887-.84 1.213-.886 3.568-1.761 7.148-2.6 10.728-.572 2.473-2.251 3.592-4.49 2.927-1.843-.536-3.219-3.568-2.577-5.585 1.842-5.761 3.708-11.51 5.492-17.2939.432-1.3877.665-2.8453.898-4.2796.327-2.0524 1.131-2.4606 3.195-1.7842 2.589.8513 4.105 2.4838 4.712 5.1892.571 2.4955 1.481 4.9211 2.239 7.3695.105-.046.21-.035.326-.023zm34.414 5.143c.536-.047 1.271.081 1.737-.222.35-.233.548-1.434.467-1.469-2.099-.98-4.187-2.041-6.391-2.694-1.038-.303-1.457.548-.991 1.761.945 2.484 3.009 2.507 5.178 2.624z"/><path d="m161.484 132.777c-1.656 2.496-2.916 4.653-4.42 6.624-2.239 2.927-5.819 3.836-8.268.268-1.096-1.598-2.006-3.312-3.149-5.224-.991 2.973-2.041 5.784-2.845 8.676-.537 1.959-.502 4.093-1.143 6.005-.432 1.283-1.493 3.172-2.449 3.289-1.481.174-3.44-.549-4.618-1.575-2.227-1.924-1.831-3.603-.467-6.285 1.773-3.51 3.254-7.23 4.409-10.997 1.795-5.842 3.218-11.789 4.769-17.701.362-1.365.921-1.89 2.507-1.54 3.592.817 4.922 2.333 5.318 6.612.28 3.125.548 6.239.84 9.364.035.385.21.77.898 1.353 1.317-2.601 2.81-5.143 3.906-7.825 1.12-2.752 1.726-5.702 2.857-8.442.292-.7 1.761-1.377 2.601-1.283 3.428.385 5.049 2.647 5.166 6.425.105 3.277.327 6.542.525 9.807.035.525.198 1.038.804 1.539.094-1.387.234-2.775.245-4.163.024-1.69-.035-3.381-.128-5.061-.082-1.655-.21-3.311-.385-4.956-.186-1.819.665-2.868 2.274-3.545 3.592-1.504 7.149-3.09 10.752-4.582 4.642-1.925 9.458-2.298 14.356-1.365.921.175 1.877.63 2.6 1.225.607.489 1.423 1.609 1.236 2.017-.408.863-1.306 1.842-2.192 2.099-5.516 1.563-11.335 2.111-16.431 5.049-.747.432-1.493.84-2.053 1.691 2.508-.641 5.038-1.178 7.499-1.936 2.169-.664 4.07-.221 5.551 1.295.688.711 1.236 2.111 1.026 2.997-.233.991-1.236 2.169-2.192 2.554-2.309.932-4.84 1.306-7.184 2.169-2.251.816-4.385 1.959-6.787 3.055.385 1.539.606 2.88 1.061 4.163.933 2.647 3.394 3.113 5.248 1.049 1.364-1.516 2.764-1.504 4.14-.046 1.749 1.842 1.994 4.081 1.049 6.169-.863 1.912-2.787 2.74-5.003 2.81-4.058.117-6.997-1.924-9.585-4.723-.549-.595-1.108-1.189-1.971-2.122-.338 1.737-.677 3.032-.84 4.361-.291 2.414-2.157 3.51-4.396 2.321-2.496-1.33-3.301-3.849-3.965-6.367-.408-1.621-.712-3.242-1.166-5.248z"/><path d="m108.901 144.461c-2.46 2.134-4.641 4.431-7.195 6.169-5.8423 3.941-12.3029 5.796-19.2299 3.452-6.8803-2.333-11.7316-7.755-10.6937-16.035.5248-4.198 1.7842-7.871 4.6413-11.066 2.0991-2.344 3.6968-5.154 5.8775-7.405 1.8192-1.877 4.0233-3.475 6.2973-4.769 3.3702-1.913 6.787-3.989 10.8103-4.14 4.8162-.175 8.4542 2.309 11.0082 6.064.77 1.131.595 3.58-.116 4.909-3.254 6.076-7.685 11.102-14.3557 13.667-4.1865 1.609-7.0786.198-8.8045-3.335-1.1429-2.332-.2449-3.673 2.2973-3.289 2.8454.432 5.1078-.641 6.9503-2.367 2.6706-2.507 5.0146-5.387 7.4286-8.151.315-.361.291-1.014.455-1.621-3.149-.735-5.8544.093-8.4317 1.388-8.7229 4.361-14.7519 11.09-17.4224 20.547-.758 2.694-.9446 5.539 1.0145 7.976 2.1808 2.729 5.2244 3.149 8.3381 2.636 6.4605-1.062 11.2884-4.84 15.3115-9.772.548-.677.933-1.575 1.155-2.426.524-1.971 1.224-2.472 3.23-2.029.735.163 1.469.303 2.402.501.152-.898.338-1.749.42-2.612.991-10.063 12.478-13.795 20.571-8.687 7.72 4.874 6.764 16.36.665 20.862-7.079 5.2-15.265 5.819-22.624-.467zm16.77-16.477c-3.884-.222-8.373 2.752-9.854 6.472-.432 1.084-.77 2.332-1.528 3.148-2.052 2.193-1.761 3.534 1.201 4.513 5.236 1.714 12.746-2.787 13.912-8.338.887-4.233.024-5.574-3.731-5.795z"/><path d="m420.897 14.8004c2.635-1.1894 5.142-2.1923 7.521-3.4284 2.064-1.0728 3.58-.9912 4.537 1.481.198-.0467.396-.0933.594-.1399.07-2.4372.152-4.87443.187-7.31163.012-.89792-.222-1.80749-.093-2.67042.116-.81629.385-2.134007.874-2.273942.852-.244886 1.994.046645 2.881.431466 2.682 1.189446 3.265 3.533356 3.09 6.215436-.152 2.29726-.361 4.59449-.385 6.89179-.011 1.2128.315 2.4255.49 3.6266.233.1283.455.2566.688.3849 1.481-1.2361 3.184-2.2973 4.42-3.755 2.962-3.51 5.527-7.29989 7.043-11.71949.374-1.07284.572-2.6004572 2.298-2.53048978 1.481.05830618 4.431 2.15732978 4.524 3.56833978.094 1.51596-.07 3.17185-.606 4.58286-2.647 6.93838-5.563 13.79528-8.186 20.74528-1.376 3.6617-1.353 7.4399.035 11.2065.338.9329.256 2.752-.304 3.1019-.816.5131-2.425.4314-3.358-.0467-2.904-1.4809-3.767-4.3963-4.023-7.3349-.269-3.1485-.059-6.332-.059-9.5622-7.242-.1166-8.314-5.8189-9.772-11.4746-.851.9095-1.574 1.5742-2.181 2.3322-1.924 2.4372-4.711 3.5567-7.405 4.7811-1.201.5481-1.866 1.2361-1.411 2.5655.991 2.9269 2.076 5.8189 3.032 8.7576.385 1.1661.711 2.4022.746 3.6033.047 1.7142-1.399 2.6937-3.055 2.2506-1.889-.5131-3.114-1.8075-3.813-3.58-1.26-3.2068-2.461-6.4253-3.732-9.7721-2.916.5131-5.271 1.7725-6.309 4.9677-.863 2.6237-1.843 5.2359-3.044 7.7314-.688 1.4226-1.504 3.0785-3.51 3.1485-1.574.0583-3.802-1.9358-4.513-3.2651-1.189-2.2273-.49-3.8366.968-5.5391 1.621-1.9008 3.09-3.9532.606-6.3088-.14-.1282-.151-.3848-.233-.583-1.329-3.2535-.606-4.956 2.776-4.8627 3.265.0932 4.128-1.6793 5.026-4.0931 1.283-3.4401 2.74-6.8219 4.175-10.19195.618-1.44599 1.807-1.22443 3.032-.85127 3.358 1.01453 4.793 3.68495 5.83 6.71682.152.5365.304 1.1428.619 2.204z"/><path d="m329.038 26.6611c-1.913 1.3644-3.394 2.3439-4.77 3.4517-.268.2216-.303.9213-.233 1.3644.513 3.3584 1.073 6.7169 1.633 10.0753.058.3382.233.653.338.9912.525 1.6326.28 3.0786-1.19 4.0814-1.037.6997-3.638-.1632-4.303-1.6209-.909-1.994-1.586-4.128-2.134-6.2504-.466-1.8075-.583-3.7199-.921-5.5624-.07-.4081-.571-1.1311-.653-1.0962-1.773.5948-4.268.8047-5.085 2.0757-1.516 2.3206-2.134 5.2593-2.927 7.9996-.548 1.8775-.594 4.0115-3.067 4.443-1.866.3265-3.988-1.3294-5.049-3.7083-.595-1.3294-.712-2.3906.291-3.7666 1.271-1.7608 2.018-3.9065 3.032-5.9705-.653-1.0962-1.364-2.2506-2.029-3.4517-.886-1.586-.105-3.7666 1.551-3.58 3.569.4081 3.884-2.169 4.56-4.338 1.843-5.9589 3.533-11.9761 5.271-17.96998.49-1.69087 1.889-1.64423 3.02-1.23609 2.368.85127 4.35 2.4372 4.933 4.94436.933 3.97651 1.528 8.03461 2.239 12.06941.117.6647.152 1.3527.21 1.9124 2.239.1749 4.292.3382 6.566.5131.874-2.5655 1.936-5.5624 2.915-8.5827.467-1.4343.595-3.50999 2.519-3.2185 1.609.2449 3.289 1.3644 4.466 2.5655.618.6414.537 2.3556.234 3.4401-1.563 5.6207-3.359 11.1831-4.945 16.8038-.361 1.2827-.186 2.7054-.291 4.5362 1.854-.5247 3.393-.8629 4.851-1.3993 2.985-1.0845 5.924-2.3089 8.909-3.4051.548-.1982 1.248-.1866 1.831-.0583 1.843.3848 2.729 2.204 1.516 3.4167-3.883 3.8949-7.965 7.5682-13.702 8.5244-5.889.9795-8.968-1.5276-10.507-7.4982-.607-2.3439.198-5.0493.396-7.5798.082-.8513.292-1.6442.525-2.9153zm-14.414-2.4255c.257.1982.525.3965.781.6064.619-.4782 1.715-.9096 1.773-1.446.21-2.1457.082-4.3263.082-6.4953-.339-.0234-.688-.0583-1.027-.0817-.536 2.4722-1.072 4.9444-1.609 7.4166z"/><path d="m151.665 37.9123c.886-7.3582 3.241-14.145 9.212-18.9145 4.945-3.9415 11.067-3.2651 14.81 2.0407.922 1.3061.933 2.4956-.268 3.615-1.306 1.2128-2.717.7463-3.65-.2682-1.679-1.8541-3.265-1.5626-5.143-.4898-3.941 2.2507-5.795 6.0406-6.95 10.052-.758 2.6588-.746 5.6091-.7 8.4194.059 3.545 4.304 5.4458 6.951 5.2009 4.758-.4431 9.002-2.2856 12.979-4.8161.478-.3031.875-.8745 1.12-1.411 2.717-5.9239 5.387-11.8711 8.093-17.8066.746-1.6443 1.539-3.2769 2.402-4.8628.735-1.3527 3.3-1.8774 5.038-.9912 2.635 1.3411 4.863 3.1719 5.947 6.0289.887 2.3439 1.855 4.6761 2.426 7.1017.455 1.959 1.388 3.1951 3.207 3.9414 1.551.6414 1.889 1.8309.723 2.997-.98.9795-.98 1.7025-.117 2.6587.607.6647 1.131 1.4111 1.703 2.1107 1.423 1.7142 1.551 3.2418.373 4.408-1.084 1.0728-3.615.9562-4.863-.4548-1.178-1.3294-2.216-2.822-3.079-4.373-.653-1.1894-1.446-1.5742-2.682-1.3294-3.113.6297-6.25 1.2011-9.341 1.9358-.501.1166-1.003.8396-1.236 1.3994-.804 1.9824-1.469 4.0231-2.25 6.0171-.898 2.2973-3.872 3.3002-5.82 1.8542-1.142-.8396-2.052-.793-3.253-.2099-4.828 2.3555-9.854 2.6121-15.044 1.3527-5.049-1.1895-11.043-7.6031-10.588-15.2063zm41.888-4.7111c.093.2566.198.5014.292.758 1.224-.2332 3.312-.1866 3.498-.7463.397-1.2478-.163-2.8104-.326-4.2447-.199-.0467-.385-.0816-.583-.1283-.957 1.4577-1.925 2.9037-2.881 4.3613z"/><path d="m250.718 129.466c-1.282-3.405-1.761-7.125-1.131-10.856.77-4.571 1.831-9.084 2.869-13.609.163-.7.851-1.283 1.084-1.609-.793-1.679-1.702-3.324-2.332-5.0728-.186-.5364.187-1.7026.642-1.9708 3.661-2.0757 7.136-4.5595 11.754-4.3496 3.616.1632 6.496 1.5276 8.677 4.2563 1.749 2.1923 1.003 4.6879.046 6.9389-.711 1.69-1.901 3.183-3.032 4.991.712.279 1.318.513 1.924.769 1.423.583 2.881 1.073 4.245 1.761 5.271 2.694 5.516 7.358 2.519 11.125-2.682 3.37-5.889 6.495-9.364 9.037-3.72 2.717-7.79 5.166-12.548 5.831-2.426.338-4.945 1.388-7.067-1.073-1.178-1.353-2.239-2.81-1.481-4.42.42-.874 2.064-1.166 3.195-1.749zm7.184-14.016c-1.563 4.151-2.624 8.571-.175 13.258 6.204-2.81 11.72-6.308 15.207-13.258-5.318 0-9.983 0-15.032 0zm7.871-15.8131c-3.206-.5014-5.166 1.0141-7.125 2.3791-.583.408-.839 1.271-1.259 1.924.711.35 1.434 1.003 2.146.979.886-.023 1.959-.361 2.588-.956 1.248-1.166 2.239-2.612 3.65-4.3261z"/><path d="m382.296 29.5283c1.038-3.1252 2.03-6.262 3.126-9.3756 1.318-3.7199 2.705-7.4165 4.081-11.11313.735-1.97075 2.286-1.62092 3.604-.96789 2.834 1.41101 3.965 4.15142 1.411 7.04342-1.283 1.446-1.703 3.7199-2.309 5.6906-1.563 5.026-3.021 10.0987-4.525 15.148-.175.5947-.455 1.1778-.548 1.7958-.28 1.7842-1.376 3.2185-2.962 3.4051-1.294.1516-2.985-.5364-4.035-1.3994-2.717-2.2389-3.802-5.5157-4.676-8.8158-.373-1.3994-.665-2.8104-1.131-4.7928-1.085 3.1602-1.925 5.7606-2.892 8.3144-.665 1.7376-1.423 3.4401-2.298 5.0843-1.376 2.5538-5.119 2.2856-6.915-.0699-2.729-3.5567-2.962-7.7547-3.569-11.8595-.443-3.0319-.606-6.1105-.746-9.1774-.07-1.4693-.781-3.3234 1.516-3.9998 1.318-.3965 3.942.5014 4.735 1.9941.548 1.0378.921 2.2739.991 3.44.151 2.5189.047 5.0494.047 7.5682.256.0233.513.0466.769.07 1.061-3.1836 2.134-6.3671 3.195-9.5623.397-1.1777.758-2.3788 1.143-3.5683.618-1.9124 2.193-1.2827 3.312-.9795 2.274.6063 3.86 2.1923 4.595 4.4546 1.236 3.8015 2.379 7.6381 3.557 11.4513.163.0699.35.1399.524.2215z"/><path d="m227.174 30.3684c-.665 1.0495-1.388 1.7259-1.528 2.5072-.665 3.7082-1.236 7.4282-1.703 11.1714-.28 2.2506-1.294 3.3818-3.895 3.9998-2.017.4781-2.95-.688-4.21-2.0407-2.6-2.787-1.236-5.1543-.198-7.9996 1.575-4.3263 2.636-8.8392 3.779-13.3171.816-3.2069 3.008-4.2797 6.122-3.3118 2.787.8629 4.431 2.7404 5.772 5.0726 1.516 2.6471 2.927 5.3409 4.443 7.988.7 1.2244 1.54 2.3672 2.309 3.5333.269-.0466.537-.0816.805-.1283.408-3.5566.676-7.1483 1.271-10.6816.712-4.2331 1.586-8.4428 2.624-12.6175.397-1.5976 1.376-3.0902 3.452-3.0202 1.877.0583 4.385 1.7608 4.816 3.4167.163.618.082 1.6909-.326 2.029-2.974 2.4722-3.021 6.0056-3.464 9.3174-.548 4.1397-.7 8.3261-1.131 12.4775-.198 1.9241-.641 3.8249-.968 5.7373-.525 3.0203-3.557 3.9648-6.309 1.9824-4.408-3.1718-7.463-7.3815-9.632-12.3142-.49-1.1312-1.155-2.1924-2.029-3.8016z"/><path d="m431.439 104.324c-4.199 1.738-8.467 3.417-12.63 5.318-.688.315-1.085 1.551-1.329 2.437-.28.991-.152 2.087-.35 3.102-.478 2.425-2.787 3.428-4.572 1.819-3.09-2.787-4.723-4.979-2.997-8.431 2.006-4.023 1.901-8.373 2.671-12.5943.525-2.8687.979-5.7606 1.434-8.641.28-1.7841 1.306-2.1223 2.869-1.6092 3.16 1.0378 4.676 4.1164 3.767 7.2999-.723 2.5188-1.201 5.1076-1.901 8.1866 1.959-.607 3.452-1.027 4.909-1.5397 2.169-.758 4.362-1.4693 6.438-2.4605.676-.3265 1.259-1.376 1.411-2.1807.408-2.1106.431-4.3029.863-6.4136.664-3.3002 3.953-4.4663 6.25-2.0757 1.54 1.5859 2.787 3.5916 3.697 5.609 1.236 2.7521.466 5.6557-1.959 7.4865-1.714 1.2947-1.784 2.8337-1.621 4.5947.326 3.452.805 6.892.968 10.343.046.945-.607 2.566-1.283 2.764-1.178.362-2.624-.152-3.114-1.702-1.131-3.604-2.239-7.219-3.521-11.312z"/><path d="m466.482 40.0711c6.122-.07 11.72-1.5976 16.349-5.819 1.936-1.7608 1.971-2.3089-.07-3.8948-3.288-2.5538-6.693-4.9793-9.982-7.5448-3.592-2.8104-5.493-6.5536-5.773-11.1132-.116-1.97071.712-3.35839 2.263-4.60615 4.501-3.60331 9.352-6.390348 15.277-6.378687 2.495 0 5.131-.174919 7.335 1.655897 1.364 1.1428 2.192 2.36723 1.516 4.11641-.7 1.78417-2.204 1.76085-3.837 1.51596-5.936-.88625-10.74 1.5043-14.962 5.36417-1.003.9096-1.073 2.1806.012 3.1252 2.239 1.9474 4.618 3.7433 6.834 5.7257 2.787 2.4838 5.539 5.0376 8.186 7.6731 2.822 2.8103 1.843 7.2066-1.096 9.8537-5.131 4.6178-11.347 6.6819-18.087 7.2999-2.939.2682-5.738-.2449-7.312-3.2535-1.47-2.787-.863-3.7665 2.285-3.7199z"/><path d="m468.114 105.244c.339 3.371-.268 6.904-3.603 9.434-3.79 2.857-7.988 3.919-12.746 3.277-3.079-.42-4.98-2.519-7.114-4.256-5.632-4.595-5.912-10.95-1.131-16.6524 4.128-4.921 9.329-6.3904 15.475-5.4924 4.7.688 9.341 5.5274 9.131 10.6698-.035.84-.012 1.679-.012 3.02zm-11.638-6.9147c-3.452.1749-6.938 2.2387-9.352 6.1337-.245.385-.537 1.12-.374 1.33 1.306 1.562 2.461 3.673 4.175 4.396 4.257 1.796 10.787-1.656 11.324-6.309.548-4.6877.058-5.469-5.773-5.5507z"/><path d="m17.7774 47.7325c-5.2361.5364-8.93281-1.4693-11.12519-5.5041-2.20405-4.0581-3.80169-8.4427-5.60925-12.7107-.466461-1.1078-.9679107-2.2856-1.03788043-3.4517-.05830817-.9796.39649543-2.8104.79299043-2.857 1.28278-.1516 3.20695-.1167 3.86.6763 1.35275 1.6559 2.18072 3.7899 2.96205 5.8423.99124 2.6238 1.56266 5.4108 2.61218 7.9996 1.0846 2.6821 3.137 3.0902 5.3527 1.1544 3.2653-2.8453 5.7375-6.2387 6.9503-10.5067.7697-2.6938 1.7726-5.3292 2.7405-7.9646.1983-.5481.9096-1.4344 1.1312-1.3644 1.7842.5481 3.7667.9679 5.1428 2.0874.793.6413 1.1195 2.752.6997 3.8248-3.3003 8.4311-5.3877 17.1654-7.1136 26.0162-1.0612 5.4458-2.1458 10.88-3.1487 16.3374-.2099 1.1661-.2682 2.4256-.1049 3.5917.2332 1.6559.4548 3.2301 3.067 2.822 2.204-.3498 4.0699 1.5276 3.9999 3.2418-.0699 1.5859-3.2419 3.9065-5.2943 3.8832-4.2799-.0583-8.0466-3.51-9.0378-7.953-1.2245-5.4924.2682-10.705 1.2944-15.9758.5948-2.9387 1.2128-5.9123 1.8659-9.1891z"/><path d="m72.9136 42.0181c.0466-4.7345.0583-9.4689.1516-14.2034.035-1.7258.8746-2.3905 2.6588-1.8774 3.2186.9095 4.9446 3.615 4.6064 7.4398-.3965 4.5129-.758 9.0142.7696 13.4221 1.2945 3.7433 2.1808 3.8832 5.0612 1.1778 4.9795-4.6995 6.4139-10.775 6.927-17.212.1749-2.2273-.0583-4.4779-.0117-6.7168.0233-1.516.4315-2.4256 2.379-1.8192 4.5595 1.411 5.1195 2.4489 4.9565 7.23-.222 6.262-1.0732 12.3142-3.7087 18.0515-1.5977 3.4751-3.6268 6.6936-6.7754 8.8276-4.9679 3.3701-7.8949 1.9591-11.3701-2.0757-2.8804-3.3468-4.9212-7.5681-5.6442-12.2443z"/><path d="m39.7363 43.6966c.3149-1.6443.4782-3.1719.9213-4.6062 1.3994-4.5362 4.6413-7.0434 9.236-7.7897 5.1661-.828 9.4809.9562 12.5712 5.026 5.586 7.3699 3.5918 16.0342-4.6646 20.8852-8.1048 4.7578-18.7869-2.5421-20.2446-10.4718-.3382-1.8074.3265-2.9502 2.1807-3.0435zm11.0203 6.9384c3.1369-.7347 5.8424-2.7054 7.1719-5.819.653-1.5276.4198-3.9181-.3615-5.4224-.933-1.7842-3.1953-1.516-5.0379-.9912-4.4081 1.271-6.1573 3.7549-6.2156 8.7459-.035 3.0669 1.1078 4.0348 4.4431 3.4867z"/></g></svg>