<svg viewBox="0 0 449.7 330.61" xmlns="http://www.w3.org/2000/svg"><path d="m124.71 83.47c-5.92-1.73-11.94-3.43-17.85-5.13q32.81-38.64 65.56-77.34v-.31h-151.79v33.58q39.87.1 79.86.33c-.26.24-.55.49-.79.73q-29 37.23-58 74.39c17.24-.12 38.72-2.15 54 1.11 29.57 6.29 54.14 30.8 44.07 67.78-7.13 26.41-39.05 48.27-75.47 33.9-16.61-6.58-21.25-17.93-30.13-31.65-11.37 4.14-22.82 8.48-34.17 12.73 12.34 38.07 62 68 118.79 51.76a98.92 98.92 0 0 0 31-15.68c32.41-23.75 40-83.7 13.1-118.51-9.17-11.85-22.62-21.72-38.16-27.69m324.65-83.47c-4.27 3.88-8.48 7.7-12.8 11.65-7.89 7-15.85 14.11-23.81 21.12v212.58h36.93q-.13-122.65-.32-245.35m-99 57.61c-1.28 1.14-2.66 2.35-4 3.63-19.38 16.41-38.91 32.76-58.32 49.2-1.49-1.33-43.07-36.57-62.42-52.83v43.39c12.75 10.41 25.45 20.92 38.19 31.38-12.74 10.63-25.44 21.36-38.19 32.07v43.75q31.17-26.82 62.42-53.61c.68.61 62.61 53.61 62.77 53.61v-43.78l-38.54-32.42s25.71-20.9 38.54-31.4q-.24-21.48-.42-43" fill="#020202" fill-rule="evenodd"/><g fill="#231f20"><path d="m187.52 329.93v-27.3h.6l18.16 20.93v-20.93h2.72v27.3h-.61l-18-20.67v20.67z"/><path d="m225.64 325.85a2.2 2.2 0 0 1 1.62.67 2.31 2.31 0 0 1 -1.62 3.93 2.3 2.3 0 0 1 0-4.6z"/><path d="m239.18 302.63h3.14l7 11.26 6.88-11.26h3.15l-8.64 14.25v13.05h-2.71v-13.05z"/><path d="m273.85 325.85a2.27 2.27 0 0 1 2.28 2.3 2.29 2.29 0 0 1 -2.28 2.3 2.18 2.18 0 0 1 -1.61-.68 2.31 2.31 0 0 1 0-3.25 2.17 2.17 0 0 1 1.61-.67z"/><path d="m314.2 307.7-2.15 1.65a11.71 11.71 0 0 0 -4.28-3.51 12.47 12.47 0 0 0 -5.48-1.2 12.08 12.08 0 0 0 -6.05 1.57 11.25 11.25 0 0 0 -4.31 4.21 11.63 11.63 0 0 0 -1.53 5.94 11.19 11.19 0 0 0 3.42 8.34 11.89 11.89 0 0 0 8.64 3.34 12.15 12.15 0 0 0 9.59-4.49l2.15 1.63a13.84 13.84 0 0 1 -5.09 4 16.09 16.09 0 0 1 -6.82 1.41q-7.16 0-11.3-4.76a14.43 14.43 0 0 1 -3.47-9.73 13.53 13.53 0 0 1 4.2-10.08 14.51 14.51 0 0 1 10.53-4.02 15.47 15.47 0 0 1 6.91 1.51 13.4 13.4 0 0 1 5.04 4.19z"/><path d="m329 325.85a2.17 2.17 0 0 1 1.61.67 2.29 2.29 0 1 1 -3.23 3.25 2.31 2.31 0 0 1 0-3.25 2.2 2.2 0 0 1 1.62-.67z"/></g></svg>