<svg fill="none" height="40" viewBox="0 0 230 40" width="230" xmlns="http://www.w3.org/2000/svg" xmlns:xlink="http://www.w3.org/1999/xlink"><mask id="a" height="38" maskUnits="userSpaceOnUse" width="22" x="208" y="2"><path clip-rule="evenodd" d="m208.684 2.87842h21.244v37.12158h-21.244z" fill="#fff" fill-rule="evenodd"/></mask><g clip-rule="evenodd" fill="#020303" fill-rule="evenodd"><path d="m26.4207 15.627h-2.7601v11.4659c0 1.5711.0673 2.2062 2.4571 2.2062 3.3658 0 3.938-1.1364 3.938-6.7859 0-4.5127-1.1782-6.8862-3.635-6.8862zm.1009-12.20122h-2.861v11.66642h2.8945c2.2554 0 2.5581-1.8052 2.5581-6.08396 0-4.24532-1.0433-5.58246-2.5916-5.58246zm2.928 26.34152h-17.7707v-.4682h2.0867c1.2118 0 2.154-1.0028 2.154-2.2396v-20.99298c0-1.83864-.4374-2.74112-4.2407-2.74112-5.72165 0-9.69318 3.10893-9.69318 7.8222 0 4.1452 2.52414 6.0839 5.1495 6.0839 1.54829 0 2.45705-.5347 2.45705-.936 0-.2338-.30302-.1671-.60604-.1671-2.38975 0-3.56772-1.6379-3.56772-3.2759 0-1.6714 1.24538-3.34292 3.83714-3.34292 1.85105 0 3.70215 1.27032 3.70215 3.47662 0 2.2396-2.1203 4.68-5.58697 4.68-4.64467 0-7.37083-3.3429-7.37083-6.8863 0-3.94459 2.96177-7.98937 9.82757-7.98937 2.65913 0 3.76973.20054 5.65463.20054h11.9816c5.1833 0 9.6262 2.1394 9.6262 6.15091 0 3.17562-3.0293 5.38192-6.7316 6.08382l.0338.234c4.4764.6019 8.7171 3.1757 8.7171 7.254 0 4.045-3.5341 7.0535-9.6597 7.0535z"/><path d="m91.2551 22.2994c0 3.7339-2.0893 7.4678-7.3468 7.4678-5.8635 0-10.3456-3.7988-10.3456-9.3509 0-5.0651 4.5832-9.2537 10.8176-9.2537 4.0776 0 6.6388 2.5975 6.6388 5.26 0 2.4351-1.8198 3.8313-3.9092 3.8313-2.3587 0-4.0776-1.6235-4.0776-3.5392 0-1.8831 1.5164-3.474 3.6733-3.474.9437 0 1.4828.3246 1.5838.3246s.101-.1298.101-.2597c0-.3571-1.2805-1.7859-3.7067-1.7859-2.0559 0-3.7072 1.7534-3.7072 9.4809 0 6.5911 1.2469 8.2795 3.7072 8.2795 3.5722 0 6.2009-3.052 6.2009-7.0132z"/><path d="m93.5462 4.71499c0-.91162-.4718-1.48566-1.415-1.48566h-.8761v-.4388h9.0959v16.74657c3.066-4.4905 4.144-6.0437 4.144-6.0437 1.247-1.8232 2.763-2.7685 4.514-2.7685 2.156 0 3.538 1.418 3.538 3.3087 0 1.857-1.55 3.3427-3.437 3.3427-1.718 0-3.402-1.0467-3.402-2.9375 0-.4389-.101-.5402-.236-.5402-.573 0-1.684 1.2154-1.684 1.7894l7.95 12.2898c.64.9455 1.348 1.3169 2.123 1.3169h.673v.4726h-9.601l-4.582-7.3604v5.3346c0 .9116.405 1.5868 1.213 1.5868h.539v.439h-10.8479v-.439h.6403c.9767 0 1.6508-.6752 1.6508-1.5868z"/><path d="m139.839 30.6976c-8.836 0-15.062-6.1118-15.062-14.1147 0-8.00282 7.431-14.72255 14.158-14.72255 3.748 0 5.02 2.195 7.731 2.195 2.076 0 2.578-1.89099 2.578-1.89099h.133v13.13544h-.401v-.7429c0-1.8234-3.213-12.25738-9.606-12.25738-3.849 0-5.623 5.94294-5.623 14.75608 0 8.7795 3.013 12.9666 7.23 12.9666 5.388 0 9.204-3.6806 9.204-8.0028 0-1.6883-.67-2.4988-.937-2.4988-.101 0-.135.0677-.135.1351 0 .1351.101.3714.101.5741 0 2.2286-1.874 3.3092-3.782 3.3092-1.941 0-3.882-1.2495-3.882-3.7145 0-2.0935 1.907-3.9508 4.384-3.9508 3.079 0 4.92 2.769 4.92 5.8756 0 4.2546-3.18 8.9483-11.011 8.9483z"/><path d="m162.99 11.6685c-2.056 0-2.433 1.687-2.433 9.3795 0 8.0636.583 9.1433 2.433 9.1433 1.918 0 2.432-1.552 2.432-9.042 0-6.4779.103-9.4808-2.432-9.4808zm-.034 19.029c-5.653 0-10.243-4.3861-10.243-9.7843 0-5.3645 4.59-9.7506 10.243-9.7506 5.652 0 10.242 4.3861 10.242 9.7506 0 5.3982-4.59 9.7843-10.242 9.7843z"/><path d="m199.17 9.66427c-1.914 0-3.525-1.51534-3.525-3.26642 0-1.95298 1.544-3.43471 3.357-3.43471 1.208 0 1.745.33669 1.879.33669.135 0 .235 0 .235-.20201 0-.94272-1.678-2.357009-4.094-2.357009-6.412 0-13.326 11.314389-13.326 19.059289v7.9132c0 .9092.403 1.6163 1.208 1.6163h.974v.4378h-11.748v-.4378h1.007c.973 0 1.611-.6734 1.611-1.6163v-14.2439c0-.9092-.47-1.4816-1.376-1.4816h-.906v-.4042h9.23v3.199c1.275-5.89286 4.263-14.7826 12.251-14.7826 4.431 0 7.049 2.76113 7.049 5.58981 0 2.22243-1.947 4.07446-3.826 4.07446z"/><path d="m197.875 18.2454c-.069 0-.552.5875-1.278 1.1099-.622.4568-2.245 1.0444-2.245 5.4182 0 3.7207.138 4.0473 1.002 4.0473 1.07 0 2.625-2.6112 2.625-4.7981v-5.5815-.0326c0-.0978 0-.1632-.104-.1632zm9.777 6.3322c0 3.1988-.691 5.1896-4.353 5.1896-4.456 0-5.147-3.5576-5.251-3.5576-.138 0-.345.8813-.967 1.7299-.622.8813-1.417 1.7299-3.904 1.7299-3.627 0-6.011-1.893-6.011-4.6674 0-4.3086 4.699-4.5044 6.598-4.9613 1.9-.4569 4.353-.9467 4.353-5.0266 0-2.9375-1.002-3.4925-2.591-3.4925s-3.316.8487-3.316 1.3383c0 .1631.069.1958.138.1958.103 0 .242-.0327.38-.0327 1.727 0 3.006 1.3711 3.006 2.9376 0 1.8606-1.624 3.4273-3.524 3.4273-1.866 0-3.628-1.3383-3.628-3.4925 0-2.4153 2.591-4.7328 8.223-4.7328 4.767 0 8.049 1.7626 8.049 5.2551v11.1954c0 .8487.311 1.1751.725 1.1751.726 0 1.624-1.5016 1.624-3.7538v-.4568z"/></g><g mask="url(#a)"><path clip-rule="evenodd" d="m222.77 40c-7.752 0-11.843-4.2511-11.843-11.5481v-23.66556c0-.90378-.462-1.47279-1.386-1.47279h-.857v-.43513h9.071v27.01258c0 6.9959 2.376 9.6069 6.038 9.6069 1.583 0 3.101-.9373 3.101-1.5732 0-.2008-.165-.1675-.462-.1675-1.847 0-3.365-1.3388-3.365-3.1464 0-2.0418 1.649-3.4478 3.464-3.4478 1.913 0 3.397 1.6403 3.397 3.4478 0 2.7113-2.737 5.3892-7.158 5.3892z" fill="#020303" fill-rule="evenodd"/></g><path clip-rule="evenodd" d="m51.2146 29.7673h-12.1052v-.439h1.0316c.9973 0 1.6507-.6752 1.6507-1.5869v-23.02641c0-.91162-.4814-1.48566-1.4099-1.48566h-.9286v-.4388h9.5261v24.95087c0 .9117.4127 1.5869 1.2379 1.5869h.9974z" fill="#020303" fill-rule="evenodd"/><path clip-rule="evenodd" d="m62.8548 18.2454c-.0689 0-.5527.5875-1.2781 1.1098-.6218.4568-2.2455 1.0445-2.2455 5.4182 0 3.7209.1383 4.0473 1.0019 4.0473 1.0708 0 2.6255-2.6111 2.6255-4.798v-5.5815-.0326c0-.0979 0-.1632-.1038-.1632zm9.7768 6.3322c0 3.1988-.6909 5.1896-4.3528 5.1896-4.4565 0-5.1474-3.5576-5.251-3.5576-.1383 0-.3455.8813-.9672 1.7299-.622.8813-1.4166 1.7299-3.9039 1.7299-3.6272 0-6.0109-1.893-6.0109-4.6674 0-4.3086 4.6982-4.5044 6.5983-4.9613 1.8999-.4569 4.3528-.9467 4.3528-5.0266 0-2.9375-1.0019-3.4925-2.5911-3.4925-1.5891 0-3.3164.8487-3.3164 1.3383 0 .1631.0692.1958.1381.1958.1038 0 .242-.0327.38-.0327 1.7274 0 3.0057 1.3711 3.0057 2.9377 0 1.8605-1.6237 3.4272-3.5238 3.4272-1.8656 0-3.6273-1.3383-3.6273-3.4925 0-2.4153 2.5909-4.7328 8.2219-4.7328 4.7674 0 8.0495 1.7626 8.0495 5.2551v11.1954c0 .8487.3108 1.1751.7254 1.1751.7255 0 1.6236-1.5016 1.6236-3.7538v-.4568z" fill="#020303" fill-rule="evenodd"/></svg>