<svg viewBox="0 0 659.25 58.32" xmlns="http://www.w3.org/2000/svg"><g fill="#222221"><path d="m622.04.1h8.87v58.08h-8.87z"/><path d="m253.3.16h8.87v58.08h-8.87z"/><path d="m457.02.09h8.85v58.07h-8.85z"/><path d="m433.47 31a88.32 88.32 0 0 0 -8-4.78c-4.23-2.45-8.56-4.72-12.66-7.35-3.69-2.37-4.55-6.13-3.78-10.22s3.55-6.24 7.33-7.36l1.74-.53-.1-.53a5.94 5.94 0 0 0 -1.26-.09 18.64 18.64 0 0 0 -8.92 3.69c-7.83 6-7.9 16.63 0 22.58a79.8 79.8 0 0 0 8 4.89c4.22 2.45 8.56 4.69 12.68 7.29 3.9 2.47 4.93 6.44 4.15 10.72s-3.65 6.69-7.74 7.82a13.47 13.47 0 0 0 -1.43.59l.22.52a17.06 17.06 0 0 0 10.3-4.08c7.73-6.39 7.56-17.24-.53-23.16z"/><path d="m109.37 1.2a1.94 1.94 0 0 0 -1.37-1.11c-2.77-.11-5.54 0-8.44 0 .15.58.2 1 .34 1.35q10.55 27.73 21.1 55.5a2.4 2.4 0 0 0 1.64 1.27c.45 0 1.26-.62 1.49-1.16 1.09-2.55 2.08-5.16 3-7.78a3 3 0 0 0 0-1.91q-8.82-23.1-17.76-46.16z"/><path d="m524.77 1.55a2.55 2.55 0 0 0 -1.77-1.41c-.46-.06-1.24.76-1.53 1.36-.67 1.5-1.04 3.09-1.81 4.5-1.43 2.66-1.16 5.09 0 7.88 5.63 14.17 11 28.44 16.53 42.67.33.86.43 1.81 1.8 1.75 2.64-.1 5.29 0 8.37 0-1.72-4.54-3.31-8.77-4.91-13q-8.34-21.89-16.68-43.75z"/><path d="m71.61.14h8.88v58.04h-8.88z"/><path d="m165.44.16h8.82v58.06h-8.82z"/><path d="m291.47.21h8.77v58h-8.77z"/><path d="m322.29.1h8.83v58.06h-8.83z"/><path d="m27.38 57.49a6.87 6.87 0 0 0 -1-.29 17.65 17.65 0 0 1 -12.93-10 40.5 40.5 0 0 1 0-36.16 17.71 17.71 0 0 1 12.92-10 9.83 9.83 0 0 0 1.34-.45l-.12-.59c-1.22.13-2.46.21-3.68.41-11.2 1.86-19.26 7.69-22.52 18.83a39.41 39.41 0 0 0 -1.39 12.06c.46 14.55 10.08 24.84 24.51 26.7 1 .12 2.06.18 3.59.32-.55-.64-.61-.79-.72-.83z"/><path d="m584 1.07a5.4 5.4 0 0 0 1.21-.57l-.21-.5c-1.25.15-2.52.24-3.77.45-11 1.84-18.89 7.61-22.41 18.48a33.92 33.92 0 0 0 -.4 19.1c3.69 14.3 16.12 20 26.75 20.11-.12-.33-.12-.51-.21-.55a3.91 3.91 0 0 0 -.94-.34c-7-1.44-11.65-5.76-14.2-12.2a41.84 41.84 0 0 1 0-31.78c2.55-6.43 7.18-10.75 14.18-12.2z"/><path d="m486.81 2.58c-3.61-1.37-7.61-1.74-11.45-2.51a6.39 6.39 0 0 0 -1.73.15c.21.37.26.56.33.57.87.13 1.74.24 2.62.35 5 .62 7.63 2.9 8.55 7.84a48.36 48.36 0 0 1 .59 7.9c.09 5.09 0 10.17 0 15.36a9 9 0 0 0 9.32-8.86c.09-2.78.08-5.57 0-8.35-.13-5.85-2.78-10.35-8.23-12.45z"/><path d="m53.12 30h-9.12v2.35c0 4.6.09 9.22-.13 13.82-.33 7-3.06 9.82-9.93 10.91-.65.11-1.29.33-1.92.5l.18.67a34.4 34.4 0 0 0 12.8-2.53c5.42-2.44 8.24-6.64 8.32-12.61 0-3.93 0-7.86 0-11.79a9.25 9.25 0 0 0 -.2-1.32z"/><path d="m499.39 58.19h10.61c-1.51-4.21-2.95-8.25-4.57-12.78-2.14 4.48-4.05 8.53-6.04 12.78z"/><path d="m140.35 12.9c2.1-4.48 4-8.54 6-12.74h-10.57c1.51 4.22 2.95 8.26 4.57 12.74z"/><path d="m283.36 5.33h-12.26l6.16 14.87c2.45-5.22 6.16-14.87 6.16-14.87z"/><path d="m434 .13h-9l9 9z"/><path d="m359.48 9.21v-9.06h-9.14z"/><path d="m359.48 58.19v-8.77l-8.88 8.77z"/><path d="m202.66 8.85v-8.72h-8.88z"/><path d="m45.3.1h-8.73l8.73 8.7z"/><path d="m202.61 58.16v-9.16l-9.23 9.12z"/><path d="m602.78.22h-9.29l9.29 9.26z"/><path d="m602.81 58.17v-8.75l-8.93 8.75z"/><path d="m659.16 58.23v-8.83c-2.85 2.85-5.93 5.93-8.85 8.83z"/><path d="m406 58.23h9.26l-9.26-9.16z"/><path d="m650.23.21 9 9v-9z"/><path d="m647.31 33.93v-9.53l-9.06 4.76z"/><path d="m347.52 33.93v-9.58c-3.12 1.66-5.95 3.17-9.06 4.81z"/><path d="m190.56 33.85v-9.43l-8.95 4.75z"/></g></svg>