<svg fill="none" height="35" viewBox="0 0 278 35" width="278" xmlns="http://www.w3.org/2000/svg"><g fill="#000"><path d="m11.1157 22.3033c.5494-.2865 1.004-.6688 1.3624-1.1474.3587-.4778.6276-1.0219.8068-1.6313.1793-.6097.2689-1.2488.2689-1.9187 0-.7646-.0717-1.4879-.215-2.169-.1434-.6814-.3829-1.2849-.7173-1.8108-.3352-.5257-.7771-.9441-1.3266-1.255-.5503-.3103-1.2432-.4663-2.07994-.4663-.71697 0-1.33251.1434-1.84642.4305-.51445.287-.94489.6755-1.29079 1.1653-.34697.4903-.59791 1.0521-.75306 1.6851-.15596.6337-.23328 1.2972-.23328 1.9903 0 .6694.06554 1.3331.19743 1.9901.13108.6575.35847 1.2493.6811 1.775.32289.5259.74718.9563 1.27314 1.2907.52541.335 1.18294.5019 1.97188.5019.71717 0 1.35034-.1433 1.90074-.4304zm6.9742 6.1676c-.2036.9559-.6399 1.8467-1.3087 2.6712-.6696.8248-1.6381 1.5241-2.9048 2.0979-1.2672.5738-2.9643.8606-5.09139.8606-.909 0-1.83491-.114-2.77896-.3408-.9446-.2274-1.80521-.5797-2.58181-1.0578-.77715-.4783-1.42266-1.0936-1.9363-1.8467-.51417-.7528-.806838-1.6557-.878266-2.707h5.055566c.23889.9556.70517 1.6193 1.39861 1.9901.69286.3702 1.49325.5556 2.40231.5556 1.43414 0 2.47994-.4302 3.13774-1.2908.657-.8606.9737-1.9488.9499-3.2629v-2.4384h-.0717c-.5503.9805-1.3328 1.7033-2.3488 2.1696-1.0161.466-2.08558.6993-3.20914.6993-1.38628 0-2.58155-.2454-3.58581-.7355-1.00373-.4895-1.82823-1.1591-2.47374-2.0077-.64579-.8486-1.117969-1.8405-1.416517-2.9761-.299352-1.1354-.448093-2.3365-.448093-3.604 0-1.195.172817-2.3483.520056-3.4598.346166-1.1121.854454-2.0917 1.523784-2.9403.6688-.84864 1.49971-1.5241 2.49194-2.02623.99195-.50186 2.13345-.75279 3.4242-.75279 1.21909 0 2.28892.22737 3.20922.68108.9202.45454 1.6909 1.21937 2.3129 2.29504h.0717v-2.47426h4.8408v17.35476c0 .7412-.102 1.5895-.3047 2.5459"/><path d="m27.2153 20.0262c.1428.7057.3882 1.3392.7348 1.9004.3462.5621.8066 1.0102 1.3804 1.3449.5738.3349 1.2908.5021 2.1514.5021s1.5834-.1672 2.1693-.5021c.5856-.3347 1.0519-.7828 1.3986-1.3449.3462-.5612.5915-1.1947.7348-1.9004.1435-.7047.2154-1.4277.2154-2.1693 0-.7405-.0719-1.47-.2154-2.1872-.1433-.7173-.3886-1.3505-.7348-1.9005-.3467-.5497-.813-.9978-1.3986-1.3446-.5859-.3464-1.3087-.52-2.1693-.52s-1.5776.1736-2.1514.52c-.5738.3468-1.0342.7949-1.3804 1.3446-.3466.55-.592 1.1832-.7348 1.9005-.1437.7172-.2157 1.4467-.2157 2.1872 0 .7416.072 1.4646.2157 2.1693zm-4.6259-6.2032c.4539-1.2068 1.0991-2.2352 1.9362-3.0837.8366-.84831 1.8405-1.50611 3.0123-1.97187 1.1706-.46632 2.4857-.6993 3.944-.6993 1.4577 0 2.779.23298 3.9625.6993 1.1829.46576 2.1926 1.12356 3.0296 1.97187.8366.8485 1.4821 1.8769 1.9363 3.0837.454 1.2073.6814 2.5518.6814 4.0339 0 1.4826-.2274 2.821-.6814 4.0162-.4542 1.1953-1.0997 2.2175-1.9363 3.0658-.837.8486-1.8467 1.5005-3.0296 1.9542-1.1835.4537-2.5048.6811-3.9625.6811-1.4583 0-2.7734-.2274-3.944-.6811-1.1718-.4537-2.1757-1.1056-3.0123-1.9542-.8371-.8483-1.4823-1.8705-1.9362-3.0658-.4543-1.1952-.6812-2.5336-.6812-4.0162 0-1.4821.2269-2.8266.6812-4.0339"/><path d="m49.1239 20.0262c.1431.7057.3882 1.3392.7349 1.9004.3461.5621.8066 1.0102 1.3804 1.3449.5738.3349 1.2907.5021 2.1517.5021.8603 0 1.5831-.1672 2.1689-.5021.5856-.3347 1.052-.7828 1.3986-1.3449.3459-.5612.5915-1.1947.7349-1.9004.1434-.7047.2154-1.4277.2154-2.1693 0-.7405-.072-1.47-.2154-2.1872-.1434-.7173-.389-1.3505-.7349-1.9005-.3466-.5497-.813-.9978-1.3986-1.3446-.5858-.3464-1.3086-.52-2.1689-.52-.861 0-1.5779.1736-2.1517.52-.5738.3468-1.0343.7949-1.3804 1.3446-.3467.55-.5918 1.1832-.7349 1.9005-.1437.7172-.2156 1.4467-.2156 2.1872 0 .7416.0719 1.4646.2156 2.1693zm-4.6259-6.2032c.454-1.2068 1.0992-2.2352 1.9362-3.0837.8366-.84831 1.8406-1.50611 3.0123-1.97187 1.1707-.46632 2.4858-.6993 3.9444-.6993 1.4574 0 2.7786.23298 3.9621.6993 1.183.46576 2.1926 1.12356 3.0297 1.97187.8365.8485 1.482 1.8769 1.9366 3.0837.4537 1.2073.6811 2.5518.6811 4.0339 0 1.4826-.2274 2.821-.6811 4.0162-.4546 1.1953-1.1001 2.2175-1.9366 3.0658-.8371.8486-1.8467 1.5005-3.0297 1.9542-1.1835.4537-2.5047.6811-3.9621.6811-1.4586 0-2.7737-.2274-3.9444-.6811-1.1717-.4537-2.1757-1.1056-3.0123-1.9542-.837-.8483-1.4822-1.8705-1.9362-3.0658-.4546-1.1952-.6811-2.5336-.6811-4.0162 0-1.4821.2265-2.8266.6811-4.0339z"/><path d="m79.2428 15.58c-.1431-.7049-.3883-1.3266-.7348-1.8646-.3466-.5377-.7952-.9737-1.3444-1.309-.5506-.334-1.2437-.5018-2.0799-.5018-.8369 0-1.5416.1678-2.1155.5018-.5739.3353-1.0341.7772-1.3806 1.3269-.3472.5504-.5979 1.1777-.7527 1.8826-.1561.7055-.2335 1.4406-.2335 2.2054 0 .717.0835 1.4341.2513 2.1511.1671.7173.4356 1.3569.8068 1.9184.3705.5621.8362 1.0163 1.3984 1.3627.5616.3468 1.2369.5201 2.0258.5201.8362 0 1.5354-.1672 2.0977-.5021.5616-.3347 1.0095-.7828 1.3444-1.3449.3349-.5612.5739-1.2011.717-1.9181.1438-.7172.215-1.458.215-2.2231 0-.7648-.0712-1.5002-.215-2.2054zm.215 9.1615c-.5971 1.004-1.3799 1.727-2.3483 2.1693-.9677.4422-2.0621.6634-3.2811.6634-1.3861 0-2.6052-.2688-3.6571-.8068-1.0519-.5377-1.9184-1.2667-2.5995-2.1875-.6814-.9197-1.1956-1.9775-1.542-3.1731-.3467-1.195-.52-2.4384-.52-3.7292 0-1.2426.1733-2.4437.52-3.6037.3464-1.1592.8606-2.1811 1.542-3.0658.6811-.8841 1.5353-1.59541 2.5639-2.13342 1.0273-.53768 2.223-.80655 3.5852-.80655 1.0992 0 2.1456.23298 3.1379.6993.9917.46576 1.7745 1.15328 2.3484 2.06147h.0719v-9.32277h5.0918v25.60177h-4.8411v-2.3664z"/><path d="m103.268 1.50662v9.64538h.107c.645-1.0757 1.47-1.85819 2.474-2.34854 1.004-.4898 1.984-.73484 2.941-.73484 1.362 0 2.479.18539 3.352.55562.872.37105 1.559.88468 2.062 1.54176.502.6578.854 1.4588 1.057 2.4025.203.9449.305 1.9901.305 3.1375v11.4024h-5.091v-10.4701c0-1.5297-.24-2.6712-.718-3.4242-.478-.7531-1.326-1.1297-2.545-1.1297-1.387 0-2.391.4122-3.012 1.2372-.622.8248-.932 2.1816-.932 4.0698v9.717h-5.0922v-25.60178z"/><path d="m117.215 1.50662h6.311l5.988 10.11168 5.953-10.11168h6.274l-9.502 15.77688v9.8249h-5.629v-9.9682z"/><path d="m148.787 17.552c.251 1.0164.651 1.9308 1.202 2.7432.549.813 1.266 1.4644 2.151 1.9542.884.4904 1.96.7351 3.227.7351s2.343-.2447 3.227-.7351c.884-.4898 1.602-1.1412 2.151-1.9542.55-.8124.95-1.7268 1.202-2.7432.25-1.0157.376-2.0617.376-3.1374 0-1.1233-.126-2.2108-.376-3.2632-.252-1.0516-.652-1.98976-1.202-2.81452-.549-.82449-1.267-1.48208-2.151-1.97215-.884-.48987-1.96-.73519-3.227-.73519s-2.343.24532-3.227.73519c-.885.49007-1.602 1.14766-2.151 1.97215-.551.82476-.951 1.76292-1.202 2.81452-.251 1.0524-.376 2.1399-.376 3.2632 0 1.0757.125 2.1217.376 3.1374zm-5.146-8.46206c.574-1.63726 1.399-3.06579 2.475-4.28516 1.076-1.21902 2.396-2.17487 3.962-2.86855 1.565-.69293 3.329-1.039868 5.289-1.039868 1.984 0 3.753.346938 5.307 1.039868 1.553.69368 2.868 1.64953 3.944 2.86855 1.075 1.21937 1.9 2.6479 2.474 4.28516.574 1.63746.861 3.41246.861 5.32466 0 1.8646-.287 3.6038-.861 5.2171-.574 1.6137-1.399 3.0182-2.474 4.2132-1.076 1.1958-2.391 2.1334-3.944 2.8148-1.554.6814-3.323 1.0219-5.307 1.0219-1.96 0-3.724-.3405-5.289-1.0219-1.566-.6814-2.886-1.619-3.962-2.8148-1.076-1.195-1.901-2.5995-2.475-4.2132-.573-1.6133-.86-3.3525-.86-5.2171 0-1.9122.287-3.6872.86-5.32466"/><path d="m190.614 25.1536c-1.936 1.6857-4.614 2.528-8.032 2.528-3.466 0-6.149-.8365-8.049-2.5098-1.901-1.6731-2.851-4.2549-2.851-7.7455v-15.92029h5.629v15.92029c0 .6937.06 1.375.18 2.0441.119.6693.37 1.2614.753 1.775.382.5142.914.932 1.596 1.2549.68.3227 1.595.4842 2.742.4842 2.008 0 3.394-.4483 4.159-1.3445.765-.8967 1.148-2.3006 1.148-4.2137v-15.92029h5.63v15.92029c0 3.4665-.969 6.0422-2.905 7.7273z"/><path d="m202.77 8.57048v2.51012h.072c.669-.9561 1.475-1.69714 2.42-2.2231.944-.52562 2.026-.78888 3.245-.78888 1.171 0 2.241.22737 3.209.68108.968.45454 1.703 1.2549 2.205 2.4023.55-.8122 1.297-1.52939 2.242-2.1511.943-.6217 2.061-.93228 3.352-.93228.98 0 1.888.11985 2.725.35845.837.23915 1.554.62198 2.152 1.14739.597.52594 1.063 1.21344 1.398 2.06184.334.8488.502 1.8707.502 3.0657v12.4064h-5.092v-10.506c0-.6211-.024-1.2067-.072-1.7567-.047-.5498-.179-1.0279-.394-1.4344-.215-.4062-.532-.7291-.95-.9685-.418-.2384-.986-.3584-1.703-.3584s-1.297.1377-1.74.4122c-.442.2753-.788.6337-1.039 1.0759-.251.4428-.419.9446-.502 1.5061-.084.5618-.126 1.1292-.126 1.7031v10.3267h-5.091v-10.3984c0-.5498-.013-1.0936-.036-1.6314-.025-.5379-.126-1.0337-.305-1.4881-.179-.4537-.478-.8186-.896-1.0939-.419-.2745-1.035-.4122-1.847-.4122-.239 0-.556.054-.95.1615-.395.1073-.777.3111-1.148.6097-.37.2988-.688.7293-.95 1.2908-.264.5617-.394 1.2966-.394 2.2048v10.7572h-5.092v-18.53792z"/><path d="m241.853 18.0361c-.215.1915-.484.3408-.806.4481-.324.1078-.67.1974-1.04.2691-.371.0717-.759.1316-1.166.1792-.406.0485-.813.1079-1.219.1796-.382.0714-.759.1675-1.13.2868-.37.1195-.693.2811-.967.4839-.276.2036-.497.4607-.664.771-.168.3111-.251.7052-.251 1.1832 0 .4542.083.8368.251 1.1476.167.3109.395.5557.681.735.287.1792.622.3046 1.004.3766.383.0715.777.1073 1.184.1073 1.004 0 1.78-.1669 2.33-.5019.55-.3344.956-.7351 1.219-1.2011.263-.4664.425-.9379.485-1.4163.059-.478.089-.8609.089-1.1476zm-11.761-3.7648c.072-1.1952.37-2.1874.897-2.9761.525-.7889 1.194-1.42216 2.008-1.90045.812-.47809 1.726-.8186 2.743-1.02193 1.015-.20306 2.037-.30469 3.066-.30469.932 0 1.876.06581 2.832.19689.956.13191 1.829.38893 2.618.77128.789.38249 1.434.91406 1.936 1.5951.502.6817.753 1.5843.753 2.7077v9.6455c0 .8369.047 1.6376.143 2.4024.096.7653.263 1.3389.502 1.7209h-5.163c-.096-.2867-.174-.5792-.233-.8782-.06-.2986-.102-.6035-.126-.9144-.813.837-1.769 1.4227-2.868 1.7571-1.1.3344-2.223.5018-3.371.5018-.884 0-1.709-.1075-2.474-.3226s-1.434-.5497-2.008-1.004c-.574-.454-1.022-1.0275-1.344-1.7212-.323-.6932-.484-1.5176-.484-2.474 0-1.0516.184-1.9187.555-2.5998.37-.6813.848-1.225 1.435-1.6313.585-.4064 1.254-.7111 2.008-.9147.752-.2028 1.511-.3643 2.276-.4839.765-.1193 1.518-.2154 2.259-.2868.741-.0716 1.399-.1795 1.972-.3228.574-.1434 1.028-.3524 1.363-.6276.335-.2745.49-.675.466-1.2012 0-.5495-.089-.9858-.269-1.309-.179-.3226-.418-.5733-.717-.7525-.299-.1795-.645-.2985-1.039-.3587-.395-.0595-.82-.09-1.274-.09-1.004 0-1.792.2157-2.366.6456-.574.4304-.909 1.1477-1.004 2.1516z"/><path d="m255.73 8.57048v2.58152h.107c.646-1.0757 1.482-1.85819 2.51-2.34854 1.028-.4898 2.08-.73484 3.155-.73484 1.363 0 2.48.18539 3.353.55562.872.37105 1.56.88468 2.063 1.54176.501.6578.854 1.4588 1.057 2.4025.203.9449.305 1.9901.305 3.1375v11.4024h-5.092v-10.4701c0-1.5297-.239-2.6712-.717-3.4242-.479-.7531-1.327-1.1297-2.546-1.1297-1.387 0-2.391.4122-3.012 1.2372-.622.8248-.932 2.1816-.932 4.0698v9.717h-5.092v-18.53792z"/><path d="m277.997 21.5866v5.5218h-5.629v-5.5218z"/></g></svg>