<svg viewBox="0 0 313.92 36.87" xmlns="http://www.w3.org/2000/svg"><path d="m0 1.52h3.45v14.48h17.55v-14.48h3.45v34.48h-3.45v-16.64h-17.55v16.64h-3.45z"/><path d="m57.37 27.54 2.76 1.46a15.06 15.06 0 0 1 -3.13 4.3 12.45 12.45 0 0 1 -4 2.5 14 14 0 0 1 -5 .86q-6.24 0-9.76-4.09a13.84 13.84 0 0 1 -3.52-9.25 13.68 13.68 0 0 1 3-8.65 12.18 12.18 0 0 1 10.02-4.83 12.59 12.59 0 0 1 10.42 4.95 13.82 13.82 0 0 1 2.84 8.72h-23a10.36 10.36 0 0 0 2.84 7.28 9 9 0 0 0 6.78 2.84 10.93 10.93 0 0 0 3.82-.63 10 10 0 0 0 3.13-1.8 15.74 15.74 0 0 0 2.8-3.66zm0-6.87a10.8 10.8 0 0 0 -1.92-4.19 8.92 8.92 0 0 0 -3.32-2.48 10 10 0 0 0 -4.34-1 9.35 9.35 0 0 0 -6.45 2.42 10.84 10.84 0 0 0 -3 5.27z"/><path d="m70.9 36v-35.34h3.28v14.22a13.85 13.85 0 0 1 4.62-3.78 12.9 12.9 0 0 1 14.83 2.67 13.15 13.15 0 0 1 3.83 9.53 13 13 0 0 1 -3.87 9.44 12.58 12.58 0 0 1 -9.29 3.92 11.86 11.86 0 0 1 -5.64-1.34 13.21 13.21 0 0 1 -4.48-4v4.68zm13.1-2.51a9.89 9.89 0 0 0 8.73-5.13 10.41 10.41 0 0 0 0-10.34 10.12 10.12 0 0 0 -3.73-3.83 9.64 9.64 0 0 0 -5-1.37 10.28 10.28 0 0 0 -5 1.37 9.6 9.6 0 0 0 -3.71 3.69 10.49 10.49 0 0 0 -1.29 5.23 10.2 10.2 0 0 0 2.91 7.41 9.64 9.64 0 0 0 7.09 2.97z"/><path d="m128.5 27.54 2.77 1.46a15.08 15.08 0 0 1 -3.15 4.31 12.24 12.24 0 0 1 -4 2.5 13.94 13.94 0 0 1 -5 .86q-6.24 0-9.76-4.09a13.79 13.79 0 0 1 -3.52-9.25 13.62 13.62 0 0 1 3-8.65 12.18 12.18 0 0 1 10.11-4.83 12.59 12.59 0 0 1 10.42 4.95 13.82 13.82 0 0 1 2.81 8.72h-23.01a10.35 10.35 0 0 0 2.83 7.27 9.07 9.07 0 0 0 6.79 2.84 11 11 0 0 0 3.79-.67 10.15 10.15 0 0 0 3.13-1.8 15.47 15.47 0 0 0 2.79-3.62zm0-6.87a10.79 10.79 0 0 0 -1.91-4.19 9 9 0 0 0 -3.32-2.48 10.07 10.07 0 0 0 -4.34-1 9.36 9.36 0 0 0 -6.46 2.42 11 11 0 0 0 -3 5.27z"/><path d="m155.69 29.58 2.93-1.76q3.1 5.7 7.15 5.7a6.85 6.85 0 0 0 3.26-.81 5.73 5.73 0 0 0 2.32-2.17 5.64 5.64 0 0 0 .8-2.88 5.79 5.79 0 0 0 -1.18-3.4 27.67 27.67 0 0 0 -5.9-5.53 30.65 30.65 0 0 1 -5.37-4.73 8.64 8.64 0 0 1 -1.83-5.28 8 8 0 0 1 1.13-4.08 7.7 7.7 0 0 1 3-2.92 8.73 8.73 0 0 1 4.24-1.06 9.12 9.12 0 0 1 4.56 1.2 15.86 15.86 0 0 1 4.49 4.44l-2.82 2.14a13.49 13.49 0 0 0 -3.31-3.44 5.7 5.7 0 0 0 -3-.82 4.74 4.74 0 0 0 -3.41 1.26 4.17 4.17 0 0 0 -1.32 3.12 5.33 5.33 0 0 0 .46 2.18 8.29 8.29 0 0 0 1.72 2.3c.45.44 1.93 1.58 4.45 3.44a25.26 25.26 0 0 1 6.14 5.89 9.43 9.43 0 0 1 1.66 5.18 8.8 8.8 0 0 1 -2.86 6.55 9.56 9.56 0 0 1 -6.93 2.77 10.18 10.18 0 0 1 -5.7-1.68 15.44 15.44 0 0 1 -4.68-5.61z"/><path d="m189.08 1h3.28v9.5h5.21v2.84h-5.21v22.66h-3.28v-22.66h-4.47v-2.84h4.47z"/><path d="m205.67 10.5h3.33v11.91a25.09 25.09 0 0 0 .47 6 6.67 6.67 0 0 0 2.69 3.7 8.1 8.1 0 0 0 4.72 1.36 7.91 7.91 0 0 0 4.66-1.33 6.7 6.7 0 0 0 2.64-3.48 24.34 24.34 0 0 0 .5-6.25v-11.91h3.32v12.5a19.79 19.79 0 0 1 -1.25 8 9.4 9.4 0 0 1 -3.7 4.18 11.7 11.7 0 0 1 -6.2 1.52 11.83 11.83 0 0 1 -6.23-1.52 9.29 9.29 0 0 1 -3.72-4.21c-.82-1.81-1.23-4.52-1.23-8.15z"/><path d="m263.32.66v35.34h-3.23v-4.38a14.09 14.09 0 0 1 -4.63 3.77 12.57 12.57 0 0 1 -5.62 1.27 12.44 12.44 0 0 1 -9.24-3.93 13.14 13.14 0 0 1 -3.83-9.55 13 13 0 0 1 3.86-9.42 12.62 12.62 0 0 1 9.31-3.92 12 12 0 0 1 5.68 1.34 12.91 12.91 0 0 1 4.47 4v-14.52zm-13.11 12.34a9.88 9.88 0 0 0 -8.75 5.12 10.41 10.41 0 0 0 -1.37 5.16 10.3 10.3 0 0 0 1.39 5.15 10 10 0 0 0 3.71 3.82 9.62 9.62 0 0 0 5 1.37 10.21 10.21 0 0 0 5.11-1.36 9.49 9.49 0 0 0 3.7-3.66 10.58 10.58 0 0 0 1.3-5.22 10.13 10.13 0 0 0 -2.92-7.4 9.64 9.64 0 0 0 -7.17-2.98z"/><path d="m276.49 0a2.61 2.61 0 0 1 1.91.8 2.61 2.61 0 0 1 .79 1.92 2.6 2.6 0 0 1 -.79 1.9 2.61 2.61 0 0 1 -1.91.79 2.58 2.58 0 0 1 -1.89-.79 2.61 2.61 0 0 1 -.8-1.9 2.62 2.62 0 0 1 .8-1.92 2.59 2.59 0 0 1 1.89-.8zm-1.63 10.5h3.28v25.5h-3.28z"/><path d="m300.63 9.84a12.66 12.66 0 0 1 9.77 4.27 13.29 13.29 0 0 1 3.52 9.21 13.27 13.27 0 0 1 -3.72 9.34 13.47 13.47 0 0 1 -19.16 0 13.27 13.27 0 0 1 -3.72-9.34 13.25 13.25 0 0 1 3.52-9.19 12.62 12.62 0 0 1 9.79-4.29zm0 3.21a9.47 9.47 0 0 0 -7 3 10.12 10.12 0 0 0 -2.93 7.31 10.35 10.35 0 0 0 1.3 5.19 9.51 9.51 0 0 0 3.62 3.69 10.3 10.3 0 0 0 10 0 9.51 9.51 0 0 0 3.62-3.69 10.45 10.45 0 0 0 1.34-5.16 10.06 10.06 0 0 0 -2.95-7.31 9.47 9.47 0 0 0 -7.01-3.03z"/></svg>