<svg viewBox="0 0 360.2 72.53" xmlns="http://www.w3.org/2000/svg"><g fill="#231f20"><path d="m0 .98v70.57h35.19v-11.93h-21.7v-58.64z"/><path d="m35.19.98v13.88h5.86l-4.99 14.46h6.85l6.15-14.46v-13.88z"/><path d="m79.19 16.23h.2l6.55 28.54h-13.39zm-8.4-15.23-17.5 70.55h13l3.81-14.86h18.67l3.42 14.86h12.9l-17.01-70.55z"/><path d="m145.06 65.68c-3.61 4.11-7.52 6.85-12.61 6.85-13.1 0-22.28-6.26-22.28-23.66v-25.22c0-17.39 9.18-23.65 22.28-23.65 13.79 0 21.21 7.92 21.71 24h-13.5c0-9.09-3.32-12-8.21-12-5.37 0-8.79 2.14-8.79 10v28.63c0 7.82 3.42 10 8.79 10 5.09 0 8.21-3.72 8.21-9.78v-5.21h-7.93v-11.14h21.43v37.05h-7z"/><path d="m166.07.98v70.57h37.71v-11.93h-24.22v-18.57h17.45v-11.92h-17.45v-16.23h23.24v-11.92z"/><path d="m246.19.98v41.39h-.2l-18.32-41.39h-14.54v70.57h12.32v-45.11h.2l20.17 45.11h12.68v-70.57z"/><path d="m282 50.63c0 7.82 3.38 10 8.69 10s8.68-2.15 8.68-10v-4.69h13.31v2.93c0 17.4-9.07 23.66-22 23.66s-22-6.26-22-23.66v-25.22c0-17.39 9.06-23.65 22-23.65s22 6.26 22 23.65v.2h-13.35v-2c0-7.83-3.38-10-8.68-10s-8.65 2.22-8.65 10.05z"/><path d="m322.49.98v70.57h37.71v-11.93h-24.22v-18.57h17.45v-11.92h-17.45v-16.23h23.24v-11.92z"/></g></svg>