<svg viewBox="0 0 1011.06 137.54" xmlns="http://www.w3.org/2000/svg"><g fill="#010101"><path d="m714.66 36.63-6.23 18.37h18.86l-.69 2.61h-18.87l-19.73 59.39q-.87 2.81-1.73 5.79a21.31 21.31 0 0 0 -.87 6 7.1 7.1 0 0 0 1.3 4.48 5 5 0 0 0 4.24 1.69 9.72 9.72 0 0 0 5.88-2.06 29 29 0 0 0 5-4.77 35.83 35.83 0 0 0 3.81-5.51c1-1.87 3.11-1 2.07 1a31.79 31.79 0 0 1 -4.15 6.17 24 24 0 0 1 -6.49 5.32 18.17 18.17 0 0 1 -9.26 2.25q-6.57 0-9.86-3.46a11.66 11.66 0 0 1 -3.29-8.32 32.59 32.59 0 0 1 1.3-8.5c.86-3.18 1.76-6.07 2.68-8.69l17-50.83h-15.63l.7-2.61h15.57l6.23-18.32z"/><path d="m718.5 86.09a57.76 57.76 0 0 1 11-16.48 52.71 52.71 0 0 1 14.8-10.93 35.25 35.25 0 0 1 15.57-4 23.07 23.07 0 0 1 11.77 2.92 26.58 26.58 0 0 1 8.3 7.46 31.89 31.89 0 0 1 4.85 10 38.43 38.43 0 0 1 1.56 10.56 47.14 47.14 0 0 1 -4.33 20 62.81 62.81 0 0 1 -10.9 16.48 52.31 52.31 0 0 1 -14.62 11.2 33.86 33.86 0 0 1 -15.32 4.1 24.08 24.08 0 0 1 -11.18-2.59 27.58 27.58 0 0 1 -8.48-6.74 29.87 29.87 0 0 1 -5.45-9.75 35.94 35.94 0 0 1 -1.9-11.74 49.15 49.15 0 0 1 4.33-20.49zm11.34 44.44a14.27 14.27 0 0 0 10.81 4.47 17.13 17.13 0 0 0 10-3.28 35.65 35.65 0 0 0 8.48-8.65 70.89 70.89 0 0 0 6.75-11.93 111 111 0 0 0 4.97-13.14 109.38 109.38 0 0 0 3-12.39 56.63 56.63 0 0 0 1-9.47q0-8.75-3.55-13.84t-12.3-5.08a16.47 16.47 0 0 0 -9.52 3.1 35 35 0 0 0 -8.22 8.1 64.27 64.27 0 0 0 -6.66 11.38 98.39 98.39 0 0 0 -4.94 13 107.16 107.16 0 0 0 -3 12.93 68.81 68.81 0 0 0 -1 11q-.06 9.34 4.18 13.8z"/><path d="m810 67.88q1.39-5.17 2.77-10.37h-15.1l.69-2.69h26.64q-.87 4-2.51 10.18t-3.49 11.91l.35.39q1.73-2.88 4.32-6.92a66 66 0 0 1 5.89-7.78 35.34 35.34 0 0 1 7.27-6.34 15.21 15.21 0 0 1 8.47-2.59q6.4 0 9.78 4a12.45 12.45 0 0 1 3.2 8.65 12 12 0 0 1 -1 5.09 7.69 7.69 0 0 1 -2.42 3.07 8.58 8.58 0 0 1 -3 1.44 12.14 12.14 0 0 1 -2.94.39 5.85 5.85 0 0 1 -4-1.35 5 5 0 0 1 -1.56-4 5.31 5.31 0 0 1 .78-3.17c.52-.7 1.07-1.38 1.64-2a18.8 18.8 0 0 0 1.65-2.11 5.39 5.39 0 0 0 .78-3.07 3.83 3.83 0 0 0 -1.39-3.08 5.2 5.2 0 0 0 -3.46-1.15q-3.29 0-7.61 3.75a55.73 55.73 0 0 0 -8.57 9.6 99.87 99.87 0 0 0 -8 13.35 103.42 103.42 0 0 0 -6.23 15l-12.45 39.18h-12.18l18.68-59.2q1.57-4.98 3-10.18z"/><path d="m944 122.06a33 33 0 0 1 -5.71 6.69 38.17 38.17 0 0 1 -8.91 6 28.35 28.35 0 0 1 -12.72 2.63 28 28 0 0 1 -12.55-2.54 24.4 24.4 0 0 1 -8.31-6.52 26.12 26.12 0 0 1 -4.67-8.78 31.67 31.67 0 0 1 -1.47-9.32 46.59 46.59 0 0 1 4.24-18.74 72.07 72.07 0 0 1 11.1-17.76 63.35 63.35 0 0 1 15.48-13.3 33.66 33.66 0 0 1 17.65-5.25 30.35 30.35 0 0 1 6.93.81 22.5 22.5 0 0 1 6.23 2.45 13.93 13.93 0 0 1 4.5 4.16 10.68 10.68 0 0 1 1.73 6.16 15 15 0 0 1 -2.52 8.59 23.09 23.09 0 0 1 -6.49 6.34 45.09 45.09 0 0 1 -8.74 4.44 66.75 66.75 0 0 1 -9.26 2.8q-4.5 1-8.22 1.45a50.83 50.83 0 0 1 -5.45.45c-2 0-3.87-.06-5.71-.18a46.46 46.46 0 0 1 -4.85-.54q-1.9 5.79-3.2 11.49a54.52 54.52 0 0 0 -1.3 12q0 9.78 4.85 14.58a16.76 16.76 0 0 0 12.37 4.83 20.42 20.42 0 0 0 9.77-2.26 33.16 33.16 0 0 0 7.44-5.34 39.31 39.31 0 0 0 5.37-6.25c1.42-2.15 3.84-1.32 2.42.91zm.69-61.82q-2.07-2.54-6.92-2.54a18.43 18.43 0 0 0 -10.26 3.3 40.54 40.54 0 0 0 -8.91 8 61.39 61.39 0 0 0 -6.92 10.32 66.89 66.89 0 0 0 -4.5 10.22 48.69 48.69 0 0 0 8.82.73 34.43 34.43 0 0 0 11.77-2 36 36 0 0 0 9.78-5.25 25.75 25.75 0 0 0 6.75-7.61 17.85 17.85 0 0 0 2.51-9 9.36 9.36 0 0 0 -2.08-6.17z"/><path d="m969.61 87.4a16.1 16.1 0 0 1 -2.16-8.5 20 20 0 0 1 2.07-8.58 27.51 27.51 0 0 1 5.72-7.95 28.09 28.09 0 0 1 8.76-5.75 27.41 27.41 0 0 1 11-2.2q7.27 0 11.68 3.38a10.47 10.47 0 0 1 4.42 8.68q0 7.67-7.1 7.67a6.52 6.52 0 0 1 -4.24-1.46 5.07 5.07 0 0 1 -1.82-4.2 5.34 5.34 0 0 1 1.06-3.75 4.17 4.17 0 0 0 1.12-3c0-3.16-2-4.75-5.88-4.75a18.42 18.42 0 0 0 -7.18 1.28 13.93 13.93 0 0 0 -8 8.4 16.51 16.51 0 0 0 -1 5.48 14.08 14.08 0 0 0 1.85 6.85 75.18 75.18 0 0 0 4.84 7.58l10.25 14.06a16.15 16.15 0 0 1 2.86 5.75 24.34 24.34 0 0 1 .78 6.12 19.92 19.92 0 0 1 -2.94 10.87 27.13 27.13 0 0 1 -7.36 7.76 34.68 34.68 0 0 1 -19.12 6.22 31.13 31.13 0 0 1 -7.62-.92 23.45 23.45 0 0 1 -6.49-2.65 14 14 0 0 1 -4.58-4.38 11 11 0 0 1 -1.73-6.12q0-4.2 2.51-6.3a9.5 9.5 0 0 1 6.31-2.1 4.11 4.11 0 0 1 2.86 1.19 3.71 3.71 0 0 1 1.3 2.82 9.81 9.81 0 0 1 -.87 4.11 9.91 9.91 0 0 0 -.86 4.12q0 4.38 2.68 6.12a12.77 12.77 0 0 0 7 1.73 19.3 19.3 0 0 0 7.7-1.46 19.64 19.64 0 0 0 5.71-3.65 15.32 15.32 0 0 0 3.55-4.93 12.88 12.88 0 0 0 1.21-5.12 18.2 18.2 0 0 0 -1.13-6.58 30.94 30.94 0 0 0 -3.72-6.57l-8.65-12.06c-1.76-2.43-3.35-4.84-4.79-7.21z"/><path d="m897.59 29a7.66 7.66 0 1 1 -7.66-7.66 7.66 7.66 0 0 1 7.66 7.66z"/><path d="m868.24 118.33 20.42-63.23h-27.52l-.69 2.61h15.4l-17.85 54.65q-1 3.18-2.08 7a27 27 0 0 0 -1 7q0 6 3.38 8.49c2.25 1.68 5.27 2.52 9.08 2.52a17.47 17.47 0 0 0 9-2.24 24.7 24.7 0 0 0 6.4-5.32 28.85 28.85 0 0 0 4.07-6.16c1-2-1.13-2.89-2.16-1a36.25 36.25 0 0 1 -3.81 5.5 30.72 30.72 0 0 1 -4.93 4.76 8.91 8.91 0 0 1 -5.45 2.05 4.31 4.31 0 0 1 -3.64-1.58 6.13 6.13 0 0 1 -1.21-3.83 19.1 19.1 0 0 1 .87-5.5c.56-1.96 1.14-3.85 1.72-5.72z"/></g><path d="m582.88 98.29q-.93 2.79-1.67 5.29a19.75 19.75 0 0 0 -.74 5.66 20.76 20.76 0 0 0 3 11.13 25.17 25.17 0 0 0 7.8 8 38.51 38.51 0 0 0 10.73 4.8 44 44 0 0 0 12.06 1.67 43.26 43.26 0 0 0 14.65-2.32 31 31 0 0 0 10.94-6.52 27.76 27.76 0 0 0 6.77-9.83 32.16 32.16 0 0 0 2.32-12.34 23.81 23.81 0 0 0 -3.06-12.15 45.21 45.21 0 0 0 -8.44-10.3l-13.17-12.03a79.86 79.86 0 0 1 -14-15.86 32.16 32.16 0 0 1 -5.1-17.9 29.46 29.46 0 0 1 3.52-14.29 35.42 35.42 0 0 1 9.46-11.13 46 46 0 0 1 13.64-7.24 49.31 49.31 0 0 1 15.85-2.59 44.67 44.67 0 0 1 10.11 1 71.44 71.44 0 0 1 8 2.32c2.41.86 4.64 1.64 6.68 2.31a19.52 19.52 0 0 0 6.21 1 6.32 6.32 0 0 0 4.27-1.29 9.39 9.39 0 0 0 2.41-3.53l2.79.56-12.8 35.43h-2.23c.25-1 .58-2.38 1-4.17a29.64 29.64 0 0 0 .65-6.77 25.9 25.9 0 0 0 -2.23-11.32 20.59 20.59 0 0 0 -5.93-7.51 24 24 0 0 0 -8.63-4.18 40.43 40.43 0 0 0 -10.3-1.3 38.42 38.42 0 0 0 -12.24 1.9 31.28 31.28 0 0 0 -9.56 5 22.3 22.3 0 0 0 -6.21 7.6 21.63 21.63 0 0 0 -2.23 9.84 22.14 22.14 0 0 0 4.45 13.82 78.9 78.9 0 0 0 10 10.85l16.51 14.84a63.33 63.33 0 0 1 11.41 13.36 30.06 30.06 0 0 1 4.74 16.51 34.75 34.75 0 0 1 -3.25 14.29 39.78 39.78 0 0 1 -9.63 13.1 50.17 50.17 0 0 1 -16 9.55 62.18 62.18 0 0 1 -22.45 3.71 55.82 55.82 0 0 1 -11.78-1.11 73.91 73.91 0 0 1 -9.27-2.6c-2.79-1-5.38-1.85-7.8-2.59a24.25 24.25 0 0 0 -7.14-1.12 7.41 7.41 0 0 0 -6.86 5.76l-2.6-.56 13-36.74z"/><path d="m55.78.86v2.68h-15.6v131h28a32.38 32.38 0 0 0 11.28-2.1 30.68 30.68 0 0 0 10.68-7 48.08 48.08 0 0 0 9-12.64 71.91 71.91 0 0 0 6.15-18.8h2.21v43.3h-107.5v-2.69h15.6v-131.07h-15.6v-2.68z"/><path d="m142.6 40.78a73.75 73.75 0 0 1 14.52-21.87 64.25 64.25 0 0 1 19.88-14 52.49 52.49 0 0 1 21.47-4.91 55.67 55.67 0 0 1 22.39 4.82 61.06 61.06 0 0 1 19.69 13.72 69.11 69.11 0 0 1 13.95 21.59 73.44 73.44 0 0 1 5.33 28.64 70.55 70.55 0 0 1 -5 26.41 73.78 73.78 0 0 1 -13.46 22 64.1 64.1 0 0 1 -19.52 14.92 52.21 52.21 0 0 1 -23.38 5.47 53.7 53.7 0 0 1 -23.3-5.29 63.08 63.08 0 0 1 -19.61-14.46 71.49 71.49 0 0 1 -13.56-21.62 70.24 70.24 0 0 1 -5.09-26.87 69.86 69.86 0 0 1 5.69-28.55zm23.05 60.52q2 12.69 6.16 20.2t10.83 10.5a38.72 38.72 0 0 0 15.83 3q12.14 0 19-5.1a30.66 30.66 0 0 0 10.34-14.08 75.61 75.61 0 0 0 4.35-21.32q.9-12.33.9-26.78 0-13-.74-24.75a70.4 70.4 0 0 0 -4.18-20.76 31.63 31.63 0 0 0 -10.39-14.33q-7-5.28-19.28-5.29-11.49 0-18.38 4.92a30.61 30.61 0 0 0 -10.5 13.8 75.08 75.08 0 0 0 -4.76 21.14q-1.14 12.22-1.15 26.88a214.89 214.89 0 0 0 1.97 31.97z"/><path d="m524.49.86v32.76h-2.21a74.75 74.75 0 0 0 -2.88-8.33 42.25 42.25 0 0 0 -5.68-9.87 34.09 34.09 0 0 0 -9.41-8.33 26.45 26.45 0 0 0 -14.08-3.55h-27v59.19h9.49a25.06 25.06 0 0 0 10.6-2 19.18 19.18 0 0 0 7.2-5.75 31.79 31.79 0 0 0 4.75-9 76.63 76.63 0 0 0 3.06-11.78h2.2v59.56h-2.2q-1.2-5.55-2.8-10.72a33.48 33.48 0 0 0 -4.33-9.1 20.59 20.59 0 0 0 -6.69-6.23 19.65 19.65 0 0 0 -9.92-2.3h-11.31v69.15h27.8a32.54 32.54 0 0 0 14.08-3 34.79 34.79 0 0 0 11.1-8.33 47.92 47.92 0 0 0 8.06-12.54 74.51 74.51 0 0 0 4.91-15.42h2.21v42h-108.35v-2.69h15.6v-131.04h-15.6v-2.68z"/><path d="m372.44.86v2.68h15.26l-35.77 103.82-35.1-103.82h16.28v-2.68h-56.63v2.68h14.24l45.04 133.68h8.46l46.03-133.68h14.58v-2.68z"/></svg>