<svg viewBox="0 0 624 85" xmlns="http://www.w3.org/2000/svg"><path d="m0 85v-85h624v85zm25.7-53.68 1.17-.32 26.58 42.56h12v-63.36h-10.7v43.27l-1 .2-26.86-43.51h-11.58v63.36h10.39zm202.5 14.1c2.56-.64 4.31-1 6-1.51 8.37-2.54 12.65-8.84 12.14-17.79-.5-8.6-5.31-14.83-14.09-15.38-12.55-.79-25.18-.2-37.94-.2v63h11.53v-26.54c9.08-1.38 12.52-.13 17.27 6.53s9.44 13.65 13.84 20h14.05c-7-10.18-11.35-21.47-22.8-28.11zm239-35.28v63.44h11.24v-26.72c7.18-1.1 12.94-.1 17 6 4.69 7 9.58 14 14.28 20.76h14.19c-7.2-10.16-11.55-21.52-22.91-28.2l3.76-1c10.22-2.62 15-8.76 14.31-18.56-.61-9.28-6.35-15.15-16.77-15.63-11.6-.51-23.24-.09-35.12-.09zm-348.68 54.2v-19.49h32.35v-9.5h-32.41v-16.26h35.05v-9h-46.85v63.44h48.11v-9.19zm486.57-29.09h-32.7v-16h35.18v-9h-46.89v63.32h48.15v-9.34h-36.37v-19.45h32.63zm-189.56-25.16v14.05c-.1 10.16-.21 20.31-.4 30.46a9.92 9.92 0 0 1 -5.81 9.21c-10.34 5.14-21-1-21.24-12.5-.25-12-.12-24-.16-35.95v-5.09h-11.46c0 14.7-.56 29 .15 43.28s7.91 20.68 22.39 21.34c2.16.1 4.33.11 6.49 0 14-.7 21.09-7.51 21.49-21.58.39-13.64.2-27.3.22-40.95a10.58 10.58 0 0 0 -.49-2.27zm-100.48 63.64c7.61-21.07 15.23-42.21 23-63.64h-12.45c-5.45 16.22-10.85 32.32-16.72 49.81-6.11-17.66-11.68-33.78-17.22-49.78h-12.76c7.73 21.45 15.33 42.52 22.92 63.61z" fill="none"/><path d="m25.7 31.32v42.2h-10.39v-63.36h11.58l26.91 43.51 1-.2v-43.27h10.68v63.36h-12l-26.61-42.56z"/><path d="m228.2 45.42c11.45 6.64 15.8 17.93 22.8 28.13h-14c-4.4-6.38-9-13.28-13.84-20s-8.19-7.91-17.27-6.53v26.49h-11.57v-63c12.76 0 25.39-.59 37.94.2 8.78.55 13.59 6.78 14.09 15.38.51 9-3.77 15.25-12.14 17.79-1.7.54-3.45.9-6.01 1.54zm-22.2-8.42c7.34 0 14.28.34 21.17-.12 4.56-.3 6.89-3.58 7.07-8.18.19-4.8-2.14-8.48-6.84-8.83-7-.53-14.12-.14-21.4-.14z"/><path d="m467.18 10.14c11.88 0 23.52-.42 35.11.12 10.42.48 16.16 6.35 16.77 15.63.64 9.8-4.09 15.94-14.31 18.56l-3.76 1c11.37 6.68 15.72 18 22.94 28.25h-14.19c-4.74-6.84-9.59-13.7-14.28-20.79-4.1-6.15-9.86-7.15-17-6v26.67h-11.28zm11.44 26.86c7.48 0 14.42.35 21.31-.13 4.56-.32 6.85-3.72 7-8.27s-2-8.23-6.5-8.61c-7.15-.59-14.38-.16-21.81-.16z"/><path d="m118.52 64.34h36.25v9.19h-48.11v-63.42h46.85v9h-35v16.24h32.41v9.5h-32.4z"/><path d="m605.09 35.25v9.53h-32.63v19.45h36.37v9.34h-48.15v-63.31h46.89v9h-35.18v16z"/><path d="m427.17 12.36c0 13.65.17 27.31-.22 41-.4 14.07-7.45 20.88-21.49 21.58-2.16.11-4.33.1-6.49 0-14.45-.66-21.64-6.93-22.36-21.34s-.15-28.58-.15-43.28h11.45v5.09c0 12-.09 24 .16 36 .23 11.36 10.93 17.59 21.24 12.4a9.92 9.92 0 0 0 5.81-9.21c.19-10.15.3-20.3.4-30.46.05-4.48 0-9 0-14h11.15"/><path d="m315.05 73.73h-13.23c-7.59-21.09-15.19-42.16-22.92-63.61h12.76c5.54 16 11.11 32.12 17.22 49.78 5.87-17.49 11.27-33.59 16.72-49.81h12.4c-7.72 21.43-15.34 42.57-22.95 63.64z"/><path d="m206 37v-17.26c7.28 0 14.38-.39 21.4.14 4.7.35 7 4 6.84 8.83-.18 4.6-2.51 7.88-7.07 8.18-6.94.46-13.88.11-21.17.11z" fill="none"/><path d="m478.62 37v-17.17c7.43 0 14.66-.43 21.81.16 4.54.38 6.64 4.05 6.5 8.61s-2.44 7.95-7 8.27c-6.93.48-13.83.13-21.31.13z" fill="#fff"/></svg>