<svg viewBox="0 0 677.08 157.83" xmlns="http://www.w3.org/2000/svg"><path d="m332.67 78.92a78.67 78.67 0 1 0 78.67-78.67 78.76 78.76 0 0 0 -78.67 78.67zm3 0a75.67 75.67 0 1 1 75.67 75.67 75.75 75.75 0 0 1 -75.67-75.67z"/><path d="m347.87 78.92a63.47 63.47 0 1 0 63.47-63.47 63.54 63.54 0 0 0 -63.47 63.47zm3 0a60.47 60.47 0 1 1 60.47 60.46 60.54 60.54 0 0 1 -60.47-60.46z"/><path d="m674.08 1.75v154.34a1.5 1.5 0 1 0 3 0v-154.34a1.5 1.5 0 0 0 -3 0z"/><path d="m658.88 1.75v154.34a1.5 1.5 0 1 0 3 0v-154.34a1.5 1.5 0 0 0 -3 0z"/><path d="m76.11 6.42a43.9 43.9 0 0 0 -60.31 14.66c-12.39 20.35-6.37 43.51 14.65 56.32l23.96 14.6a25.68 25.68 0 1 1 -37.32 31.17 1.5 1.5 0 1 0 -2.8 1.08 28.68 28.68 0 1 0 41.71-34.82l-24-14.6c-19.5-11.83-25.11-33.34-13.63-52.19a40.87 40.87 0 0 1 56.18-13.64 1.5 1.5 0 1 0 1.56-2.56z"/><path d="m63.88 76.44-24-14.59c-12.43-7.58-15.71-19.57-8.57-31.3a25.68 25.68 0 0 1 35.33-8.55 1.5 1.5 0 1 0 1.56-2.56 28.68 28.68 0 0 0 -39.41 9.56c-8 13.11-4.23 27 9.57 35.42l23.95 14.58a40.89 40.89 0 0 1 -42.54 69.85 40.5 40.5 0 0 1 -16.87-20.21 1.5 1.5 0 1 0 -2.8 1.07 43.89 43.89 0 0 0 51.3 26.87 43.9 43.9 0 0 0 12.48-80.14z"/><path d="m164.28 41.2a1.5 1.5 0 0 0 -.67-.74l-.14-.07h-.11l-.17-.05h-.14-.3-.14l-.17.05h-.1a.61.61 0 0 0 -.14.07 1.52 1.52 0 0 0 -.68.74l-46.52 114.55a1.5 1.5 0 0 0 2.78 1.13l45.11-111.13 45.11 111.13a1.5 1.5 0 1 0 2.78-1.13z"/><path d="m227.21 155.75-62.86-154.75a1.5 1.5 0 0 0 -1.46-1 1.51 1.51 0 0 0 -1.46.93l-62.85 154.82a1.5 1.5 0 1 0 2.78 1.13l61.53-151.55 61.54 151.55a1.5 1.5 0 1 0 2.78-1.13z"/><path d="m607.42 0a1.5 1.5 0 0 0 -1.5 1.5v107l-85.86-107.92s0 0 0 0l-.12-.12-.1-.09a.57.57 0 0 0 -.13-.08l-.12-.07-.19-.11h-.14-.14l-.12-.11h-.14-.16-.13-.15l-.13.06-.12.06-.17.19h-.05l-.12.12-.09.1-.08.13a.75.75 0 0 0 -.07.12l-.06.14v.13.15.15 154.97a1.5 1.5 0 1 0 3 0v-150.51l85.83 107.9a1.49 1.49 0 0 0 1.72.46h.09.1a1.48 1.48 0 0 0 .79-1.31v-111.34a1.5 1.5 0 0 0 -1.64-1.52z"/><path d="m622.62 0a1.5 1.5 0 0 0 -1.5 1.5v150.57l-85.85-107.94-.06-.05-.11-.08-.11-.09-.12-.08-.13-.07-.13-.06h-.14-.14-.16-.17-.16-.14-.14l-.14.05-.12.06-.14.09-.06.06a.57.57 0 0 0 -.11.11l-.09.11-.09.12-.06.12a.84.84 0 0 0 -.06.14.74.74 0 0 0 0 .14.57.57 0 0 0 0 .14v.15s0 .06 0 .09v111.24a1.5 1.5 0 1 0 3 0v-107l85.83 107.9a1.5 1.5 0 0 0 1.74.46h.07l.11-.06.19-.12a1.47 1.47 0 0 0 .59-1.18v-154.8a1.5 1.5 0 0 0 -1.6-1.52z"/><path d="m329.15 140.82a1.5 1.5 0 0 0 -1.5-1.5h-60.78v-137.64a1.5 1.5 0 0 0 -3 0v140.66h63.78a1.5 1.5 0 0 0 1.5-1.52z"/><path d="m327.65 154.52h-76v-152.84a1.5 1.5 0 0 0 -3 0v155.84h79a1.5 1.5 0 0 0 0-3z"/></svg>