<svg xmlns="http://www.w3.org/2000/svg" viewBox="0 0 699.3 195.83"><g id="Layer_2" data-name="Layer 2"><g id="Livello_1" data-name="Livello 1"><path d="M179.36,41.28a53.53,53.53,0,0,0-46.07.2,36.39,36.39,0,0,0-15.66,14.94V0H103.3V145.47h14.33V86.89q0-19.06,9.62-28.9t25.8-9.83q15.76,0,24.88,9.24T187,84.14v61.33h14.12V82.57q0-15.15-5.83-25.66A37.24,37.24,0,0,0,179.36,41.28Z"/><path d="M364,56.84V37.77H349.63V145.11H364v-60q0-18.87,9.42-26.93t25-8.06h3.89V35.8q-14.12,0-23.85,5.51A34.16,34.16,0,0,0,364,56.84Z"/><path d="M506.7,43a55.23,55.23,0,0,0-27.33-6.78q-16,0-27.54,7.17t-16.89,18V37.77H420.82V195.83h14.12V121.52q5.32,10.81,17,18t27.43,7.18a54.56,54.56,0,0,0,27.33-6.88,48.53,48.53,0,0,0,19-19.46q6.85-12.59,6.86-29.1t-6.86-29A48,48,0,0,0,506.7,43Zm5.94,71.36a37.32,37.32,0,0,1-14.84,15.14,43.3,43.3,0,0,1-21.3,5.21,42.32,42.32,0,0,1-21-5.31,38.58,38.58,0,0,1-15-15.14,45.77,45.77,0,0,1-5.53-22.8,45.83,45.83,0,0,1,5.53-22.81,38.62,38.62,0,0,1,15-15.13,42.32,42.32,0,0,1,21-5.31,43.91,43.91,0,0,1,21.3,5.11,37.05,37.05,0,0,1,14.84,14.84q5.42,9.74,5.43,23.1Q518.07,104.41,512.64,114.34Z"/><path d="M642.45,61.36q-5.13-11-16.69-18.08T598.22,36.2A55.64,55.64,0,0,0,570.69,43a47.93,47.93,0,0,0-19,19.27q-6.87,12.48-6.86,29t6.86,29.1a48.47,48.47,0,0,0,19,19.46A54.53,54.53,0,0,0,598,146.68q16,0,27.53-7.18a43.74,43.74,0,0,0,16.9-18.18v23.79h14.33V37.77H642.45Zm-5.53,52.88a38.58,38.58,0,0,1-15,15.14,42.36,42.36,0,0,1-21,5.31,43.29,43.29,0,0,1-21.29-5.21,37.2,37.2,0,0,1-14.84-15.14q-5.43-9.93-5.43-23.1,0-13.36,5.43-23.1A36.93,36.93,0,0,1,579.59,53.3a43.89,43.89,0,0,1,21.29-5.11,42.36,42.36,0,0,1,21,5.31,38.62,38.62,0,0,1,15,15.13,45.83,45.83,0,0,1,5.53,22.81A45.77,45.77,0,0,1,636.92,114.24Z"/><path d="M696.33,128.69a10.1,10.1,0,0,0-7.27-2.85,10.36,10.36,0,0,0-7.47,2.85,9.54,9.54,0,0,0-3,7.18,9.83,9.83,0,0,0,3,7.27,10.15,10.15,0,0,0,7.47,3,10.11,10.11,0,0,0,10.24-10.22A9.54,9.54,0,0,0,696.33,128.69Z"/><path d="M65.83,91.79A150.69,150.69,0,0,0,46.91,85.7q-9.85-2.76-15.7-5a27.07,27.07,0,0,1-9.76-6.3,14.2,14.2,0,0,1-3.92-10.33q0-7.27,6.64-12.19t17.31-4.92c8.05,0,16.76.81,32.49,8.33L79.8,44.52C63.55,36,52.28,35.14,41.88,35.14a49.07,49.07,0,0,0-20.12,3.93A32.86,32.86,0,0,0,8.07,49.69,24.37,24.37,0,0,0,3.24,64.25c0,7,1.78,12.49,5.33,16.63a33.9,33.9,0,0,0,13,9.34,154.08,154.08,0,0,0,19.92,6.3,146.87,146.87,0,0,1,15,4.42,25.9,25.9,0,0,1,9.16,5.61,12.13,12.13,0,0,1,3.62,9,16.34,16.34,0,0,1-6.54,13.18q-6.54,5.31-18,5.31c-8.73,0-27.09-5.52-38.24-13.15L0,132c19,12.37,32.29,13.66,44.9,13.66a47.72,47.72,0,0,0,19.92-3.93A32.75,32.75,0,0,0,78.31,131a26,26,0,0,0,4.83-15.44q-.21-9.45-5.24-15.15A32.86,32.86,0,0,0,65.83,91.79Z"/><path d="M322.18,60.91a47.16,47.16,0,0,0-18.36-18Q291.9,36.22,276,36.22t-28.34,6.69a47.3,47.3,0,0,0-19.38,19.28q-6.93,12.6-6.93,29.32t7,29.22A48.77,48.77,0,0,0,247.84,140,57.82,57.82,0,0,0,276,146.8q20.19,0,33.55-9.94A45.42,45.42,0,0,0,327,111.19H311.88c-6.48,14.83-20.13,24.66-36.64,24.66-18.16,0-33.56-12.45-38.92-29.7l93.14-18.91A55.4,55.4,0,0,0,322.18,60.91ZM234.56,93.43c0-.79-.06-1.58-.06-2.38,0-23.8,18.62-43.09,41.59-43.09,18.5,0,34.18,12.51,39.58,29.82Z"/></g></g></svg>