<svg viewBox="0 0 191.59 223.74" xmlns="http://www.w3.org/2000/svg"><path d="m131.37 0h-71.15v3.14h34v183.3h3.14v-183.3h34.01z"/><path d="m103.09 6.28h3.14v179.58h-3.14z"/><path d="m88.52 186.1-3.15-.46v-179.36h3.15z"/><g fill="#231f20"><path d="m59.68 223.32h2.21v-13.6h-1.16a6 6 0 0 0 -.89.07 2.52 2.52 0 0 0 -1 .38 3.63 3.63 0 0 0 -1 1 6.71 6.71 0 0 0 -.81 1.9h-.22v-3.64h12.1v3.64h-.22a6.45 6.45 0 0 0 -.8-1.9 3.51 3.51 0 0 0 -1-1 2.48 2.48 0 0 0 -1-.38 6 6 0 0 0 -.9-.07h-1.11v13.6h2.21v.28h-6.41z"/><path d="m89 223.32h2.2v-13.6h-2.2v-.28h4.26.47 1a14.15 14.15 0 0 1 2.07.13 3.43 3.43 0 0 1 1.67.74 3.2 3.2 0 0 1 1.27 2.49 3.2 3.2 0 0 1 -.11.77 2.55 2.55 0 0 1 -.47 1 3.77 3.77 0 0 1 -1.07.9 4.77 4.77 0 0 1 -1.85.54l.87.15a5.78 5.78 0 0 1 1.11.37 4 4 0 0 1 1 .69 2.33 2.33 0 0 1 .67 1.1 4.61 4.61 0 0 1 .17.91c0 .34.06.68.08 1s0 .7.06 1a5.25 5.25 0 0 0 .11.83 3.14 3.14 0 0 0 .38.94.91.91 0 0 0 .83.41 1.51 1.51 0 0 0 .54-.1 1.31 1.31 0 0 0 .5-.31l.18.22a2.29 2.29 0 0 1 -.23.16 1.69 1.69 0 0 1 -.33.17 1.93 1.93 0 0 1 -.49.13 3.58 3.58 0 0 1 -.7.05 3.65 3.65 0 0 1 -1.33-.2 1.9 1.9 0 0 1 -.84-.58 2.4 2.4 0 0 1 -.47-1 7.61 7.61 0 0 1 -.21-1.32l-.14-1.76a3.56 3.56 0 0 0 -.4-1.55 2.14 2.14 0 0 0 -.74-.82 2.16 2.16 0 0 0 -.89-.31c-.3 0-.57-.05-.79-.05h-2v7.18h2.2v.28h-6.38zm4.2-7.46h1.8a3.2 3.2 0 0 0 1-.14 1.74 1.74 0 0 0 .79-.48 2.39 2.39 0 0 0 .51-1 5.77 5.77 0 0 0 .17-1.51 4.48 4.48 0 0 0 -.26-1.66 2.36 2.36 0 0 0 -.7-1 2.23 2.23 0 0 0 -1-.41 5.24 5.24 0 0 0 -1-.1h-.73a3.61 3.61 0 0 0 -.62.05z"/><path d="m122.05 223.32h2.21v-13.6h-2.21v-.28h11.38v3.44h-.21a10.58 10.58 0 0 0 -.56-1.36 3.77 3.77 0 0 0 -.72-1 2.79 2.79 0 0 0 -1-.61 4.41 4.41 0 0 0 -1.39-.19h-3.31v6.14h1.3a4.43 4.43 0 0 0 1.11-.12 1.67 1.67 0 0 0 .79-.44 2.6 2.6 0 0 0 .55-.9 11.89 11.89 0 0 0 .45-1.46h.22v6.19h-.22c-.09-.39-.19-.76-.29-1.12a3.73 3.73 0 0 0 -.41-.95 2 2 0 0 0 -.72-.67 2.36 2.36 0 0 0 -1.17-.25h-1.61v7.18h3.76a3.3 3.3 0 0 0 1.82-.46 4.26 4.26 0 0 0 1.19-1.12 5.13 5.13 0 0 0 .68-1.34 7.57 7.57 0 0 0 .27-1.15h.22v4.35h-12.13z"/><path d="m55.9 4.47-.27-.49.15.24z"/><path d="m135.73 4.49-.05-.02.24-.51z"/><path d="m95.79 186.72a95.78 95.78 0 0 1 -40.18-182.72l.24.51a95.23 95.23 0 1 0 79.88 0l.27-.51a95.78 95.78 0 0 1 -40.21 182.72z"/></g></svg>