<svg width="459" height="136" viewBox="0 0 459 136" fill="none" xmlns="http://www.w3.org/2000/svg">
<g clip-path="url(#clip0)">
<path d="M9.57101 29.9361C17.1523 29.9361 24.3407 29.9361 31.9351 29.9361C32.21 28.4537 32.5898 27.0762 32.6814 25.6726C32.9957 20.8712 33.179 16.0435 33.4539 11.2422C33.6372 8.19865 34.0824 7.54272 36.8976 5.9029C37.9844 6.66378 39.1759 7.47713 40.3543 8.31672C41.9387 9.44491 42.6326 11.0191 42.4624 12.9476C42.2529 15.3483 42.0172 17.749 41.7423 20.1365C41.428 22.8389 40.9174 25.5151 40.7733 28.2176C40.7079 29.5032 40.9304 31.038 41.6113 32.0744C42.6981 33.7273 42.3708 35.1573 41.428 36.4298C40.2496 38.0171 40.1579 39.775 40.3281 41.5066C40.8912 47.1214 41.6375 52.723 42.2922 58.3377C42.4493 59.689 42.6195 61.0533 42.6064 62.4045C42.5541 65.8022 40.0663 67.2059 37.0547 65.5661C34.8942 64.3985 33.6503 62.6537 33.4801 60.0694C33.0873 54.1267 32.5767 48.184 32.0529 42.2544C31.9743 41.3361 31.6208 40.4572 31.3328 39.3027C24.8514 39.4995 18.4878 38.6993 12.1374 39.5913C10.4483 39.8275 9.84598 40.9032 9.95072 42.4643C10.134 45.1798 10.134 47.9347 10.5792 50.6109C11.3518 55.2418 11.4827 59.9907 13.3944 64.4116C14.1276 66.0908 13.3813 68.0717 12.1505 68.9375C10.5923 70.0264 8.99488 69.9345 7.18795 68.8719C5.23699 67.7306 4.20259 66.222 4.05855 63.8475C3.63956 57.0652 2.88012 50.283 2.53968 43.5007C2.04212 33.6749 1.83262 23.8228 1.37434 13.9839C1.23031 11.0716 0.588722 8.17241 0.30066 5.2601C0.117348 3.44974 -0.694462 1.11463 1.45291 0.196335C3.24674 -0.577659 4.84418 1.06216 5.93096 2.38713C6.8868 3.54156 7.62004 5.0502 7.9212 6.51948C9.09963 12.2916 9.3877 18.1556 9.23057 24.0459C9.1782 25.8825 9.44007 27.7322 9.57101 29.9361Z" fill="black"/>
<path d="M165.216 43.6721C166.068 45.2726 167.023 46.65 167.56 48.1718C168.333 50.3364 167.325 52.7764 165.23 54.1145C161.275 56.6464 156.758 57.7615 152.227 58.3649C148.011 58.929 143.664 59.0471 139.448 57.8795C136.829 57.1449 134.066 56.3578 132.469 54.0095C130.819 51.5695 129.876 48.749 130.23 45.6924C130.924 39.671 131.67 33.6627 132.351 27.6413C132.718 24.3485 133.058 21.0426 133.268 17.7236C133.359 16.1757 134.014 15.0475 135.284 14.4178C138.545 12.8042 141.766 10.9676 145.209 9.87875C150.918 8.08151 156.836 7.30752 162.86 7.83226C165.884 8.09463 168.49 9.39337 170.821 11.2037C172.326 12.3844 173.282 14.0111 173.321 16.0838C171.37 17.8417 168.987 17.8286 166.775 17.3957C161.17 16.2937 155.75 17.2776 150.368 18.5763C147.055 19.3766 143.69 20.2424 140.941 22.4201C141.32 29.2024 141.779 28.8744 147.147 28.5727C151.193 28.3497 155.2 27.5363 159.219 27.0116C160.149 26.8935 161.092 26.8017 162.022 26.8148C164.837 26.8542 167.364 29.1499 167.325 31.8523C167.311 32.6657 166.709 33.6758 166.068 34.2268C165.23 34.9352 164.117 35.5124 163.03 35.7354C158.539 36.6668 154.021 37.5195 149.491 38.2673C147.134 38.6608 144.725 38.7789 142.329 38.9888C140.731 39.1331 139.88 39.9727 139.697 41.56C139.657 41.8749 139.527 42.1635 139.474 42.4783C138.793 46.9649 139.946 48.5391 144.476 48.7097C151.586 48.9458 158.329 47.3453 165.216 43.6721Z" fill="black"/>
<path d="M195.253 36.4826C196.34 37.5189 196.864 38.2142 197.545 38.634C202.625 41.73 207.745 44.7473 213.519 46.4527C215.601 47.0692 217.604 48.04 219.49 49.1289C221.415 50.2439 221.899 52.3167 221.598 54.3632C221.323 56.3441 219.712 57.3542 217.906 57.7477C215.483 58.2725 213.179 57.8396 210.992 56.5146C208.858 55.2159 206.579 54.1664 204.406 52.9201C200.334 50.585 196.104 48.4467 192.307 45.718C189.754 43.8946 187.829 41.2053 185.499 38.7783C184.189 40.7068 184.608 43.1993 184.006 45.4294C183.744 46.4264 183.718 47.5153 183.351 48.4598C182.33 51.0442 178.205 52.1199 176.268 50.1521C174.317 48.1843 173.073 45.8361 173.924 42.8057C174.487 40.8117 174.67 38.6996 175.194 36.6794C176.123 33.0455 177.223 29.451 178.166 25.8172C178.69 23.8232 179.109 21.8029 179.489 19.7695C179.711 18.5495 179.646 17.2639 179.921 16.057C180.3 14.4172 181.662 13.3283 183.063 13.8137C185.093 14.509 186.14 13.407 187.436 12.2657C191.548 8.59254 196.052 5.64087 201.774 5.15548C205.388 4.84064 208.308 5.90324 210.377 9.06481C212.432 12.2133 212.93 15.3224 210.966 18.7594C208.19 23.6395 204.602 27.8112 200.491 31.5631C198.828 33.098 197.191 34.6591 195.253 36.4826ZM202.913 14.6402C201.761 14.6402 201.132 14.509 200.583 14.6664C196.668 15.7815 193.407 18.051 190.854 21.1208C189.492 22.7475 188.733 24.912 187.869 26.906C187.62 27.4701 187.947 28.2835 188.078 29.5953C193.721 24.8333 199.535 21.3175 202.913 14.6402Z" fill="black"/>
<path d="M285.901 10.0752C286.215 7.67451 287.865 6.65127 289.725 5.78544C294.569 3.52905 299.532 1.96795 304.822 4.06691C308.789 5.62802 312.272 7.8057 314.013 12.0561C314.943 14.3125 314.878 16.3984 313.411 18.2743C312.259 19.7436 311.015 21.3047 309.47 22.2755C305.673 24.6499 301.679 26.7095 297.751 28.8741C296.206 29.7268 294.622 30.4877 292.932 31.3666C293.6 33.1639 295.158 33.6624 296.468 34.3576C299.702 36.0762 302.988 37.6898 306.262 39.3165C309.208 40.7857 311.827 42.6748 313.673 45.4297C314.419 46.5317 315.087 47.7779 315.414 49.0504C316.043 51.4905 313.149 54.0355 310.674 53.2484C309.81 52.9729 308.959 52.4219 308.318 51.766C306.236 49.6539 303.813 48.0928 301.195 46.7284C295.931 43.9735 290.392 41.6778 285.796 37.5586C284.539 38.5425 284.408 39.7756 284.513 41.0087C284.723 43.4094 284.972 45.8101 285.325 48.1846C285.574 49.8638 285.168 51.3199 284.107 52.5662C282.562 54.3765 280.664 54.4553 278.909 52.881C277.011 51.2019 275.898 49.1685 275.832 46.5973C275.675 41.2449 275.806 35.9187 276.997 30.6713C278.137 25.6732 279.341 20.6881 280.507 15.6899C280.598 15.2833 280.69 14.8766 280.808 14.4699C281.816 10.9804 281.986 10.823 285.901 10.0752ZM304.691 13.9189C301.43 12.043 298.668 12.6596 295.931 13.9058C293.967 14.7979 292.042 15.7687 289.882 16.805C289.423 18.4973 288.9 20.4651 288.166 23.1675C294.491 20.7537 300.173 18.8909 304.691 13.9189Z" fill="black"/>
<path d="M264.938 100.396C264.022 99.2416 263.157 98.3233 262.516 97.2738C260.604 94.0991 262.503 90.3604 266.156 89.7307C275.256 88.1564 284.435 87.6317 293.653 87.8022C295.63 87.8416 297.594 88.3139 299.558 88.3532C302.517 88.4188 303.813 90.1767 304.481 92.7217C304.638 93.3251 304.691 93.9417 304.782 94.4796C302.975 96.5261 300.828 96.959 298.262 97.0114C292.317 97.1295 286.373 97.6018 280.428 98.0085C277.312 98.2184 274.209 98.5594 271.092 98.9005C270.49 98.9661 269.927 99.2547 269.076 99.5302C269.73 102.115 271.289 104.122 272.663 106.103C273.187 106.85 274.955 107.06 276.107 106.968C279.223 106.706 282.314 106.142 285.417 105.722C286.726 105.552 288.166 104.948 289.188 106.339C290.275 107.847 290.144 110.366 289.109 111.914C287.918 113.685 286.202 114.656 284.212 115.049C280.323 115.81 276.395 116.388 272.493 117.109C271.708 117.253 270.804 117.516 270.28 118.054C269.05 119.326 269.757 121.517 271.524 121.937C272.834 122.252 274.222 122.435 275.557 122.33C278.359 122.12 281.148 121.648 283.937 121.346C284.867 121.241 285.849 121.176 286.739 121.373C289.384 121.937 290.327 124.718 288.428 126.633C286.373 128.706 284.16 130.49 281.043 131.067C276.893 131.841 272.794 132.169 268.604 131.789C265.252 131.487 262.725 130.044 260.892 127.119C259.478 124.862 259.949 122.514 259.936 120.153C259.923 118.408 260.211 116.611 259.923 114.918C259.452 112.176 259.963 109.907 261.534 107.559C262.987 105.368 263.851 102.744 264.938 100.396Z" fill="black"/>
<path d="M197.558 108.163C200.805 108.163 203.699 108.137 206.58 108.176C207.928 108.189 209.303 108.229 210.625 108.452C212.498 108.78 214.252 110.695 214.527 112.492C214.737 113.804 213.428 115.824 211.594 116.52C210.154 117.071 208.596 117.346 207.064 117.595C204.498 118.015 201.892 118.225 199.326 118.684C194.795 119.498 194.245 120.468 195.476 125.44C196.55 125.65 197.794 126.188 198.959 126.057C202.887 125.611 206.894 125.611 210.678 124.142C211.869 123.682 213.323 122.856 214.436 124.273C215.64 125.794 216.4 127.552 215.68 129.533C214.894 131.698 213.506 133.325 211.215 134.033C206.161 135.594 200.988 136.473 195.751 135.778C193.355 135.463 190.933 134.348 188.824 133.088C186.651 131.803 185.826 129.35 185.603 126.883C185.145 121.951 185.747 117.058 186.834 112.256C187.581 108.99 188.484 105.802 188.222 102.365C188 99.4262 190.225 96.3302 192.857 95.5562C199.601 93.5753 206.514 92.6046 213.532 92.3815C216.596 92.2766 218.442 94.4805 220.485 96.1728C221.362 96.8943 220.812 98.0225 219.935 98.5604C217.906 99.7935 215.968 101.118 213.414 101.394C209.683 101.801 205.977 102.562 202.311 103.414C200.059 103.926 198.082 105.08 197.558 108.163Z" fill="black"/>
<path d="M87.5445 34.8039C87.9243 40.3268 87.2565 45.6792 84.5068 50.5724C81.1941 56.4889 76.3232 60.0965 69.3443 59.8472C62.4963 59.598 55.2685 53.5897 53.6318 46.9123C51.7332 39.1986 52.9117 31.721 56.0149 24.5583C57.3112 21.5804 59.2359 18.8911 62.1689 17.2382C63.295 16.5954 64.6436 16.0837 65.9268 16.0181C68.7289 15.8476 71.5178 15.8869 74.2544 14.9555C76.4411 14.2078 78.5623 14.6932 80.3954 16.2674C81.1024 16.884 81.8881 17.4087 82.6999 17.8941C84.7032 19.0748 85.9733 20.7933 86.5101 23.0234C86.9029 24.6501 87.3874 26.2768 87.5183 27.9298C87.6755 30.1862 87.5445 32.495 87.5445 34.8039ZM61.2393 40.3006C61.0298 42.7275 61.1869 45.102 62.2606 47.3452C63.295 49.5098 64.9448 50.6642 67.4326 50.7561C72.1332 50.9135 75.0662 48.093 77.2922 44.6035C80.7751 39.1593 80.8406 32.9542 80.1597 26.8016C79.78 23.4564 78.3528 22.9316 75.1579 24.2697C72.5391 25.3717 70.0252 26.6048 68.2444 28.953C67.8778 29.4384 67.3671 30.055 66.8434 30.1337C62.3653 30.829 61.9463 34.3579 61.3833 37.7949C61.2393 38.6083 61.2786 39.461 61.2393 40.3006Z" fill="black"/>
<path d="M232.623 120.311C232.426 122.108 232.296 123.118 232.204 124.128C231.916 127.263 228.747 129.926 225.709 129.507C225.225 129.441 224.688 129.192 224.348 128.864C222.043 126.647 220.852 123.958 221.192 120.704C221.428 118.435 221.925 116.178 221.873 113.922C221.768 109.855 222.632 106.024 223.955 102.259C225.055 99.0979 227.097 96.6709 229.978 94.9262C230.62 94.5326 231.012 93.7324 231.588 93.1945C234.482 90.5183 243.451 89.3114 247.052 90.925C251.15 92.7485 254.11 99.0454 252.368 102.404C251.478 104.122 250.26 105.801 248.794 107.048C246.411 109.068 243.713 110.721 241.16 112.531C240.754 112.82 240.387 113.187 239.733 113.738C240.754 115.05 241.671 116.283 242.653 117.451C245.559 120.875 248.597 124.207 251.36 127.749C252.329 128.995 252.63 130.753 253.18 132.117C250.221 135.2 248.217 135.502 245.442 132.944C241.697 129.467 238.188 125.715 234.587 122.082C234.155 121.662 233.697 121.281 232.623 120.311ZM232.806 105.736C234.063 105.369 234.901 105.342 235.464 104.923C237.769 103.191 240.636 102.141 242.666 99.4914C237.454 99.4914 234.587 101.197 232.806 105.736Z" fill="black"/>
<path d="M164.522 104.293C168.005 105.67 171.148 105.919 174.631 105.605C174.578 104.673 174.513 103.991 174.513 103.296C174.5 101.538 174.487 99.78 174.552 98.0221C174.605 96.3298 175.705 95.3459 177.158 94.8343C178.585 94.3227 179.711 95.0442 180.85 95.9625C184.307 98.7698 184.229 102.679 184.333 106.562C184.346 107.179 183.993 107.966 184.255 108.399C185.747 110.773 184.49 112.505 183.495 114.683C181.649 118.749 181.715 123.249 182.094 127.67C182.16 128.392 182.33 129.139 182.238 129.835C181.924 132.143 179.62 133.245 177.564 132.196C175.862 131.33 175.024 129.808 174.264 128.169C172.902 125.217 172.902 122.082 172.916 118.933C172.929 116.257 172.916 116.204 170.336 115.68C168.909 115.391 167.442 115.194 165.989 115.116C163.593 114.997 162.991 115.522 162.65 117.805C162.585 118.212 162.598 118.644 162.598 119.064C162.585 123.039 162.545 127.001 162.585 130.976C162.598 132.694 162.087 134.059 160.516 134.885C159.062 135.646 157.622 135.528 156.313 133.928C155.095 132.432 153.969 130.648 153.484 128.811C152.921 126.739 152.791 124.417 153.039 122.278C153.812 115.312 154.977 108.399 155.724 101.433C156.025 98.5599 155.815 95.582 155.501 92.6828C155.305 90.8725 155.619 89.377 156.627 87.947C157.805 86.2941 159.233 85.9793 160.948 87.1206C163.527 88.826 165.177 91.148 165.112 94.3882C165.072 95.9625 164.915 97.5236 164.824 99.0847C164.706 100.751 164.627 102.404 164.522 104.293Z" fill="black"/>
<path d="M395.024 39.9465C392.288 39.343 389.865 38.8052 386.985 38.1755C386.736 39.9858 386.592 41.5076 386.317 42.99C386.081 44.3149 385.95 45.7318 385.348 46.8862C383.96 49.5624 380.922 49.9428 378.814 47.7914C377.321 46.2565 376.562 44.5117 376.929 42.1504C377.596 37.9131 377.858 33.6233 378.356 29.3598C378.971 24.1649 379.626 18.983 380.32 13.8012C380.726 10.7315 381.944 9.03917 383.816 8.80303C385.597 8.58002 387.26 10.0755 388.215 13.0141C388.569 14.0767 388.752 15.2705 388.674 16.3856C388.451 19.7177 388.006 23.0367 387.796 26.3819C387.757 27.0641 388.189 28.271 388.674 28.4284C391.109 29.2286 393.571 30.1863 396.556 29.9108C397.211 25.6997 397.8 21.5805 398.533 17.4875C398.874 15.546 399.214 13.5126 400.078 11.7809C401.453 8.98669 403.993 8.90798 405.656 11.571C406.442 12.8304 406.953 14.4702 406.992 15.9526C407.044 18.2353 406.573 20.531 406.363 22.8136C405.971 26.9722 405.591 31.1308 405.198 35.2894C404.936 37.9918 404.622 40.6942 404.386 43.3967C404.216 45.2595 404.124 47.1223 404.033 48.9852C403.941 50.9398 402.723 52.1336 401.113 52.6846C399.319 53.3012 397.879 52.3566 396.844 50.8349C395.522 48.8802 394.749 46.8075 395.011 44.3674C395.155 43.0424 395.024 41.6781 395.024 39.9465Z" fill="black"/>
<path d="M345.87 29.2939C347.062 29.5169 348.057 29.9367 348.974 29.8187C351.854 29.4382 354.748 29.0053 357.563 28.2969C360.902 27.4573 362.002 27.7984 363.874 30.6058C365.432 32.9278 365.734 35.2629 365.275 38.044C364.529 42.5568 364.202 47.1352 363.796 51.7004C363.639 53.4452 363.089 54.757 361.295 55.2162C359.841 55.5835 357.223 54.3897 356.686 52.7237C356.018 50.6903 355.691 48.4995 355.52 46.3612C355.403 44.9312 355.887 43.462 355.992 42.0058C356.057 41.1269 355.9 40.2479 355.874 39.6707C352.679 39.6707 349.877 39.7232 347.088 39.6576C339.284 39.5002 333.85 32.4817 337.307 24.873C340.829 17.0937 346.446 11.2034 353.91 7.11046C355.638 6.16592 357.432 5.27386 359.278 4.59169C362.08 3.55533 363.22 3.97512 364.738 6.54636C365.354 7.59584 365.773 8.8421 365.982 10.0359C366.283 11.8463 365.092 13.368 362.735 13.9846C359.409 14.8504 356.424 16.3722 354.015 18.7073C351.409 21.2391 349.157 24.1252 346.826 26.9195C346.394 27.418 346.289 28.2051 345.87 29.2939Z" fill="black"/>
<path d="M424.865 18.1035C423.503 18.1035 422.154 18.2084 420.832 18.0904C416.956 17.7362 414.508 13.5514 416.026 9.96999C416.904 7.91038 418.279 7.16262 420.439 7.29381C427.418 7.73984 434.397 8.10716 441.376 8.54007C443.144 8.64502 444.911 8.8418 446.679 9.01234C449.363 9.26159 452.073 9.41901 454.732 9.81257C456.316 10.0487 458.044 10.1537 458.66 12.292C459.642 15.729 458.424 17.9198 454.836 18.1035C450.45 18.3265 446.05 18.2084 441.651 18.2347C439.661 18.2478 437.67 18.274 435.68 18.274C434.227 18.274 433.402 19.0874 433.651 20.4255C434.58 25.358 432.564 29.9102 431.975 34.6329C431.621 37.5321 430.927 40.3526 431.556 43.3436C431.817 44.5636 431.464 46.0854 430.94 47.2791C430.089 49.2469 427.929 50.0996 425.978 49.6274C423.149 48.9321 421.526 47.4497 421.5 45.1408C421.473 42.95 421.487 40.6936 421.984 38.5815C423.464 32.2453 424.537 25.8566 424.969 19.3629C424.996 19.048 424.93 18.7463 424.865 18.1035Z" fill="black"/>
<path d="M109.817 42.6352C110.485 40.9429 111.362 39.29 111.794 37.5321C113.693 29.7791 116.495 22.354 119.441 14.9682C119.755 14.1942 119.965 13.2759 120.514 12.7381C121.208 12.0559 122.164 11.3475 123.081 11.2294C125.307 10.9146 129.327 14.6927 129.222 16.9754C129.183 17.8937 128.672 19.0743 127.978 19.6253C126.315 20.9372 125.398 22.6557 124.783 24.5448C122.452 31.7075 120.174 38.8833 117.896 46.0592C117.163 48.3418 116.455 50.6376 115.709 52.9202C115.513 53.5105 115.264 54.1009 114.95 54.6387C112.92 58.2201 110.184 58.5743 107.421 55.6095C104.449 52.4217 102.314 48.7091 100.861 44.6424C98.9884 39.4343 97.4172 34.1213 95.571 28.9001C94.9818 27.2472 94.1176 25.6467 93.1094 24.2168C91.7869 22.3277 91.6691 20.3075 91.9833 18.2085C92.2845 16.1489 94.3664 15.165 96.2126 16.1489C99.1979 17.7362 101.149 20.0582 102.196 23.4034C104.056 29.3855 106.242 35.2495 108.311 41.166C108.481 41.6382 108.769 42.0711 108.992 42.5303C109.267 42.5434 109.542 42.5828 109.817 42.6352Z" fill="black"/>
<path d="M332.75 16.8574C332.253 22.4983 331.808 26.9586 331.493 31.4452C331.245 35.0921 331.153 38.7522 331.009 42.4123C330.983 43.1469 331.022 43.8816 330.957 44.6031C330.786 46.5578 329.975 47.6991 328.665 47.9221C327.317 48.1582 325.182 47.0431 324.554 45.7444C323.284 43.0682 322.511 40.2477 322.564 37.2829C322.668 32.0618 322.93 26.8537 323.061 21.6325C323.1 20.0714 322.917 18.5103 322.825 16.9492C322.708 14.9158 322.904 12.9611 324.226 11.3082C325.405 9.85205 327.33 9.3929 328.665 10.6129C330.852 12.5676 332.868 14.7453 332.75 16.8574Z" fill="black"/>
</g>
<defs>
<clipPath id="clip0">
<rect width="459" height="136" fill="white"/>
</clipPath>
</defs>
</svg>
