<svg fill="none" height="136" viewBox="0 0 459 136" width="459" xmlns="http://www.w3.org/2000/svg" xmlns:xlink="http://www.w3.org/1999/xlink"><clipPath id="a"><path d="m0 0h459v136h-459z"/></clipPath><g clip-path="url(#a)" fill="#000"><path d="m9.57101 29.9361h22.36409c.2749-1.4824.6547-2.8599.7463-4.2635.3143-4.8014.4976-9.6291.7725-14.4304.1833-3.04355.6285-3.69948 3.4437-5.3393 1.0868.76088 2.2783 1.57423 3.4567 2.41382 1.5844 1.12819 2.2783 2.70238 2.1081 4.63088-.2095 2.4007-.4452 4.8014-.7201 7.1889-.3143 2.7024-.8249 5.3786-.969 8.0811-.0654 1.2856.1571 2.8204.838 3.8568 1.0868 1.6529.7595 3.0829-.1833 4.3554-1.1784 1.5873-1.2701 3.3452-1.0999 5.0768.5631 5.6148 1.3094 11.2164 1.9641 16.8311.1571 1.3513.3273 2.7156.3142 4.0668-.0523 3.3977-2.5401 4.8014-5.5517 3.1616-2.1605-1.1676-3.4044-2.9124-3.5746-5.4967-.3928-5.9427-.9034-11.8854-1.4272-17.815-.0786-.9183-.4321-1.7972-.7201-2.9517-6.4814.1968-12.845-.6034-19.1954.2886-1.6891.2362-2.29142 1.3119-2.18668 2.873.18328 2.7155.18328 5.4704.62848 8.1466.7726 4.6309.9035 9.3798 2.8152 13.8007.7332 1.6792-.0131 3.6601-1.2439 4.5259-1.5582 1.0889-3.15562.997-4.96255-.0656-1.95096-1.1413-2.98536-2.6499-3.1294-5.0244-.41899-6.7823-1.17843-13.5645-1.51887-20.3468-.49756-9.8258-.70706-19.6779-1.16534-29.5168-.14403-2.9123-.785618-5.81149-1.07368-8.7238-.183312-1.81036-.995122-4.14547 1.15225-5.063765 1.79383-.773994 3.39127.865825 4.47805 2.190795.95584 1.15443 1.68908 2.66307 1.99024 4.13235 1.17843 5.77212 1.4665 11.63612 1.30937 17.52642-.05237 1.8366.2095 3.6863.34044 5.8902z"/><path d="m165.216 43.6721c.852 1.6005 1.807 2.9779 2.344 4.4997.773 2.1646-.235 4.6046-2.33 5.9427-3.955 2.5319-8.472 3.647-13.003 4.2504-4.216.5641-8.563.6822-12.779-.4854-2.619-.7346-5.382-1.5217-6.979-3.87-1.65-2.44-2.593-5.2605-2.239-8.3171.694-6.0214 1.44-12.0297 2.121-18.0511.367-3.2928.707-6.5987.917-9.9177.091-1.5479.746-2.6761 2.016-3.3058 3.261-1.6136 6.482-3.4502 9.925-4.53905 5.709-1.79724 11.627-2.57123 17.651-2.04649 3.024.26237 5.63 1.56111 7.961 3.37144 1.505 1.1807 2.461 2.8074 2.5 4.8801-1.951 1.7579-4.334 1.7448-6.546 1.3119-5.605-1.102-11.025-.1181-16.407 1.1806-3.313.8003-6.678 1.6661-9.427 3.8438.379 6.7823.838 6.4543 6.206 6.1526 4.046-.223 8.053-1.0364 12.072-1.5611.93-.1181 1.873-.2099 2.803-.1968 2.815.0394 5.342 2.3351 5.303 5.0375-.014.8134-.616 1.8235-1.257 2.3745-.838.7084-1.951 1.2856-3.038 1.5086-4.491.9314-9.009 1.7841-13.539 2.5319-2.357.3935-4.766.5116-7.162.7215-1.598.1443-2.449.9839-2.632 2.5712-.04.3149-.17.6035-.223.9183-.681 4.4866.472 6.0608 5.002 6.2314 7.11.2361 13.853-1.3644 20.74-5.0376z"/><path d="m195.253 36.4826c1.087 1.0363 1.611 1.7316 2.292 2.1514 5.08 3.096 10.2 6.1133 15.974 7.8187 2.082.6165 4.085 1.5873 5.971 2.6762 1.925 1.115 2.409 3.1878 2.108 5.2343-.275 1.9809-1.886 2.991-3.692 3.3845-2.423.5248-4.727.0919-6.914-1.2331-2.134-1.2987-4.413-2.3482-6.586-3.5945-4.072-2.3351-8.302-4.4734-12.099-7.2021-2.553-1.8234-4.478-4.5127-6.808-6.9397-1.31 1.9285-.891 4.421-1.493 6.6511-.262.997-.288 2.0859-.655 3.0304-1.021 2.5844-5.146 3.6601-7.083 1.6923-1.951-1.9678-3.195-4.316-2.344-7.3464.563-1.994.746-4.1061 1.27-6.1263.929-3.6339 2.029-7.2284 2.972-10.8622.524-1.994.943-4.0143 1.323-6.0477.222-1.22.157-2.5056.432-3.7125.379-1.6398 1.741-2.7287 3.142-2.2433 2.03.6953 3.077-.4067 4.373-1.548 4.112-3.67316 8.616-6.62483 14.338-7.11022 3.614-.31484 6.534.74776 8.603 3.90933 2.055 3.14849 2.553 6.25759.589 9.69459-2.776 4.8801-6.364 9.0518-10.475 12.8037-1.663 1.5349-3.3 3.096-5.238 4.9195zm7.66-21.8424c-1.152 0-1.781-.1312-2.33.0262-3.915 1.1151-7.176 3.3846-9.729 6.4544-1.362 1.6267-2.121 3.7912-2.985 5.7852-.249.5641.078 1.3775.209 2.6893 5.643-4.762 11.457-8.2778 14.835-14.9551z"/><path d="m285.901 10.0752c.314-2.40069 1.964-3.42393 3.824-4.28976 4.844-2.25639 9.807-3.81749 15.097-1.71853 3.967 1.56111 7.45 3.73879 9.191 7.98919.93 2.2564.865 4.3423-.602 6.2182-1.152 1.4693-2.396 3.0304-3.941 4.0012-3.797 2.3744-7.791 4.434-11.719 6.5986-1.545.8527-3.129 1.6136-4.819 2.4925.668 1.7973 2.226 2.2958 3.536 2.991 3.234 1.7186 6.52 3.3322 9.794 4.9589 2.946 1.4692 5.565 3.3583 7.411 6.1132.746 1.102 1.414 2.3482 1.741 3.6207.629 2.4401-2.265 4.9851-4.74 4.198-.864-.2755-1.715-.8265-2.356-1.4824-2.082-2.1121-4.505-3.6732-7.123-5.0376-5.264-2.7549-10.803-5.0506-15.399-9.1698-1.257.9839-1.388 2.217-1.283 3.4501.21 2.4007.459 4.8014.812 7.1759.249 1.6792-.157 3.1353-1.218 4.3816-1.545 1.8103-3.443 1.8891-5.198.3148-1.898-1.6791-3.011-3.7125-3.077-6.2837-.157-5.3524-.026-10.6786 1.165-15.926 1.14-4.9981 2.344-9.9832 3.51-14.9814.091-.4066.183-.8133.301-1.22 1.008-3.4895 1.178-3.6469 5.093-4.3947zm18.79 3.8437c-3.261-1.8759-6.023-1.2593-8.76-.0131-1.964.8921-3.889 1.8629-6.049 2.8992-.459 1.6923-.982 3.6601-1.716 6.3625 6.325-2.4138 12.007-4.2766 16.525-9.2486z"/><path d="m264.938 100.396c-.916-1.1544-1.781-2.0727-2.422-3.1222-1.912-3.1747-.013-6.9134 3.64-7.5431 9.1-1.5743 18.279-2.099 27.497-1.9285 1.977.0394 3.941.5117 5.905.551 2.959.0656 4.255 1.8235 4.923 4.3685.157.6034.21 1.22.301 1.7579-1.807 2.0465-3.954 2.4794-6.52 2.5318-5.945.1181-11.889.5904-17.834.9971-3.116.2099-6.219.5509-9.336.892-.602.0656-1.165.3542-2.016.6297.654 2.5848 2.213 4.5918 3.587 6.5728.524.747 2.292.957 3.444.865 3.116-.262 6.207-.826 9.31-1.246 1.309-.17 2.749-.774 3.771.617 1.087 1.508.956 4.027-.079 5.575-1.191 1.771-2.907 2.742-4.897 3.135-3.889.761-7.817 1.339-11.719 2.06-.785.144-1.689.407-2.213.945-1.23 1.272-.523 3.463 1.244 3.883 1.31.315 2.698.498 4.033.393 2.802-.21 5.591-.682 8.38-.984.93-.105 1.912-.17 2.802.027 2.645.564 3.588 3.345 1.689 5.26-2.055 2.073-4.268 3.857-7.385 4.434-4.15.774-8.249 1.102-12.439.722-3.352-.302-5.879-1.745-7.712-4.67-1.414-2.257-.943-4.605-.956-6.966-.013-1.745.275-3.542-.013-5.235-.471-2.742.04-5.011 1.611-7.359 1.453-2.191 2.317-4.815 3.404-7.163z"/><path d="m197.558 108.163c3.247 0 6.141-.026 9.022.013 1.348.013 2.723.053 4.045.276 1.873.328 3.627 2.243 3.902 4.04.21 1.312-1.099 3.332-2.933 4.028-1.44.551-2.998.826-4.53 1.075-2.566.42-5.172.63-7.738 1.089-4.531.814-5.081 1.784-3.85 6.756 1.074.21 2.318.748 3.483.617 3.928-.446 7.935-.446 11.719-1.915 1.191-.46 2.645-1.286 3.758.131 1.204 1.521 1.964 3.279 1.244 5.26-.786 2.165-2.174 3.792-4.465 4.5-5.054 1.561-10.227 2.44-15.464 1.745-2.396-.315-4.818-1.43-6.927-2.69-2.173-1.285-2.998-3.738-3.221-6.205-.458-4.932.144-9.825 1.231-14.627.747-3.266 1.65-6.454 1.388-9.891-.222-2.9388 2.003-6.0348 4.635-6.8088 6.744-1.9809 13.657-2.9516 20.675-3.1747 3.064-.1049 4.91 2.099 6.953 3.7913.877.7215.327 1.8497-.55 2.3876-2.029 1.2331-3.967 2.5576-6.521 2.8336-3.731.407-7.437 1.168-11.103 2.02-2.252.512-4.229 1.666-4.753 4.749z"/><path d="m87.5445 34.8039c.3798 5.5229-.288 10.8753-3.0377 15.7685-3.3127 5.9165-8.1836 9.5241-15.1625 9.2748-6.848-.2492-14.0758-6.2575-15.7125-12.9349-1.8986-7.7137-.7201-15.1913 2.3831-22.354 1.2963-2.9779 3.221-5.6672 6.154-7.3201 1.1261-.6428 2.4747-1.1545 3.7579-1.2201 2.8021-.1705 5.591-.1312 8.3276-1.0626 2.1867-.7477 4.3079-.2623 6.141 1.3119.707.6166 1.4927 1.1413 2.3045 1.6267 2.0033 1.1807 3.2734 2.8992 3.8102 5.1293.3928 1.6267.8773 3.2534 1.0082 4.9064.1572 2.2564.0262 4.5652.0262 6.8741zm-26.3052 5.4967c-.2095 2.4269-.0524 4.8014 1.0213 7.0446 1.0344 2.1646 2.6842 3.319 5.172 3.4109 4.7006.1574 7.6336-2.6631 9.8596-6.1526 3.4829-5.4442 3.5484-11.6493 2.8675-17.8019-.3797-3.3452-1.8069-3.87-5.0018-2.5319-2.6188 1.102-5.1327 2.3351-6.9135 4.6833-.3666.4854-.8773 1.102-1.401 1.1807-4.4781.6953-4.8971 4.2242-5.4601 7.6612-.144.8134-.1047 1.6661-.144 2.5057z"/><path d="m232.623 120.311c-.197 1.797-.327 2.807-.419 3.817-.288 3.135-3.457 5.798-6.495 5.379-.484-.066-1.021-.315-1.361-.643-2.305-2.217-3.496-4.906-3.156-8.16.236-2.269.733-4.526.681-6.782-.105-4.067.759-7.898 2.082-11.663 1.1-3.1611 3.142-5.5881 6.023-7.3328.642-.3936 1.034-1.1938 1.61-1.7317 2.894-2.6762 11.863-3.8831 15.464-2.2695 4.098 1.8235 7.058 8.1204 5.316 11.479-.89 1.718-2.108 3.397-3.574 4.644-2.383 2.02-5.081 3.673-7.634 5.483-.406.289-.773.656-1.427 1.207 1.021 1.312 1.938 2.545 2.92 3.713 2.906 3.424 5.944 6.756 8.707 10.298.969 1.246 1.27 3.004 1.82 4.368-2.959 3.083-4.963 3.385-7.738.827-3.745-3.477-7.254-7.229-10.855-10.862-.432-.42-.89-.801-1.964-1.771zm.183-14.575c1.257-.367 2.095-.394 2.658-.813 2.305-1.732 5.172-2.782 7.202-5.4316-5.212 0-8.079 1.7056-9.86 6.2446z"/><path d="m164.522 104.293c3.483 1.377 6.626 1.626 10.109 1.312-.053-.932-.118-1.614-.118-2.309-.013-1.758-.026-3.516.039-5.2739.053-1.6923 1.153-2.6762 2.606-3.1878 1.427-.5116 2.553.2099 3.692 1.1282 3.457 2.8073 3.379 6.7165 3.483 10.5995.013.617-.34 1.404-.078 1.837 1.492 2.374.235 4.106-.76 6.284-1.846 4.066-1.78 8.566-1.401 12.987.066.722.236 1.469.144 2.165-.314 2.308-2.618 3.41-4.674 2.361-1.702-.866-2.54-2.388-3.3-4.027-1.362-2.952-1.362-6.087-1.348-9.236.013-2.676 0-2.729-2.58-3.253-1.427-.289-2.894-.486-4.347-.564-2.396-.119-2.998.406-3.339 2.689-.065.407-.052.839-.052 1.259-.013 3.975-.053 7.937-.013 11.912.013 1.718-.498 3.083-2.069 3.909-1.454.761-2.894.643-4.203-.957-1.218-1.496-2.344-3.28-2.829-5.117-.563-2.072-.693-4.394-.445-6.533.773-6.966 1.938-13.879 2.685-20.845.301-2.8731.091-5.851-.223-8.7502-.196-1.8103.118-3.3058 1.126-4.7358 1.178-1.6529 2.606-1.9677 4.321-.8264 2.579 1.7054 4.229 4.0274 4.164 7.2676-.04 1.5743-.197 3.1354-.288 4.6965-.118 1.6663-.197 3.3193-.302 5.2083z"/><path d="m395.024 39.9465c-2.736-.6035-5.159-1.1413-8.039-1.771-.249 1.8103-.393 3.3321-.668 4.8145-.236 1.3249-.367 2.7418-.969 3.8962-1.388 2.6762-4.426 3.0566-6.534.9052-1.493-1.5349-2.252-3.2797-1.885-5.641.667-4.2373.929-8.5271 1.427-12.7906.615-5.1949 1.27-10.3768 1.964-15.5586.406-3.0697 1.624-4.76203 3.496-4.99817 1.781-.22301 3.444 1.27247 4.399 4.21107.354 1.0626.537 2.2564.459 3.3715-.223 3.3321-.668 6.6511-.878 9.9963-.039.6822.393 1.8891.878 2.0465 2.435.8002 4.897 1.7579 7.882 1.4824.655-4.2111 1.244-8.3303 1.977-12.4233.341-1.9415.681-3.9749 1.545-5.7066 1.375-2.79421 3.915-2.87292 5.578-.2099.786 1.2594 1.297 2.8992 1.336 4.3816.052 2.2827-.419 4.5784-.629 6.861-.392 4.1586-.772 8.3172-1.165 12.4758-.262 2.7024-.576 5.4048-.812 8.1073-.17 1.8628-.262 3.7256-.353 5.5885-.092 1.9546-1.31 3.1484-2.92 3.6994-1.794.6166-3.234-.328-4.269-1.8497-1.322-1.9547-2.095-4.0274-1.833-6.4675.144-1.325.013-2.6893.013-4.4209z"/><path d="m345.87 29.2939c1.192.223 2.187.6428 3.104.5248 2.88-.3805 5.774-.8134 8.589-1.5218 3.339-.8396 4.439-.4985 6.311 2.3089 1.558 2.322 1.86 4.6571 1.401 7.4382-.746 4.5128-1.073 9.0912-1.479 13.6564-.157 1.7448-.707 3.0566-2.501 3.5158-1.454.3673-4.072-.8265-4.609-2.4925-.668-2.0334-.995-4.2242-1.166-6.3625-.117-1.43.367-2.8992.472-4.3554.065-.8789-.092-1.7579-.118-2.3351-3.195 0-5.997.0525-8.786-.0131-7.804-.1574-13.238-7.1759-9.781-14.7846 3.522-7.7793 9.139-13.6696 16.603-17.76254 1.728-.94454 3.522-1.8366 5.368-2.51877 2.802-1.03636 3.942-.61657 5.46 1.95467.616 1.04948 1.035 2.29574 1.244 3.48954.301 1.8104-.89 3.3321-3.247 3.9487-3.326.8658-6.311 2.3876-8.72 4.7227-2.606 2.5318-4.858 5.4179-7.189 8.2122-.432.4985-.537 1.2856-.956 2.3744z"/><path d="m424.865 18.1035c-1.362 0-2.711.1049-4.033-.0131-3.876-.3542-6.324-4.539-4.806-8.12041.878-2.05961 2.253-2.80737 4.413-2.67618 6.979.44603 13.958.81335 20.937 1.24626 1.768.10495 3.535.30173 5.303.47227 2.684.24925 5.394.40667 8.053.80023 1.584.23613 3.312.34113 3.928 2.47943.982 3.437-.236 5.6278-3.824 5.8115-4.386.223-8.786.1049-13.185.1312-1.99.0131-3.981.0393-5.971.0393-1.453 0-2.278.8134-2.029 2.1515.929 4.9325-1.087 9.4847-1.676 14.2074-.354 2.8992-1.048 5.7197-.419 8.7107.261 1.22-.092 2.7418-.616 3.9355-.851 1.9678-3.011 2.8205-4.962 2.3483-2.829-.6953-4.452-2.1777-4.478-4.4866-.027-2.1908-.013-4.4472.484-6.5593 1.48-6.3362 2.553-12.7249 2.985-19.2186.027-.3149-.039-.6166-.104-1.2594z"/><path d="m109.817 42.6352c.668-1.6923 1.545-3.3452 1.977-5.1031 1.899-7.753 4.701-15.1781 7.647-22.5639.314-.774.524-1.6923 1.073-2.2301.694-.6822 1.65-1.3906 2.567-1.5087 2.226-.3148 6.246 3.4633 6.141 5.746-.039.9183-.55 2.0989-1.244 2.6499-1.663 1.3119-2.58 3.0304-3.195 4.9195-2.331 7.1627-4.609 14.3385-6.887 21.5144-.733 2.2826-1.441 4.5784-2.187 6.861-.196.5903-.445 1.1807-.759 1.7185-2.03 3.5814-4.766 3.9356-7.529.9708-2.972-3.1878-5.107-6.9004-6.56-10.9671-1.8726-5.2081-3.4438-10.5211-5.29-15.7423-.5892-1.6529-1.4534-3.2534-2.4616-4.6833-1.3225-1.8891-1.4403-3.9093-1.1261-6.0083.3012-2.0596 2.3831-3.0435 4.2293-2.0596 2.9853 1.5873 4.9364 3.9093 5.9834 7.2545 1.86 5.9821 4.046 11.8461 6.115 17.7626.17.4722.458.9051.681 1.3643.275.0131.55.0525.825.1049z"/><path d="m332.75 16.8574c-.497 5.6409-.942 10.1012-1.257 14.5878-.248 3.6469-.34 7.307-.484 10.9671-.026.7346.013 1.4693-.052 2.1908-.171 1.9547-.982 3.096-2.292 3.319-1.348.2361-3.483-.879-4.111-2.1777-1.27-2.6762-2.043-5.4967-1.99-8.4615.104-5.2211.366-10.4292.497-15.6504.039-1.5611-.144-3.1222-.236-4.6833-.117-2.0334.079-3.9881 1.401-5.641 1.179-1.45615 3.104-1.9153 4.439-.6953 2.187 1.9547 4.203 4.1324 4.085 6.2445z"/></g></svg>