<svg enable-background="new 0 0 987.01 535.05" viewBox="0 0 987.01 535.05" xmlns="http://www.w3.org/2000/svg"><g fill="#010202"><path d="m111.29 328.06h-20.72v-145.03l20.72-25.2z"/><path d="m846.24 328.06h-20.72v-170.25h91.77v4.04h-71.05z"/><path d="m915.65 328.06h-61.23v-3.82h61.23z"/><path d="m904.19 244.98h-49.91v-3.76h49.91z"/><path d="m794.04 328.06h-52.92v-3.82h52.92z"/><path d="m732.97 328.06h-20.73v-144.96l.39-.46 20.34-24.83z"/><path d="m267.85 279.66-4.01-4.02v-.17l.06-118.05h3.95z"/><path d="m267.85 295.77v14.14c.01 2.41 0 4.88 0 7.44l-.01 10.71-3.68-4.21c-19.73-22.55-39.67-43.63-58.97-64.03-18.15-19.19-36.87-38.98-55.47-60.04v128.27h-7.35v-170.63l6.67 7.5c1.96 2.21 3.82 4.29 5.66 6.39 16.16 17.56 29.42 31.39 43.45 46.03 10.95 11.42 22.27 23.23 35.38 37.26 9.7 11.07 20.9 23.87 32.02 36.65l.75.87 1.54 1.8z"/><path d="m376.64 320.99c-10.43 4.81-20.89 7.21-31.32 7.21-14.2 0-28.35-4.44-42.34-13.32l-.35-.23c-2.32-1.67-2.54-1.9-2.63-1.99l-.93-.88 5.86-7.12c3.1 2.15 4.3 2.51 7.49 4.17 1.57.82 3.18 1.65 4.83 2.58 9.18 5.13 18.11 7.83 26.95 8.13h.02c21.76.15 29.38-10.69 30.89-13.29.19-.33.29-.53.3-.55.83-1.61 1.59-3.55 2.46-6.07 3.63-10.58 1.13-20.43-7.66-30.11-6.45-7.1-14.5-12.63-22.28-17.98-1.54-1.06-3.08-2.11-4.6-3.18-1.94-1.35-3.87-2.7-5.82-4.05-7.75-5.38-15.76-10.93-23.26-16.91-9.45-7.53-14.58-16.75-15.25-27.4-1.01-16 12.25-30.55 24.99-37.29 1.9-.97 3.8-1.8 5.69-2.5.01-.01.03-.01.04-.01 22.09-8.18 43.21.93 50.63 4.81.97.48 1.87.97 2.64 1.48.02.01.04.03.06.04.01.01.02.01.03.02.02.01.04.03.05.03 0 0 .01 0 .01.01.01 0 .28.18.28.18l-6.07 7.37s.25.12-1.58-.74c-4.01-1.88-7.8-3.65-11.8-4.84-13.5-4.02-25.9-2.19-36.86 5.43-5.49 3.82-8.95 9.18-9.76 15.1-.81 5.99 1.13 12.17 5.48 17.4 5.3 6.38 12.07 10.68 19.24 15.24 1.19.75 2.37 1.51 3.55 2.27 2.65 1.72 5.31 3.42 7.97 5.12 8.11 5.19 16.5 10.56 24.45 16.29 10 7.22 16.71 15.97 19.94 26.03 6.57 20.35-2.21 40.73-21.34 49.55z"/><path d="m530.25 157.32h-99v4.18c5.54 0 10.98.01 16.44.01 7.45.01 14.91.01 22.69.01v166.54h20.73v-166.76h39.14z"/><path d="m681.15 157.42-48.47 82.89v-7.21l.06-.1 44.17-75.58z"/><path d="m608.9 328.06v-77.41l-47.56-93.36h19.78l45.18 88.25.06 82.52z"/></g><path d="m315.35 420.99c.6 2.98 1.88 5.13 3.85 6.45s4.92 1.98 8.83 1.98c2.01 0 3.68-.22 5-.67s2.37-1.04 3.16-1.79c.78-.74 1.34-1.62 1.68-2.63.33-1.01.5-2.07.5-3.18 0-.93-.1-1.82-.31-2.65-.21-.84-.6-1.6-1.17-2.29-.58-.69-1.41-1.29-2.49-1.82-1.08-.52-2.5-.93-4.25-1.23l-4.97-.84c-1.94-.34-3.66-.76-5.17-1.28s-2.78-1.2-3.83-2.04c-1.04-.84-1.83-1.89-2.37-3.16s-.81-2.81-.81-4.64c0-1.82.38-3.41 1.15-4.75.76-1.34 1.79-2.45 3.07-3.32s2.79-1.53 4.52-1.96 3.57-.64 5.5-.64c2.49 0 4.58.27 6.26.81s3.05 1.26 4.13 2.15 1.92 1.91 2.51 3.04c.6 1.14 1.06 2.28 1.4 3.44l-3.13.89c-.37-1.15-.81-2.19-1.31-3.1s-1.17-1.68-2.01-2.32c-.84-.63-1.89-1.12-3.16-1.45-1.27-.34-2.81-.5-4.64-.5-2.05 0-3.76.2-5.14.59s-2.5.93-3.35 1.62c-.86.69-1.47 1.51-1.84 2.46s-.56 1.96-.56 3.04c0 1.12.13 2.09.39 2.9.26.82.71 1.53 1.34 2.12.63.6 1.48 1.1 2.54 1.51s2.39.76 3.99 1.06l5.64 1.01c2.01.37 3.75.86 5.22 1.45 1.47.6 2.69 1.35 3.66 2.26s1.68 2 2.15 3.27.7 2.76.7 4.47c0 1.53-.3 2.97-.89 4.33-.6 1.36-1.48 2.54-2.65 3.55s-2.63 1.81-4.38 2.4c-1.75.6-3.8.89-6.14.89-2.16 0-4.16-.21-6-.61-1.84-.41-3.46-1.07-4.86-1.98s-2.54-2.09-3.44-3.55c-.89-1.45-1.45-3.22-1.68-5.31h3.36z"/><path d="m358.31 391.56h3.41v17.65h22.51v-17.65h3.41v39.88h-3.41v-19.05h-22.51v19.05h-3.41z"/><path d="m421.76 432.45c-2.57 0-4.96-.44-7.18-1.31s-4.13-2.19-5.73-3.94-2.86-3.93-3.77-6.54-1.37-5.62-1.37-9.05.46-6.45 1.37-9.08 2.18-4.82 3.8-6.59 3.53-3.11 5.73-4.02 4.58-1.37 7.15-1.37 4.95.44 7.15 1.31c2.2.88 4.09 2.19 5.67 3.94s2.83 3.92 3.74 6.51 1.37 5.6 1.37 9.02c0 3.46-.45 6.51-1.34 9.13-.89 2.63-2.13 4.82-3.71 6.59s-3.47 3.11-5.67 4.02c-2.2.92-4.6 1.38-7.21 1.38zm0-3.02c2.35 0 4.41-.44 6.2-1.31s3.29-2.1 4.5-3.69c1.21-1.58 2.12-3.47 2.74-5.67.61-2.2.92-4.62.92-7.26s-.32-5.06-.95-7.26-1.56-4.09-2.76-5.67c-1.21-1.58-2.71-2.81-4.5-3.69-1.79-.87-3.84-1.31-6.14-1.31-2.42 0-4.53.44-6.34 1.31-1.81.88-3.31 2.1-4.5 3.69-1.19 1.58-2.09 3.47-2.71 5.67-.61 2.2-.92 4.62-.92 7.26s.3 5.06.89 7.26 1.5 4.09 2.71 5.67 2.72 2.81 4.52 3.69c1.81.87 3.92 1.31 6.34 1.31z"/><path d="m451.37 391.56h3.8l9.38 35.64 9.89-35.47h3.69l9.61 35.41 9.5-35.58h3.58l-11.23 39.88h-3.97l-9.62-35.47-9.61 35.47h-3.74z"/><path d="m514.49 391.56h12.51c2.87 0 5.22.32 7.07.95 1.84.63 3.3 1.45 4.36 2.46s1.79 2.16 2.18 3.46.59 2.63.59 3.97c0 2.53-.57 4.69-1.7 6.48-1.14 1.79-2.99 3.15-5.56 4.08l8.6 18.49h-3.97l-7.99-17.71c-.63.07-1.28.14-1.96.2-.67.06-1.38.08-2.12.08h-8.66v17.43h-3.35zm12.96 19.43c2.01 0 3.68-.2 5-.59s2.37-.96 3.16-1.7c.78-.74 1.33-1.64 1.65-2.68s.47-2.23.47-3.57c0-1.3-.17-2.45-.5-3.44s-.92-1.82-1.76-2.49-1.96-1.17-3.35-1.51c-1.4-.34-3.16-.5-5.28-.5h-8.99v16.48z"/><path d="m573.59 432.45c-2.57 0-4.96-.44-7.18-1.31s-4.13-2.19-5.73-3.94-2.86-3.93-3.77-6.54-1.37-5.62-1.37-9.05.46-6.45 1.37-9.08 2.18-4.82 3.8-6.59 3.53-3.11 5.73-4.02 4.58-1.37 7.15-1.37 4.95.44 7.15 1.31c2.2.88 4.09 2.19 5.67 3.94s2.83 3.92 3.74 6.51 1.37 5.6 1.37 9.02c0 3.46-.45 6.51-1.34 9.13-.89 2.63-2.13 4.82-3.71 6.59s-3.47 3.11-5.67 4.02c-2.21.92-4.61 1.38-7.21 1.38zm0-3.02c2.35 0 4.41-.44 6.2-1.31s3.29-2.1 4.5-3.69c1.21-1.58 2.12-3.47 2.74-5.67.61-2.2.92-4.62.92-7.26s-.32-5.06-.95-7.26-1.55-4.09-2.76-5.67-2.71-2.81-4.5-3.69c-1.79-.87-3.84-1.31-6.14-1.31-2.42 0-4.53.44-6.34 1.31-1.81.88-3.31 2.1-4.5 3.69-1.19 1.58-2.09 3.47-2.71 5.67-.61 2.2-.92 4.62-.92 7.26s.3 5.06.89 7.26 1.5 4.09 2.71 5.67 2.72 2.81 4.52 3.69c1.8.87 3.91 1.31 6.34 1.31z"/><path d="m624.19 432.45c-2.57 0-4.96-.44-7.18-1.31s-4.13-2.19-5.73-3.94-2.86-3.93-3.77-6.54-1.37-5.62-1.37-9.05.46-6.45 1.37-9.08 2.18-4.82 3.8-6.59 3.53-3.11 5.73-4.02 4.58-1.37 7.15-1.37 4.95.44 7.15 1.31c2.2.88 4.09 2.19 5.67 3.94s2.83 3.92 3.74 6.51 1.37 5.6 1.37 9.02c0 3.46-.45 6.51-1.34 9.13-.89 2.63-2.13 4.82-3.71 6.59s-3.47 3.11-5.67 4.02c-2.2.92-4.6 1.38-7.21 1.38zm0-3.02c2.35 0 4.41-.44 6.2-1.31s3.29-2.1 4.5-3.69c1.21-1.58 2.12-3.47 2.74-5.67.61-2.2.92-4.62.92-7.26s-.32-5.06-.95-7.26-1.56-4.09-2.76-5.67c-1.21-1.58-2.71-2.81-4.5-3.69-1.79-.87-3.84-1.31-6.14-1.31-2.42 0-4.53.44-6.34 1.31-1.81.88-3.31 2.1-4.5 3.69-1.19 1.58-2.09 3.47-2.71 5.67-.61 2.2-.92 4.62-.92 7.26s.3 5.06.89 7.26 1.5 4.09 2.71 5.67 2.72 2.81 4.52 3.69c1.81.87 3.92 1.31 6.34 1.31z"/><path d="m658.21 391.56h4.41l14.41 35.92 14.64-35.92h4.19v39.88h-3.18v-34.19c-.19.33-.78 1.77-1.79 4.3-.45 1.08-1.01 2.45-1.68 4.11s-1.5 3.69-2.49 6.09-2.15 5.22-3.49 8.46-2.89 6.98-4.64 11.23h-3.24l-13.96-33.96v33.96h-3.18z"/></svg>