<svg enable-background="new 0 0 987.01 535.05" viewBox="0 0 987.01 535.05" xmlns="http://www.w3.org/2000/svg"><g fill="#010202"><path d="m112.53 328.08h-20.68v-144.7l20.68-25.14z"/><path d="m845.8 328.08h-20.68v-169.86h91.56v4.03h-70.88z"/><path d="m915.04 328.08h-61.08v-3.81h61.08z"/><path d="m903.61 245.19h-49.79v-3.75h49.79z"/><path d="m793.71 328.08h-52.79v-3.81h52.79z"/><path d="m732.78 328.08h-20.67v-144.62l.38-.47 20.29-24.77z"/><path d="m268.73 279.79-4-4.01v-.17l.06-117.78h3.94z"/><path d="m268.73 295.87v14.11c.01 2.41 0 4.87 0 7.42l-.01 10.69-3.67-4.2c-19.68-22.49-39.58-43.53-58.83-63.88-18.11-19.15-36.78-38.89-55.34-59.9v127.98h-7.33v-170.26l6.66 7.48c1.96 2.2 3.81 4.28 5.65 6.37 16.12 17.52 29.35 31.32 43.35 45.92 10.92 11.4 22.22 23.18 35.3 37.18 9.68 11.05 20.85 23.82 31.95 36.56l.75.87 1.53 1.79z"/><path d="m377.27 321.02c-10.4 4.79-20.84 7.19-31.25 7.19-14.17 0-28.29-4.43-42.24-13.29l-.35-.23c-2.31-1.67-2.53-1.89-2.63-1.98l-.92-.88 5.85-7.1c3.09 2.14 4.29 2.51 7.47 4.16 1.57.82 3.17 1.65 4.82 2.57 9.16 5.12 18.07 7.81 26.89 8.11h.02c21.71.15 29.31-10.66 30.82-13.26.19-.33.29-.53.3-.55.83-1.6 1.59-3.54 2.45-6.05 3.62-10.56 1.12-20.38-7.64-30.04-6.43-7.09-14.46-12.6-22.23-17.94-1.53-1.06-3.07-2.11-4.59-3.18-1.93-1.35-3.87-2.69-5.8-4.04-7.73-5.36-15.72-10.91-23.21-16.88-9.42-7.51-14.54-16.71-15.22-27.34-1.01-15.96 12.22-30.48 24.94-37.2 1.89-.97 3.79-1.8 5.68-2.5.01-.01.03-.01.04-.01 22.04-8.16 43.12.93 50.52 4.8.97.48 1.87.97 2.64 1.47.02.01.04.03.06.04.01.01.02.01.03.02.02.01.04.03.05.03 0 0 .01 0 .01.01.01 0 .28.18.28.18l-6.05 7.35s.25.12-1.58-.74c-4-1.87-7.78-3.64-11.77-4.83-13.47-4.01-25.84-2.18-36.78 5.42-5.48 3.81-8.93 9.16-9.73 15.07-.81 5.98 1.13 12.14 5.47 17.36 5.29 6.36 12.05 10.66 19.2 15.2 1.18.75 2.37 1.51 3.55 2.27 2.65 1.71 5.3 3.41 7.96 5.11 8.1 5.18 16.47 10.53 24.4 16.26 9.98 7.2 16.67 15.93 19.9 25.97 6.49 20.32-2.28 40.66-21.36 49.45z"/><path d="m530.52 157.73h-98.77v4.17c5.53 0 10.95.01 16.4.01 7.43.01 14.88.01 22.64.01v166.16h20.68v-166.38h39.05z"/><path d="m681.08 157.83-48.35 82.7v-7.19l.05-.1 44.08-75.41z"/><path d="m609 328.08v-77.23l-47.45-93.15h19.73l45.08 88.05.06 82.33z"/></g><path d="m261.99 390.85h13.21c2.98 0 5.43.32 7.35.95 1.91.63 3.42 1.48 4.51 2.55s1.85 2.33 2.27 3.76c.42 1.44.63 2.96.63 4.56 0 1.68-.22 3.29-.66 4.82s-1.22 2.87-2.33 4.02-2.62 2.06-4.54 2.73c-1.91.67-4.36 1-7.35 1h-9.65v16.59h-3.44zm13.15 21.36c2.3 0 4.17-.22 5.63-.66 1.45-.44 2.6-1.06 3.44-1.87.84-.8 1.42-1.78 1.72-2.93.31-1.15.46-2.45.46-3.9 0-1.53-.17-2.85-.52-3.96-.34-1.11-.95-2.04-1.81-2.78-.86-.75-2.02-1.3-3.47-1.67-1.45-.36-3.29-.55-5.51-.55h-9.65v18.31h9.71z"/><path d="m308.44 390.85h12.86c2.95 0 5.37.33 7.26.98 1.9.65 3.39 1.49 4.48 2.53 1.09 1.03 1.84 2.22 2.24 3.56s.6 2.7.6 4.08c0 2.6-.58 4.82-1.75 6.66s-3.07 3.24-5.71 4.19l8.84 19h-4.08l-8.21-18.2c-.65.08-1.32.14-2.01.2s-1.42.09-2.18.09h-8.9v17.91h-3.44zm13.32 19.98c2.07 0 3.78-.2 5.14-.6s2.44-.98 3.24-1.75 1.37-1.68 1.69-2.76c.32-1.07.49-2.3.49-3.67 0-1.34-.17-2.52-.52-3.53-.34-1.01-.95-1.87-1.81-2.55-.86-.69-2.01-1.21-3.44-1.55-1.44-.34-3.24-.52-5.43-.52h-9.24v16.94h9.88z"/><path d="m372.05 432.88c-2.64 0-5.1-.45-7.38-1.35s-4.24-2.25-5.89-4.05-2.94-4.04-3.87-6.72c-.94-2.68-1.41-5.78-1.41-9.3s.47-6.63 1.41-9.33 2.24-4.96 3.9-6.77c1.66-1.82 3.62-3.2 5.88-4.13 2.26-.94 4.71-1.41 7.35-1.41s5.09.45 7.35 1.35 4.2 2.25 5.83 4.05 2.91 4.03 3.85 6.69 1.41 5.75 1.41 9.27c0 3.56-.46 6.69-1.38 9.39s-2.19 4.96-3.82 6.77c-1.63 1.82-3.57 3.2-5.83 4.13-2.25.94-4.72 1.41-7.4 1.41zm0-3.1c2.41 0 4.54-.45 6.37-1.35 1.84-.9 3.38-2.16 4.62-3.79s2.18-3.57 2.81-5.83.95-4.75.95-7.46-.33-5.21-.98-7.46c-.65-2.26-1.6-4.2-2.84-5.83s-2.78-2.89-4.62-3.79-3.94-1.35-6.32-1.35c-2.49 0-4.66.45-6.52 1.35s-3.4 2.16-4.62 3.79c-1.23 1.63-2.15 3.57-2.78 5.83s-.95 4.75-.95 7.46.31 5.21.92 7.46c.61 2.26 1.54 4.2 2.78 5.83s2.79 2.89 4.65 3.79c1.87.9 4.04 1.35 6.53 1.35z"/><path d="m409.88 390.85h13.84c2.87 0 5.45.41 7.75 1.23s4.24 2.07 5.83 3.73c1.59 1.67 2.81 3.76 3.67 6.29s1.29 5.51 1.29 8.96c0 3.48-.46 6.53-1.38 9.13s-2.24 4.77-3.96 6.49-3.81 3.01-6.26 3.88c-2.45.86-5.19 1.29-8.21 1.29h-12.57zm12.81 37.89c5.47 0 9.49-1.52 12.06-4.56 2.56-3.04 3.85-7.38 3.85-13 0-5.55-1.2-9.82-3.59-12.8-2.39-2.99-6.15-4.48-11.28-4.48h-10.33v34.85h9.29z"/><path d="m461.38 390.85h3.5v24.97c0 4.63.9 8.11 2.7 10.45 1.8 2.33 4.77 3.5 8.9 3.5 2.1 0 3.87-.3 5.31-.89s2.6-1.47 3.5-2.64 1.55-2.62 1.95-4.36.6-3.76.6-6.06v-24.97h3.5v24.92c0 3.02-.34 5.62-1.01 7.78s-1.65 3.93-2.93 5.31-2.85 2.39-4.71 3.04-3.95.98-6.29.98c-2.41 0-4.54-.33-6.4-.98s-3.43-1.67-4.71-3.07-2.26-3.2-2.93-5.4-1-4.83-1-7.89v-24.69z"/><path d="m544.8 418.69c-.27 2.03-.79 3.9-1.58 5.63-.78 1.72-1.85 3.22-3.19 4.48s-2.97 2.26-4.88 2.99-4.13 1.09-6.66 1.09c-2.68 0-5.12-.46-7.32-1.38s-4.1-2.29-5.68-4.11c-1.59-1.82-2.82-4.06-3.7-6.72s-1.32-5.73-1.32-9.21c0-3.52.48-6.63 1.44-9.33s2.25-4.96 3.88-6.77c1.63-1.82 3.52-3.2 5.68-4.13 2.16-.94 4.47-1.41 6.92-1.41 2.49 0 4.63.33 6.43.98s3.32 1.56 4.56 2.73 2.25 2.55 3.01 4.16 1.38 3.35 1.84 5.22l-3.33.75c-.42-1.68-.95-3.2-1.58-4.54s-1.44-2.47-2.41-3.39c-.98-.92-2.15-1.63-3.53-2.12-1.38-.5-3.04-.75-5-.75-2.26 0-4.27.46-6.03 1.38s-3.25 2.2-4.48 3.85-2.16 3.6-2.81 5.86-.98 4.73-.98 7.41c0 2.72.32 5.2.95 7.43.63 2.24 1.55 4.18 2.76 5.83 1.2 1.65 2.71 2.92 4.51 3.82s3.87 1.35 6.2 1.35c2.22 0 4.09-.28 5.6-.83s2.76-1.33 3.73-2.33c.98-.99 1.74-2.17 2.3-3.53.55-1.36.97-2.82 1.23-4.39h3.44z"/><path d="m572.94 394.07h-14.24v-3.22h31.92v3.22h-14.18v37.78h-3.5z"/><path d="m607.78 390.85h3.5v40.99h-3.5z"/><path d="m649.24 432.88c-2.64 0-5.1-.45-7.38-1.35s-4.24-2.25-5.89-4.05-2.94-4.04-3.87-6.72c-.94-2.68-1.41-5.78-1.41-9.3s.47-6.63 1.41-9.33 2.24-4.96 3.9-6.77c1.66-1.82 3.62-3.2 5.88-4.13 2.26-.94 4.71-1.41 7.35-1.41s5.09.45 7.35 1.35 4.2 2.25 5.83 4.05 2.91 4.03 3.85 6.69 1.41 5.75 1.41 9.27c0 3.56-.46 6.69-1.38 9.39s-2.19 4.96-3.82 6.77c-1.63 1.82-3.57 3.2-5.83 4.13-2.26.94-4.73 1.41-7.4 1.41zm0-3.1c2.41 0 4.54-.45 6.37-1.35 1.84-.9 3.38-2.16 4.62-3.79s2.18-3.57 2.81-5.83.95-4.75.95-7.46-.33-5.21-.98-7.46c-.65-2.26-1.6-4.2-2.84-5.83s-2.78-2.89-4.62-3.79-3.94-1.35-6.32-1.35c-2.49 0-4.66.45-6.52 1.35s-3.4 2.16-4.62 3.79c-1.23 1.63-2.15 3.57-2.78 5.83s-.95 4.75-.95 7.46.31 5.21.92 7.46c.61 2.26 1.54 4.2 2.78 5.83s2.79 2.89 4.65 3.79c1.87.9 4.04 1.35 6.53 1.35z"/><path d="m687.07 390.85h3.85l22.96 35.48v-35.48h3.39v40.99h-3.79l-23.02-35.6v35.6h-3.39z"/></svg>