<?xml version="1.0" encoding="utf-8"?>
<!-- Generator: Adobe Illustrator 23.0.4, SVG Export Plug-In . SVG Version: 6.00 Build 0)  -->
<svg version="1.1" id="Livello_1" xmlns="http://www.w3.org/2000/svg" xmlns:xlink="http://www.w3.org/1999/xlink" x="0px" y="0px"
	 viewBox="0 0 987.01 535.05" style="enable-background:new 0 0 987.01 535.05;" xml:space="preserve">
<style type="text/css">
	.st0{fill:#010202;}
</style>
<g>
	<g>
		<polygon class="st0" points="111.67,328.22 90.95,328.22 90.95,183.18 111.67,157.99 111.67,328.22 		"/>
		<g>
			<polygon class="st0" points="846.62,328.22 825.9,328.22 825.9,157.97 917.67,157.97 917.67,162 846.62,162 846.62,328.22 			"/>
			<polygon class="st0" points="916.03,328.22 854.8,328.22 854.8,324.4 916.03,324.4 916.03,328.22 			"/>
			<polygon class="st0" points="904.57,245.14 854.66,245.14 854.66,241.38 904.57,241.38 904.57,245.14 			"/>
		</g>
		<g>
			<polygon class="st0" points="794.42,328.22 741.5,328.22 741.5,324.39 794.42,324.39 794.42,328.22 			"/>
			<polygon class="st0" points="733.35,328.22 712.62,328.22 712.62,183.26 713.01,182.79 733.35,157.97 733.35,328.22 			"/>
		</g>
		<g>
			<polygon class="st0" points="268.23,279.81 264.22,275.8 264.22,275.63 264.28,157.58 268.23,157.58 268.23,279.81 			"/>
			<path class="st0" d="M268.23,295.93v14.14c0.01,2.41,0,4.88,0,7.44l-0.01,10.71l-3.68-4.21c-19.73-22.55-39.67-43.63-58.97-64.03
				c-18.15-19.19-36.87-38.98-55.47-60.04v128.27h-7.35V157.58l6.67,7.5c1.96,2.21,3.82,4.29,5.66,6.39
				c16.16,17.56,29.42,31.39,43.45,46.03c10.95,11.42,22.27,23.23,35.38,37.26c9.7,11.07,20.9,23.87,32.02,36.65l0.75,0.87l1.54,1.8
				L268.23,295.93L268.23,295.93z"/>
		</g>
		<path class="st0" d="M377.02,321.14c-10.43,4.81-20.89,7.21-31.32,7.21c-14.2,0-28.35-4.44-42.34-13.32l-0.35-0.23
			c-2.32-1.67-2.54-1.9-2.63-1.99l-0.93-0.88l5.86-7.12l0,0c3.1,2.15,4.3,2.51,7.49,4.17c1.57,0.82,3.18,1.65,4.83,2.58
			c9.18,5.13,18.11,7.83,26.95,8.13h0.02c21.76,0.15,29.38-10.69,30.89-13.29c0.19-0.33,0.29-0.53,0.3-0.55
			c0.83-1.61,1.59-3.55,2.46-6.07c3.63-10.58,1.13-20.43-7.66-30.11c-6.45-7.1-14.5-12.63-22.28-17.98
			c-1.54-1.06-3.08-2.11-4.6-3.18c-1.94-1.35-3.87-2.7-5.82-4.05c-7.75-5.38-15.76-10.93-23.26-16.91
			c-9.45-7.53-14.58-16.75-15.25-27.4c-1.01-16,12.25-30.55,24.99-37.29c1.9-0.97,3.8-1.8,5.69-2.5c0.01-0.01,0.03-0.01,0.04-0.01
			c22.09-8.18,43.21,0.93,50.63,4.81c0.97,0.48,1.87,0.97,2.64,1.48c0.02,0.01,0.04,0.03,0.06,0.04c0.01,0.01,0.02,0.01,0.03,0.02
			c0.02,0.01,0.04,0.03,0.05,0.03c0,0,0.01,0,0.01,0.01c0.01,0,0.28,0.18,0.28,0.18l-6.07,7.37c0,0,0.25,0.12-1.58-0.74
			c-4.01-1.88-7.8-3.65-11.8-4.84c-13.5-4.02-25.9-2.19-36.86,5.43c-5.49,3.82-8.95,9.18-9.76,15.1c-0.81,5.99,1.13,12.17,5.48,17.4
			c5.3,6.38,12.07,10.68,19.24,15.24c1.19,0.75,2.37,1.51,3.55,2.27c2.65,1.72,5.31,3.42,7.97,5.12
			c8.11,5.19,16.5,10.56,24.45,16.29c10,7.22,16.71,15.97,19.94,26.03C404.93,291.94,396.15,312.33,377.02,321.14z"/>
		<path class="st0" d="M530.63,157.47h-99v4.18c5.54,0,10.98,0.01,16.44,0.01c7.45,0.01,14.91,0.01,22.69,0.01v166.54h20.73V161.45
			h39.14V157.47z"/>
		<g>
			<polygon class="st0" points="681.53,157.58 633.06,240.47 633.06,233.26 633.12,233.16 677.29,157.58 681.53,157.58 			"/>
			<polygon class="st0" points="609.28,328.22 609.28,250.81 561.72,157.44 581.5,157.44 626.68,245.7 626.74,328.22 			"/>
		</g>
	</g>
	<g>
		<path d="M281.42,392.03h13.34c2.77,0,5.26,0.4,7.47,1.19c2.21,0.79,4.09,1.99,5.62,3.6c1.53,1.61,2.71,3.63,3.54,6.06
			c0.83,2.44,1.25,5.31,1.25,8.64c0,3.36-0.44,6.29-1.33,8.8c-0.89,2.51-2.16,4.6-3.82,6.26c-1.66,1.66-3.67,2.91-6.03,3.74
			c-2.36,0.83-5,1.25-7.92,1.25h-12.12V392.03z M293.77,428.56c5.28,0,9.15-1.47,11.63-4.4c2.47-2.93,3.71-7.11,3.71-12.54
			c0-5.35-1.15-9.47-3.46-12.35c-2.31-2.88-5.93-4.32-10.88-4.32h-9.97v33.6H293.77z"/>
		<path d="M328.59,392.03h3.38v39.53h-3.38V392.03z"/>
		<path d="M350.62,421.2c0.59,2.95,1.86,5.08,3.82,6.39c1.96,1.31,4.87,1.97,8.75,1.97c1.99,0,3.64-0.22,4.95-0.66
			c1.31-0.44,2.35-1.03,3.13-1.77c0.77-0.74,1.33-1.61,1.66-2.6c0.33-1,0.5-2.05,0.5-3.16c0-0.92-0.1-1.8-0.3-2.63
			c-0.2-0.83-0.59-1.59-1.16-2.27c-0.57-0.68-1.39-1.28-2.46-1.8c-1.07-0.52-2.47-0.92-4.21-1.22l-4.93-0.83
			c-1.92-0.33-3.63-0.76-5.12-1.27c-1.5-0.52-2.76-1.19-3.79-2.02c-1.03-0.83-1.82-1.87-2.35-3.13c-0.54-1.25-0.8-2.79-0.8-4.59
			c0-1.81,0.38-3.38,1.13-4.71c0.76-1.33,1.77-2.43,3.04-3.29c1.27-0.87,2.77-1.51,4.48-1.94c1.72-0.42,3.53-0.64,5.45-0.64
			c2.47,0,4.54,0.27,6.2,0.8c1.66,0.54,3.03,1.25,4.1,2.13c1.07,0.89,1.9,1.89,2.49,3.02c0.59,1.13,1.05,2.26,1.38,3.4l-3.1,0.89
			c-0.37-1.14-0.8-2.17-1.3-3.07c-0.5-0.9-1.16-1.67-1.99-2.3c-0.83-0.63-1.87-1.11-3.13-1.44c-1.26-0.33-2.79-0.5-4.6-0.5
			c-2.03,0-3.73,0.19-5.09,0.58c-1.37,0.39-2.47,0.92-3.32,1.61c-0.85,0.68-1.46,1.49-1.83,2.44c-0.37,0.94-0.55,1.95-0.55,3.02
			c0,1.11,0.13,2.07,0.39,2.88c0.26,0.81,0.7,1.51,1.33,2.1c0.63,0.59,1.47,1.09,2.52,1.49c1.05,0.41,2.37,0.76,3.96,1.05l5.59,1
			c1.99,0.37,3.72,0.85,5.18,1.44c1.46,0.59,2.67,1.34,3.63,2.24c0.96,0.9,1.67,1.98,2.13,3.24c0.46,1.26,0.69,2.73,0.69,4.43
			c0,1.51-0.3,2.94-0.89,4.29c-0.59,1.35-1.47,2.52-2.63,3.52c-1.16,1-2.61,1.79-4.35,2.38c-1.74,0.59-3.76,0.89-6.09,0.89
			c-2.14,0-4.12-0.2-5.95-0.61c-1.83-0.41-3.43-1.06-4.82-1.97c-1.38-0.9-2.52-2.08-3.4-3.52c-0.89-1.44-1.44-3.19-1.66-5.26H350.62
			z"/>
		<path d="M402.78,395.13h-13.73v-3.1h30.78v3.1h-13.67v36.43h-3.38V395.13z"/>
		<path d="M433.61,392.03h12.4c2.84,0,5.18,0.31,7,0.94c1.83,0.63,3.27,1.44,4.32,2.44c1.05,1,1.77,2.14,2.16,3.43
			c0.39,1.29,0.58,2.6,0.58,3.93c0,2.51-0.56,4.65-1.69,6.42c-1.13,1.77-2.96,3.12-5.51,4.04l8.53,18.32h-3.93L449.56,414
			c-0.63,0.07-1.27,0.14-1.94,0.19s-1.37,0.08-2.1,0.08h-8.58v17.27h-3.32V392.03z M446.46,411.29c1.99,0,3.64-0.19,4.96-0.58
			c1.31-0.39,2.35-0.95,3.13-1.69c0.77-0.74,1.32-1.62,1.63-2.66c0.31-1.03,0.47-2.21,0.47-3.54c0-1.29-0.17-2.43-0.5-3.4
			c-0.33-0.98-0.91-1.8-1.74-2.46c-0.83-0.66-1.94-1.16-3.32-1.49c-1.38-0.33-3.13-0.5-5.23-0.5h-8.91v16.33H446.46z"/>
		<path d="M476.3,392.03h3.38v39.53h-3.38V392.03z"/>
		<path d="M497.06,392.03h12.51c2.77,0,5.03,0.26,6.78,0.78c1.75,0.52,3.15,1.23,4.18,2.13c1.03,0.9,1.74,1.95,2.13,3.13
			c0.39,1.18,0.58,2.44,0.58,3.76c0,1.99-0.46,3.73-1.38,5.2c-0.92,1.48-2.47,2.68-4.65,3.6c1.4,0.48,2.57,1.06,3.52,1.74
			c0.94,0.68,1.7,1.45,2.27,2.3c0.57,0.85,0.98,1.76,1.22,2.74c0.24,0.98,0.36,1.97,0.36,2.96c0,1.55-0.24,3.01-0.72,4.37
			c-0.48,1.37-1.27,2.56-2.38,3.57c-1.11,1.02-2.55,1.81-4.32,2.38c-1.77,0.57-3.95,0.86-6.53,0.86h-13.56V392.03z M510.07,409.35
			c3.43,0,5.93-0.62,7.5-1.85c1.57-1.24,2.35-3.07,2.35-5.51s-0.78-4.22-2.35-5.34c-1.57-1.13-4.27-1.69-8.11-1.69h-9.08v14.39
			H510.07z M510.51,428.56c2.1,0,3.83-0.18,5.18-0.55c1.35-0.37,2.42-0.89,3.21-1.58c0.79-0.68,1.35-1.51,1.66-2.49
			c0.31-0.98,0.47-2.08,0.47-3.29c0-2.69-0.81-4.74-2.44-6.15c-1.62-1.4-4.26-2.1-7.92-2.1h-10.3v16.17H510.51z"/>
		<path d="M540.18,392.03h3.38v24.08c0,4.47,0.87,7.83,2.6,10.08c1.73,2.25,4.6,3.38,8.58,3.38c2.03,0,3.74-0.29,5.12-0.86
			c1.38-0.57,2.51-1.42,3.38-2.55c0.87-1.13,1.49-2.53,1.88-4.21c0.39-1.68,0.58-3.63,0.58-5.84v-24.08h3.38v24.03
			c0,2.92-0.32,5.42-0.97,7.5c-0.65,2.09-1.59,3.79-2.82,5.12c-1.24,1.33-2.75,2.31-4.54,2.93c-1.79,0.63-3.81,0.94-6.06,0.94
			c-2.33,0-4.38-0.31-6.17-0.94c-1.79-0.63-3.3-1.61-4.54-2.96c-1.24-1.35-2.18-3.08-2.82-5.2c-0.65-2.12-0.97-4.66-0.97-7.61
			V392.03z"/>
		<path d="M596.32,395.13h-13.73v-3.1h30.78v3.1H599.7v36.43h-3.38V395.13z"/>
		<path d="M627.16,392.03h3.38v39.53h-3.38V392.03z"/>
		<path d="M664.36,432.55c-2.55,0-4.92-0.43-7.11-1.3c-2.2-0.87-4.09-2.17-5.67-3.9c-1.59-1.73-2.83-3.89-3.74-6.48
			c-0.91-2.58-1.36-5.57-1.36-8.97c0-3.4,0.45-6.39,1.36-9c0.9-2.6,2.16-4.78,3.76-6.53c1.61-1.75,3.5-3.08,5.67-3.99
			c2.18-0.9,4.54-1.36,7.09-1.36c2.55,0,4.91,0.43,7.09,1.3c2.18,0.87,4.05,2.17,5.62,3.9c1.57,1.74,2.8,3.88,3.71,6.45
			c0.9,2.57,1.36,5.55,1.36,8.94c0,3.43-0.44,6.45-1.33,9.05c-0.89,2.6-2.11,4.78-3.68,6.53c-1.57,1.75-3.44,3.08-5.62,3.99
			C669.32,432.1,666.94,432.55,664.36,432.55z M664.36,429.56c2.33,0,4.37-0.43,6.15-1.3c1.77-0.87,3.26-2.08,4.46-3.65
			c1.2-1.57,2.1-3.44,2.71-5.62c0.61-2.18,0.91-4.58,0.91-7.2c0-2.62-0.31-5.02-0.94-7.2c-0.63-2.18-1.54-4.05-2.74-5.62
			c-1.2-1.57-2.68-2.79-4.46-3.65c-1.77-0.87-3.8-1.3-6.09-1.3c-2.4,0-4.49,0.43-6.28,1.3c-1.79,0.87-3.28,2.09-4.46,3.65
			c-1.18,1.57-2.08,3.44-2.69,5.62c-0.61,2.18-0.91,4.58-0.91,7.2c0,2.62,0.29,5.02,0.89,7.2c0.59,2.18,1.48,4.05,2.68,5.62
			c1.2,1.57,2.69,2.79,4.48,3.65C659.87,429.13,661.96,429.56,664.36,429.56z"/>
		<path d="M698.07,392.03h3.71l22.14,34.21v-34.21h3.27v39.53h-3.65l-22.2-34.32v34.32h-3.27V392.03z"/>
	</g>
</g>
</svg>
