<svg fill="none" height="200" viewBox="0 0 979 200" width="979" xmlns="http://www.w3.org/2000/svg"><g clip-rule="evenodd" fill="#000" fill-rule="evenodd"><path d="m21.4475 199.775h-21.043203v-169.9885l21.043203-29.526734z"/><path d="m892.816 199.926h-24.968v-199.8517812h110.556v4.7372012h-85.588z"/><path d="m901.865 199.926h76.539v-4.252h-76.539z"/><path d="m901.865 102.126h59.531v-4.252h-59.531z"/><path d="m770.048 199.926h63.782v-4.252h-63.782z"/><path d="m753.039 199.926h-21.261v-170.1609l.396-.5489 20.865-29.1419812z"/><path d="m213.013 144.648-4.252-4.747v-.205l.069-139.6217812h4.183z"/><path d="m209.228 162.152v16.472c.006 2.814.003 5.689-.002 8.672l-.008 12.479-4.345-4.901c-23.296-26.271-46.85-50.842-69.63-74.605-21.435-22.3606-43.5339-45.4168-65.4983-69.9556v149.4616h-8.6724v-198.835547l7.8753 8.738887c2.3209 2.57016 4.5146 4.99976 6.6871 7.44566 19.0818 20.4593 34.7363 36.5729 51.3043 53.6313 12.929 13.3087 26.297 27.0683 41.78 43.4217 11.453 12.899 24.676 27.813 37.814 42.702l.883 1.016 1.817 2.094v2.165z"/><path d="m337.693 191.528c-12.313 5.6-24.666 8.399-36.987 8.399-16.767 0-33.483-5.18-49.993-15.526l-.409-.266c-2.74-1.952-2.999-2.21-3.111-2.318l-1.094-1.026 6.918-8.294c3.66 2.5 5.075 2.928 8.844 4.862 1.86.956 3.751 1.928 5.707 3.005 10.841 5.977 21.385 9.126 31.822 9.469h.029c25.692.171 34.69-12.455 36.475-15.482.227-.386.338-.615.351-.644.98-1.872 1.88-4.133 2.902-7.071 4.289-12.331 1.331-23.805-9.04-35.081-7.616-8.277-17.119-14.72-26.308-20.951-1.817-1.231-3.634-2.463-5.437-3.71-2.286-1.576-4.575-3.145-6.87-4.716-9.15-6.2627-18.61-12.737-27.472-19.7086-11.155-8.7749-17.212-19.5169-18.012-31.9322-1.197-18.6408 14.46-35.5922 29.516-43.44921 2.24-1.13056 4.483-2.09729 6.718-2.91645.017-.00697.034-.01394.052-.01743 26.087-9.53132 51.029 1.08408 59.789 5.60399 1.148.5601 2.208 1.1352 3.118 1.7208.026.0163.052.0314.073.0453.01.007.022.014.032.0198.028.0174.047.029.06.0383.004.0024.008.0047.01.0058.007.0047.328.2045.328.2045l-7.166 8.5856s.295.1371-1.865-.8587c-4.737-2.1879-9.209-4.2515-13.932-5.64-15.943-4.68029-30.589-2.5516-43.533 6.3313-6.479 4.4479-10.573 10.6933-11.52 17.5952-.96 6.982 1.336 14.1837 6.472 20.2757 6.258 7.4305 14.258 12.4466 22.723 17.7566 1.402.8773 2.805 1.7592 4.197 2.6492 3.132 2.0008 6.275 3.9843 9.418 5.9688 9.582 6.0479 19.487 12.3002 28.876 18.9837 11.812 8.41 19.735 18.611 23.55 30.328 7.729 23.74-2.646 47.493-25.231 57.76z"/><path d="m519.17.0742188h-114.809v4.8985812c6.424.00234 12.731.00701 19.067.01051 8.638.007 17.295.01284 26.319.014v194.92869h24.034v-195.1948h45.389z"/><path d="m697.761.0742188-59.531 97.7999812v-8.5077l.073-.1153 54.254-89.1769812z"/><path d="m613.425 199.926v-90.592l-55.986-109.2597812h23.284l53.187 103.2817812.068 96.57z"/></g></svg>