<?xml version="1.0" encoding="utf-8"?>
<!-- Generator: Adobe Illustrator 23.0.4, SVG Export Plug-In . SVG Version: 6.00 Build 0)  -->
<svg version="1.1" id="Livello_1" xmlns="http://www.w3.org/2000/svg" xmlns:xlink="http://www.w3.org/1999/xlink" x="0px" y="0px"
	 viewBox="0 0 987.01 535.05" style="enable-background:new 0 0 987.01 535.05;" xml:space="preserve">
<style type="text/css">
	.st0{fill:#010202;}
</style>
<g>
	<g>
		<g>
			<polygon class="st0" points="112.53,328.08 91.85,328.08 91.85,183.38 112.53,158.24 112.53,328.08 			"/>
			<g>
				<polygon class="st0" points="845.8,328.08 825.12,328.08 825.12,158.22 916.68,158.22 916.68,162.25 845.8,162.25 845.8,328.08 
									"/>
				<polygon class="st0" points="915.04,328.08 853.96,328.08 853.96,324.27 915.04,324.27 915.04,328.08 				"/>
				<polygon class="st0" points="903.61,245.19 853.82,245.19 853.82,241.44 903.61,241.44 903.61,245.19 				"/>
			</g>
			<g>
				<polygon class="st0" points="793.71,328.08 740.92,328.08 740.92,324.27 793.71,324.27 793.71,328.08 				"/>
				<polygon class="st0" points="732.78,328.08 712.11,328.08 712.11,183.46 712.49,182.99 732.78,158.22 732.78,328.08 				"/>
			</g>
			<g>
				<polygon class="st0" points="268.73,279.79 264.73,275.78 264.73,275.61 264.79,157.83 268.73,157.83 268.73,279.79 				"/>
				<path class="st0" d="M268.73,295.87v14.11c0.01,2.41,0,4.87,0,7.42l-0.01,10.69l-3.67-4.2c-19.68-22.49-39.58-43.53-58.83-63.88
					c-18.11-19.15-36.78-38.89-55.34-59.9v127.98h-7.33V157.83l6.66,7.48c1.96,2.2,3.81,4.28,5.65,6.37
					c16.12,17.52,29.35,31.32,43.35,45.92c10.92,11.4,22.22,23.18,35.3,37.18c9.68,11.05,20.85,23.82,31.95,36.56l0.75,0.87
					l1.53,1.79L268.73,295.87L268.73,295.87z"/>
			</g>
			<path class="st0" d="M377.27,321.02c-10.4,4.79-20.84,7.19-31.25,7.19c-14.17,0-28.29-4.43-42.24-13.29l-0.35-0.23
				c-2.31-1.67-2.53-1.89-2.63-1.98l-0.92-0.88l5.85-7.1l0,0c3.09,2.14,4.29,2.51,7.47,4.16c1.57,0.82,3.17,1.65,4.82,2.57
				c9.16,5.12,18.07,7.81,26.89,8.11h0.02c21.71,0.15,29.31-10.66,30.82-13.26c0.19-0.33,0.29-0.53,0.3-0.55
				c0.83-1.6,1.59-3.54,2.45-6.05c3.62-10.56,1.12-20.38-7.64-30.04c-6.43-7.09-14.46-12.6-22.23-17.94
				c-1.53-1.06-3.07-2.11-4.59-3.18c-1.93-1.35-3.87-2.69-5.8-4.04c-7.73-5.36-15.72-10.91-23.21-16.88
				c-9.42-7.51-14.54-16.71-15.22-27.34c-1.01-15.96,12.22-30.48,24.94-37.2c1.89-0.97,3.79-1.8,5.68-2.5
				c0.01-0.01,0.03-0.01,0.04-0.01c22.04-8.16,43.12,0.93,50.52,4.8c0.97,0.48,1.87,0.97,2.64,1.47c0.02,0.01,0.04,0.03,0.06,0.04
				c0.01,0.01,0.02,0.01,0.03,0.02c0.02,0.01,0.04,0.03,0.05,0.03c0,0,0.01,0,0.01,0.01c0.01,0,0.28,0.18,0.28,0.18l-6.05,7.35
				c0,0,0.25,0.12-1.58-0.74c-4-1.87-7.78-3.64-11.77-4.83c-13.47-4.01-25.84-2.18-36.78,5.42c-5.48,3.81-8.93,9.16-9.73,15.07
				c-0.81,5.98,1.13,12.14,5.47,17.36c5.29,6.36,12.05,10.66,19.2,15.2c1.18,0.75,2.37,1.51,3.55,2.27c2.65,1.71,5.3,3.41,7.96,5.11
				c8.1,5.18,16.47,10.53,24.4,16.26c9.98,7.2,16.67,15.93,19.9,25.97C405.12,291.89,396.35,312.23,377.27,321.02z"/>
			<path class="st0" d="M530.52,157.73h-98.77v4.17c5.53,0,10.95,0.01,16.4,0.01c7.43,0.01,14.88,0.01,22.64,0.01v166.16h20.68
				V161.7h39.05V157.73z"/>
			<g>
				<polygon class="st0" points="681.08,157.83 632.73,240.53 632.73,233.34 632.78,233.24 676.86,157.83 681.08,157.83 				"/>
				<polygon class="st0" points="609,328.08 609,250.85 561.55,157.7 581.28,157.7 626.36,245.75 626.42,328.08 				"/>
			</g>
		</g>
	</g>
	<g>
		<path d="M261.99,390.85h13.21c2.98,0,5.43,0.32,7.35,0.95c1.91,0.63,3.42,1.48,4.51,2.55c1.09,1.07,1.85,2.33,2.27,3.76
			c0.42,1.44,0.63,2.96,0.63,4.56c0,1.68-0.22,3.29-0.66,4.82c-0.44,1.53-1.22,2.87-2.33,4.02c-1.11,1.15-2.62,2.06-4.54,2.73
			c-1.91,0.67-4.36,1-7.35,1h-9.65v16.59h-3.44V390.85z M275.14,412.21c2.3,0,4.17-0.22,5.63-0.66c1.45-0.44,2.6-1.06,3.44-1.87
			c0.84-0.8,1.42-1.78,1.72-2.93c0.31-1.15,0.46-2.45,0.46-3.9c0-1.53-0.17-2.85-0.52-3.96c-0.34-1.11-0.95-2.04-1.81-2.78
			c-0.86-0.75-2.02-1.3-3.47-1.67c-1.45-0.36-3.29-0.55-5.51-0.55h-9.65v18.31H275.14z"/>
		<path d="M308.44,390.85h12.86c2.95,0,5.37,0.33,7.26,0.98c1.9,0.65,3.39,1.49,4.48,2.53c1.09,1.03,1.84,2.22,2.24,3.56
			c0.4,1.34,0.6,2.7,0.6,4.08c0,2.6-0.58,4.82-1.75,6.66c-1.17,1.84-3.07,3.24-5.71,4.19l8.84,19h-4.08l-8.21-18.2
			c-0.65,0.08-1.32,0.14-2.01,0.2c-0.69,0.06-1.42,0.09-2.18,0.09h-8.9v17.91h-3.44V390.85z M321.76,410.83
			c2.07,0,3.78-0.2,5.14-0.6c1.36-0.4,2.44-0.98,3.24-1.75c0.8-0.77,1.37-1.68,1.69-2.76c0.32-1.07,0.49-2.3,0.49-3.67
			c0-1.34-0.17-2.52-0.52-3.53c-0.34-1.01-0.95-1.87-1.81-2.55c-0.86-0.69-2.01-1.21-3.44-1.55c-1.44-0.34-3.24-0.52-5.43-0.52
			h-9.24v16.94H321.76z"/>
		<path d="M372.05,432.88c-2.64,0-5.1-0.45-7.38-1.35c-2.28-0.9-4.24-2.25-5.89-4.05c-1.65-1.8-2.94-4.04-3.87-6.72
			c-0.94-2.68-1.41-5.78-1.41-9.3c0-3.52,0.47-6.63,1.41-9.33c0.94-2.7,2.24-4.96,3.9-6.77c1.66-1.82,3.62-3.2,5.88-4.13
			c2.26-0.94,4.71-1.41,7.35-1.41c2.64,0,5.09,0.45,7.35,1.35c2.26,0.9,4.2,2.25,5.83,4.05c1.63,1.8,2.91,4.03,3.85,6.69
			c0.94,2.66,1.41,5.75,1.41,9.27c0,3.56-0.46,6.69-1.38,9.39c-0.92,2.7-2.19,4.96-3.82,6.77c-1.63,1.82-3.57,3.2-5.83,4.13
			C377.2,432.41,374.73,432.88,372.05,432.88z M372.05,429.78c2.41,0,4.54-0.45,6.37-1.35c1.84-0.9,3.38-2.16,4.62-3.79
			c1.24-1.63,2.18-3.57,2.81-5.83c0.63-2.26,0.95-4.75,0.95-7.46s-0.33-5.21-0.98-7.46c-0.65-2.26-1.6-4.2-2.84-5.83
			c-1.24-1.63-2.78-2.89-4.62-3.79c-1.84-0.9-3.94-1.35-6.32-1.35c-2.49,0-4.66,0.45-6.52,1.35c-1.86,0.9-3.4,2.16-4.62,3.79
			c-1.23,1.63-2.15,3.57-2.78,5.83c-0.63,2.26-0.95,4.75-0.95,7.46s0.31,5.21,0.92,7.46c0.61,2.26,1.54,4.2,2.78,5.83
			c1.24,1.63,2.79,2.89,4.65,3.79C367.39,429.33,369.56,429.78,372.05,429.78z"/>
		<path d="M409.88,390.85h13.84c2.87,0,5.45,0.41,7.75,1.23c2.3,0.82,4.24,2.07,5.83,3.73c1.59,1.67,2.81,3.76,3.67,6.29
			c0.86,2.53,1.29,5.51,1.29,8.96c0,3.48-0.46,6.53-1.38,9.13c-0.92,2.6-2.24,4.77-3.96,6.49c-1.72,1.72-3.81,3.01-6.26,3.88
			c-2.45,0.86-5.19,1.29-8.21,1.29h-12.57V390.85z M422.69,428.74c5.47,0,9.49-1.52,12.06-4.56c2.56-3.04,3.85-7.38,3.85-13
			c0-5.55-1.2-9.82-3.59-12.8c-2.39-2.99-6.15-4.48-11.28-4.48h-10.33v34.85H422.69z"/>
		<path d="M461.38,390.85h3.5v24.97c0,4.63,0.9,8.11,2.7,10.45c1.8,2.33,4.77,3.5,8.9,3.5c2.1,0,3.87-0.3,5.31-0.89
			c1.44-0.59,2.6-1.47,3.5-2.64c0.9-1.17,1.55-2.62,1.95-4.36c0.4-1.74,0.6-3.76,0.6-6.06v-24.97h3.5v24.92
			c0,3.02-0.34,5.62-1.01,7.78c-0.67,2.16-1.65,3.93-2.93,5.31c-1.28,1.38-2.85,2.39-4.71,3.04c-1.86,0.65-3.95,0.98-6.29,0.98
			c-2.41,0-4.54-0.33-6.4-0.98c-1.86-0.65-3.43-1.67-4.71-3.07c-1.28-1.4-2.26-3.2-2.93-5.4c-0.67-2.2-1-4.83-1-7.89V390.85z"/>
		<path d="M544.8,418.69c-0.27,2.03-0.79,3.9-1.58,5.63c-0.78,1.72-1.85,3.22-3.19,4.48c-1.34,1.26-2.97,2.26-4.88,2.99
			c-1.91,0.73-4.13,1.09-6.66,1.09c-2.68,0-5.12-0.46-7.32-1.38c-2.2-0.92-4.1-2.29-5.68-4.11c-1.59-1.82-2.82-4.06-3.7-6.72
			c-0.88-2.66-1.32-5.73-1.32-9.21c0-3.52,0.48-6.63,1.44-9.33c0.96-2.7,2.25-4.96,3.88-6.77c1.63-1.82,3.52-3.2,5.68-4.13
			c2.16-0.94,4.47-1.41,6.92-1.41c2.49,0,4.63,0.33,6.43,0.98c1.8,0.65,3.32,1.56,4.56,2.73c1.24,1.17,2.25,2.55,3.01,4.16
			c0.76,1.61,1.38,3.35,1.84,5.22l-3.33,0.75c-0.42-1.68-0.95-3.2-1.58-4.54c-0.63-1.34-1.44-2.47-2.41-3.39
			c-0.98-0.92-2.15-1.63-3.53-2.12c-1.38-0.5-3.04-0.75-5-0.75c-2.26,0-4.27,0.46-6.03,1.38c-1.76,0.92-3.25,2.2-4.48,3.85
			c-1.23,1.65-2.16,3.6-2.81,5.86c-0.65,2.26-0.98,4.73-0.98,7.41c0,2.72,0.32,5.2,0.95,7.43c0.63,2.24,1.55,4.18,2.76,5.83
			c1.2,1.65,2.71,2.92,4.51,3.82c1.8,0.9,3.87,1.35,6.2,1.35c2.22,0,4.09-0.28,5.6-0.83c1.51-0.55,2.76-1.33,3.73-2.33
			c0.98-0.99,1.74-2.17,2.3-3.53c0.55-1.36,0.97-2.82,1.23-4.39H544.8z"/>
		<path d="M572.94,394.07H558.7v-3.22h31.92v3.22h-14.18v37.78h-3.5V394.07z"/>
		<path d="M607.78,390.85h3.5v40.99h-3.5V390.85z"/>
		<path d="M649.24,432.88c-2.64,0-5.1-0.45-7.38-1.35c-2.28-0.9-4.24-2.25-5.89-4.05c-1.65-1.8-2.94-4.04-3.87-6.72
			c-0.94-2.68-1.41-5.78-1.41-9.3c0-3.52,0.47-6.63,1.41-9.33c0.94-2.7,2.24-4.96,3.9-6.77c1.66-1.82,3.62-3.2,5.88-4.13
			c2.26-0.94,4.71-1.41,7.35-1.41c2.64,0,5.09,0.45,7.35,1.35c2.26,0.9,4.2,2.25,5.83,4.05c1.63,1.8,2.91,4.03,3.85,6.69
			c0.94,2.66,1.41,5.75,1.41,9.27c0,3.56-0.46,6.69-1.38,9.39c-0.92,2.7-2.19,4.96-3.82,6.77c-1.63,1.82-3.57,3.2-5.83,4.13
			C654.38,432.41,651.91,432.88,649.24,432.88z M649.24,429.78c2.41,0,4.54-0.45,6.37-1.35c1.84-0.9,3.38-2.16,4.62-3.79
			c1.24-1.63,2.18-3.57,2.81-5.83c0.63-2.26,0.95-4.75,0.95-7.46s-0.33-5.21-0.98-7.46c-0.65-2.26-1.6-4.2-2.84-5.83
			c-1.24-1.63-2.78-2.89-4.62-3.79c-1.84-0.9-3.94-1.35-6.32-1.35c-2.49,0-4.66,0.45-6.52,1.35c-1.86,0.9-3.4,2.16-4.62,3.79
			c-1.23,1.63-2.15,3.57-2.78,5.83c-0.63,2.26-0.95,4.75-0.95,7.46s0.31,5.21,0.92,7.46c0.61,2.26,1.54,4.2,2.78,5.83
			c1.24,1.63,2.79,2.89,4.65,3.79C644.58,429.33,646.75,429.78,649.24,429.78z"/>
		<path d="M687.07,390.85h3.85l22.96,35.48v-35.48h3.39v40.99h-3.79l-23.02-35.6v35.6h-3.39V390.85z"/>
	</g>
</g>
</svg>
