<svg fill="none" height="30" viewBox="0 0 147 30" width="147" xmlns="http://www.w3.org/2000/svg" xmlns:xlink="http://www.w3.org/1999/xlink"><mask id="a" height="30" maskUnits="userSpaceOnUse" width="4" x="0" y="0"><path clip-rule="evenodd" d="m.00976562.027832h3.14969438v29.949468h-3.14969438z" fill="#fff" fill-rule="evenodd"/></mask><g mask="url(#a)"><path clip-rule="evenodd" d="m3.15881 29.9773h-3.15881v-25.51719l3.15881-4.432278z" fill="#000105" fill-rule="evenodd"/></g><g clip-rule="evenodd" fill="#000105" fill-rule="evenodd"><path d="m133.961 30h-3.748v-30h16.596v.711106h-12.848z"/><path d="m135.32 30.0001h11.49v-.6383h-11.49z"/><path d="m135.32 15.319h8.936v-.6383h-8.936z"/><path d="m115.533 30.0001h9.575v-.6383h-9.575z"/><path d="m112.979 30h-3.192v-25.54307l.06-.08241 3.132-4.37452z"/><path d="m31.9156 21.7021-.6383-.7126v-.0308l.0104-20.9587h.6279z"/><path d="m31.3473 24.3291v2.4727c.0009.4225.0003.854-.0004 1.3017l-.0012 1.8733-.6522-.7357c-3.497-3.9436-7.0328-7.6319-10.4522-11.1991-3.2177-3.3565-6.535-6.8175-9.832-10.50104v22.43584h-1.30188v-29.847405l1.18218 1.311805c.3484.38581.6777.75052 1.0038 1.11767 2.8644 3.07116 5.2142 5.49 7.7014 8.05063 1.9407 1.9978 3.9474 4.0633 6.2716 6.518 1.7192 1.9364 3.7042 4.1751 5.6763 6.4101l.1326.1526.2727.3143v.325z"/><path d="m50.6319 28.7389c-1.8484.8406-3.7026 1.2607-5.5522 1.2607-2.5169 0-5.0261-.7775-7.5045-2.3305l-.0613-.04c-.4113-.293-.4502-.3317-.467-.348l-.1642-.154 1.0384-1.245c.5494.3754.7619.4396 1.3277.7298.2791.1436.563.2895.8566.4512 1.6274.8972 3.2101 1.3699 4.7769 1.4214h.0042c3.8567.0256 5.2074-1.8696 5.4753-2.324.0341-.0581.0508-.0924.0527-.0968.1472-.281.2823-.6204.4357-1.0613.6438-1.8511.1998-3.5735-1.357-5.2661-1.1432-1.2425-2.5697-2.2097-3.9491-3.1449-.2728-.1849-.5455-.3698-.8161-.5569-.3433-.2367-.6869-.4722-1.0314-.708-1.3734-.9401-2.7935-1.912-4.1238-2.9585-1.6745-1.3172-2.5837-2.9297-2.7037-4.79336-.1798-2.7982 2.1706-5.34279 4.4306-6.52221.3362-.169712.6729-.314829 1.0084-.437794.0025-.001046.0052-.002093.0078-.002616 3.9159-1.430756 7.6601.162733 8.975.84122.1723.08407.3314.17041.468.25832.0039.00244.0078.0047.011.0068.0016.00104.0034.00209.0048.00296.0042.00262.007.00436.009.00576.0007.00035.0012.0007.0016.00087.001.0007.0491.0307.0491.0307l-1.0756 1.28878s.0442.02058-.28-.1289c-.7111-.32843-1.3824-.6382-2.0914-.84663-2.3931-.70255-4.5917-.38302-6.5348.95041-.9725.66768-1.5871 1.60518-1.7292 2.64122-.1441 1.04808.2006 2.12913.9715 3.04361.9394 1.1154 2.1403 1.86836 3.4111 2.66546.2103.1317.421.2641.6299.3977.4702.3003.942.5981 1.4138.896 1.4382.9078 2.9251 1.8464 4.3346 2.8496 1.7731 1.2625 2.9623 2.7937 3.535 4.5525 1.1603 3.5637-.3971 7.1294-3.7874 8.6705z"/><path d="m77.8727 0h-17.234v.735331c.9643.00035 1.911.001051 2.8621.001577 1.2967.001051 2.5962.001927 3.9508.002102v29.26099h3.6079v-29.300936h6.8132z"/><path d="m104.682 0-8.9359 14.6809v-1.2771l.0108-.0174 8.1441-13.3864z"/><path d="m92.0213 30v-13.5989l-8.4041-16.4011h3.4951l7.984 15.5037.0102 14.4963z"/></g></svg>