<?xml version="1.0" encoding="utf-8"?>
<!-- Generator: Adobe Illustrator 23.0.4, SVG Export Plug-In . SVG Version: 6.00 Build 0)  -->
<svg version="1.1" id="Livello_1" xmlns="http://www.w3.org/2000/svg" xmlns:xlink="http://www.w3.org/1999/xlink" x="0px" y="0px"
	 viewBox="0 0 987.01 535.05" style="enable-background:new 0 0 987.01 535.05;" xml:space="preserve">
<style type="text/css">
	.st0{fill:#010202;}
</style>
<g>
	<g>
		<polygon class="st0" points="111.29,328.06 90.57,328.06 90.57,183.03 111.29,157.83 111.29,328.06 		"/>
		<g>
			<polygon class="st0" points="846.24,328.06 825.52,328.06 825.52,157.81 917.29,157.81 917.29,161.85 846.24,161.85 
				846.24,328.06 			"/>
			<polygon class="st0" points="915.65,328.06 854.42,328.06 854.42,324.24 915.65,324.24 915.65,328.06 			"/>
			<polygon class="st0" points="904.19,244.98 854.28,244.98 854.28,241.22 904.19,241.22 904.19,244.98 			"/>
		</g>
		<g>
			<polygon class="st0" points="794.04,328.06 741.12,328.06 741.12,324.24 794.04,324.24 794.04,328.06 			"/>
			<polygon class="st0" points="732.97,328.06 712.24,328.06 712.24,183.1 712.63,182.64 732.97,157.81 732.97,328.06 			"/>
		</g>
		<g>
			<polygon class="st0" points="267.85,279.66 263.84,275.64 263.84,275.47 263.9,157.42 267.85,157.42 267.85,279.66 			"/>
			<path class="st0" d="M267.85,295.77v14.14c0.01,2.41,0,4.88,0,7.44l-0.01,10.71l-3.68-4.21c-19.73-22.55-39.67-43.63-58.97-64.03
				c-18.15-19.19-36.87-38.98-55.47-60.04v128.27h-7.35V157.42l6.67,7.5c1.96,2.21,3.82,4.29,5.66,6.39
				c16.16,17.56,29.42,31.39,43.45,46.03c10.95,11.42,22.27,23.23,35.38,37.26c9.7,11.07,20.9,23.87,32.02,36.65l0.75,0.87l1.54,1.8
				L267.85,295.77L267.85,295.77z"/>
		</g>
		<path class="st0" d="M376.64,320.99c-10.43,4.81-20.89,7.21-31.32,7.21c-14.2,0-28.35-4.44-42.34-13.32l-0.35-0.23
			c-2.32-1.67-2.54-1.9-2.63-1.99l-0.93-0.88l5.86-7.12l0,0c3.1,2.15,4.3,2.51,7.49,4.17c1.57,0.82,3.18,1.65,4.83,2.58
			c9.18,5.13,18.11,7.83,26.95,8.13h0.02c21.76,0.15,29.38-10.69,30.89-13.29c0.19-0.33,0.29-0.53,0.3-0.55
			c0.83-1.61,1.59-3.55,2.46-6.07c3.63-10.58,1.13-20.43-7.66-30.11c-6.45-7.1-14.5-12.63-22.28-17.98
			c-1.54-1.06-3.08-2.11-4.6-3.18c-1.94-1.35-3.87-2.7-5.82-4.05c-7.75-5.38-15.76-10.93-23.26-16.91
			c-9.45-7.53-14.58-16.75-15.25-27.4c-1.01-16,12.25-30.55,24.99-37.29c1.9-0.97,3.8-1.8,5.69-2.5c0.01-0.01,0.03-0.01,0.04-0.01
			c22.09-8.18,43.21,0.93,50.63,4.81c0.97,0.48,1.87,0.97,2.64,1.48c0.02,0.01,0.04,0.03,0.06,0.04c0.01,0.01,0.02,0.01,0.03,0.02
			c0.02,0.01,0.04,0.03,0.05,0.03c0,0,0.01,0,0.01,0.01c0.01,0,0.28,0.18,0.28,0.18l-6.07,7.37c0,0,0.25,0.12-1.58-0.74
			c-4.01-1.88-7.8-3.65-11.8-4.84c-13.5-4.02-25.9-2.19-36.86,5.43c-5.49,3.82-8.95,9.18-9.76,15.1c-0.81,5.99,1.13,12.17,5.48,17.4
			c5.3,6.38,12.07,10.68,19.24,15.24c1.19,0.75,2.37,1.51,3.55,2.27c2.65,1.72,5.31,3.42,7.97,5.12
			c8.11,5.19,16.5,10.56,24.45,16.29c10,7.22,16.71,15.97,19.94,26.03C404.55,291.79,395.77,312.17,376.64,320.99z"/>
		<path class="st0" d="M530.25,157.32h-99v4.18c5.54,0,10.98,0.01,16.44,0.01c7.45,0.01,14.91,0.01,22.69,0.01v166.54h20.73V161.3
			h39.14V157.32z"/>
		<g>
			<polygon class="st0" points="681.15,157.42 632.68,240.31 632.68,233.1 632.74,233 676.91,157.42 681.15,157.42 			"/>
			<polygon class="st0" points="608.9,328.06 608.9,250.65 561.34,157.29 581.12,157.29 626.3,245.54 626.36,328.06 			"/>
		</g>
	</g>
	<g>
		<path d="M315.35,420.99c0.6,2.98,1.88,5.13,3.85,6.45c1.97,1.32,4.92,1.98,8.83,1.98c2.01,0,3.68-0.22,5-0.67
			c1.32-0.45,2.37-1.04,3.16-1.79c0.78-0.74,1.34-1.62,1.68-2.63c0.33-1.01,0.5-2.07,0.5-3.18c0-0.93-0.1-1.82-0.31-2.65
			c-0.21-0.84-0.6-1.6-1.17-2.29c-0.58-0.69-1.41-1.29-2.49-1.82c-1.08-0.52-2.5-0.93-4.25-1.23l-4.97-0.84
			c-1.94-0.34-3.66-0.76-5.17-1.28c-1.51-0.52-2.78-1.2-3.83-2.04c-1.04-0.84-1.83-1.89-2.37-3.16c-0.54-1.27-0.81-2.81-0.81-4.64
			c0-1.82,0.38-3.41,1.15-4.75c0.76-1.34,1.79-2.45,3.07-3.32c1.28-0.87,2.79-1.53,4.52-1.96c1.73-0.43,3.57-0.64,5.5-0.64
			c2.49,0,4.58,0.27,6.26,0.81c1.68,0.54,3.05,1.26,4.13,2.15c1.08,0.89,1.92,1.91,2.51,3.04c0.6,1.14,1.06,2.28,1.4,3.44
			l-3.13,0.89c-0.37-1.15-0.81-2.19-1.31-3.1c-0.5-0.91-1.17-1.68-2.01-2.32c-0.84-0.63-1.89-1.12-3.16-1.45
			c-1.27-0.34-2.81-0.5-4.64-0.5c-2.05,0-3.76,0.2-5.14,0.59c-1.38,0.39-2.5,0.93-3.35,1.62c-0.86,0.69-1.47,1.51-1.84,2.46
			c-0.37,0.95-0.56,1.96-0.56,3.04c0,1.12,0.13,2.09,0.39,2.9c0.26,0.82,0.71,1.53,1.34,2.12c0.63,0.6,1.48,1.1,2.54,1.51
			c1.06,0.41,2.39,0.76,3.99,1.06l5.64,1.01c2.01,0.37,3.75,0.86,5.22,1.45c1.47,0.6,2.69,1.35,3.66,2.26
			c0.97,0.91,1.68,2,2.15,3.27c0.47,1.27,0.7,2.76,0.7,4.47c0,1.53-0.3,2.97-0.89,4.33c-0.6,1.36-1.48,2.54-2.65,3.55
			c-1.17,1.01-2.63,1.81-4.38,2.4c-1.75,0.6-3.8,0.89-6.14,0.89c-2.16,0-4.16-0.21-6-0.61c-1.84-0.41-3.46-1.07-4.86-1.98
			c-1.4-0.91-2.54-2.09-3.44-3.55c-0.89-1.45-1.45-3.22-1.68-5.31H315.35z"/>
		<path d="M358.31,391.56h3.41v17.65h22.51v-17.65h3.41v39.88h-3.41v-19.05h-22.51v19.05h-3.41V391.56z"/>
		<path d="M421.76,432.45c-2.57,0-4.96-0.44-7.18-1.31c-2.22-0.87-4.13-2.19-5.73-3.94c-1.6-1.75-2.86-3.93-3.77-6.54
			c-0.91-2.61-1.37-5.62-1.37-9.05c0-3.43,0.46-6.45,1.37-9.08c0.91-2.63,2.18-4.82,3.8-6.59c1.62-1.77,3.53-3.11,5.73-4.02
			c2.2-0.91,4.58-1.37,7.15-1.37c2.57,0,4.95,0.44,7.15,1.31c2.2,0.88,4.09,2.19,5.67,3.94c1.58,1.75,2.83,3.92,3.74,6.51
			c0.91,2.59,1.37,5.6,1.37,9.02c0,3.46-0.45,6.51-1.34,9.13c-0.89,2.63-2.13,4.82-3.71,6.59c-1.58,1.77-3.47,3.11-5.67,4.02
			C426.77,431.99,424.37,432.45,421.76,432.45z M421.76,429.43c2.35,0,4.41-0.44,6.2-1.31c1.79-0.87,3.29-2.1,4.5-3.69
			c1.21-1.58,2.12-3.47,2.74-5.67c0.61-2.2,0.92-4.62,0.92-7.26c0-2.64-0.32-5.06-0.95-7.26c-0.63-2.2-1.56-4.09-2.76-5.67
			c-1.21-1.58-2.71-2.81-4.5-3.69c-1.79-0.87-3.84-1.31-6.14-1.31c-2.42,0-4.53,0.44-6.34,1.31c-1.81,0.88-3.31,2.1-4.5,3.69
			c-1.19,1.58-2.09,3.47-2.71,5.67c-0.61,2.2-0.92,4.62-0.92,7.26c0,2.64,0.3,5.06,0.89,7.26c0.59,2.2,1.5,4.09,2.71,5.67
			c1.21,1.58,2.72,2.81,4.52,3.69C417.23,428.99,419.34,429.43,421.76,429.43z"/>
		<path d="M451.37,391.56h3.8l9.38,35.64l9.89-35.47h3.69l9.61,35.41l9.5-35.58h3.58l-11.23,39.88h-3.97L476,395.97l-9.61,35.47
			h-3.74L451.37,391.56z"/>
		<path d="M514.49,391.56H527c2.87,0,5.22,0.32,7.07,0.95c1.84,0.63,3.3,1.45,4.36,2.46c1.06,1.01,1.79,2.16,2.18,3.46
			c0.39,1.3,0.59,2.63,0.59,3.97c0,2.53-0.57,4.69-1.7,6.48c-1.14,1.79-2.99,3.15-5.56,4.08l8.6,18.49h-3.97l-7.99-17.71
			c-0.63,0.07-1.28,0.14-1.96,0.2c-0.67,0.06-1.38,0.08-2.12,0.08h-8.66v17.43h-3.35V391.56z M527.45,410.99c2.01,0,3.68-0.2,5-0.59
			c1.32-0.39,2.37-0.96,3.16-1.7c0.78-0.74,1.33-1.64,1.65-2.68c0.32-1.04,0.47-2.23,0.47-3.57c0-1.3-0.17-2.45-0.5-3.44
			c-0.33-0.99-0.92-1.82-1.76-2.49c-0.84-0.67-1.96-1.17-3.35-1.51c-1.4-0.34-3.16-0.5-5.28-0.5h-8.99v16.48H527.45z"/>
		<path d="M573.59,432.45c-2.57,0-4.96-0.44-7.18-1.31c-2.22-0.87-4.13-2.19-5.73-3.94c-1.6-1.75-2.86-3.93-3.77-6.54
			c-0.91-2.61-1.37-5.62-1.37-9.05c0-3.43,0.46-6.45,1.37-9.08c0.91-2.63,2.18-4.82,3.8-6.59c1.62-1.77,3.53-3.11,5.73-4.02
			c2.2-0.91,4.58-1.37,7.15-1.37c2.57,0,4.95,0.44,7.15,1.31c2.2,0.88,4.09,2.19,5.67,3.94c1.58,1.75,2.83,3.92,3.74,6.51
			c0.91,2.59,1.37,5.6,1.37,9.02c0,3.46-0.45,6.51-1.34,9.13c-0.89,2.63-2.13,4.82-3.71,6.59c-1.58,1.77-3.47,3.11-5.67,4.02
			C578.59,431.99,576.19,432.45,573.59,432.45z M573.59,429.43c2.35,0,4.41-0.44,6.2-1.31c1.79-0.87,3.29-2.1,4.5-3.69
			c1.21-1.58,2.12-3.47,2.74-5.67c0.61-2.2,0.92-4.62,0.92-7.26c0-2.64-0.32-5.06-0.95-7.26c-0.63-2.2-1.55-4.09-2.76-5.67
			c-1.21-1.58-2.71-2.81-4.5-3.69c-1.79-0.87-3.84-1.31-6.14-1.31c-2.42,0-4.53,0.44-6.34,1.31c-1.81,0.88-3.31,2.1-4.5,3.69
			c-1.19,1.58-2.09,3.47-2.71,5.67c-0.61,2.2-0.92,4.62-0.92,7.26c0,2.64,0.3,5.06,0.89,7.26c0.59,2.2,1.5,4.09,2.71,5.67
			c1.21,1.58,2.72,2.81,4.52,3.69C569.05,428.99,571.16,429.43,573.59,429.43z"/>
		<path d="M624.19,432.45c-2.57,0-4.96-0.44-7.18-1.31c-2.22-0.87-4.13-2.19-5.73-3.94c-1.6-1.75-2.86-3.93-3.77-6.54
			c-0.91-2.61-1.37-5.62-1.37-9.05c0-3.43,0.46-6.45,1.37-9.08c0.91-2.63,2.18-4.82,3.8-6.59c1.62-1.77,3.53-3.11,5.73-4.02
			c2.2-0.91,4.58-1.37,7.15-1.37c2.57,0,4.95,0.44,7.15,1.31c2.2,0.88,4.09,2.19,5.67,3.94c1.58,1.75,2.83,3.92,3.74,6.51
			c0.91,2.59,1.37,5.6,1.37,9.02c0,3.46-0.45,6.51-1.34,9.13c-0.89,2.63-2.13,4.82-3.71,6.59c-1.58,1.77-3.47,3.11-5.67,4.02
			C629.2,431.99,626.8,432.45,624.19,432.45z M624.19,429.43c2.35,0,4.41-0.44,6.2-1.31c1.79-0.87,3.29-2.1,4.5-3.69
			c1.21-1.58,2.12-3.47,2.74-5.67c0.61-2.2,0.92-4.62,0.92-7.26c0-2.64-0.32-5.06-0.95-7.26c-0.63-2.2-1.56-4.09-2.76-5.67
			c-1.21-1.58-2.71-2.81-4.5-3.69c-1.79-0.87-3.84-1.31-6.14-1.31c-2.42,0-4.53,0.44-6.34,1.31c-1.81,0.88-3.31,2.1-4.5,3.69
			c-1.19,1.58-2.09,3.47-2.71,5.67c-0.61,2.2-0.92,4.62-0.92,7.26c0,2.64,0.3,5.06,0.89,7.26c0.59,2.2,1.5,4.09,2.71,5.67
			c1.21,1.58,2.72,2.81,4.52,3.69C619.66,428.99,621.77,429.43,624.19,429.43z"/>
		<path d="M658.21,391.56h4.41l14.41,35.92l14.64-35.92h4.19v39.88h-3.18v-34.19c-0.19,0.33-0.78,1.77-1.79,4.3
			c-0.45,1.08-1.01,2.45-1.68,4.11c-0.67,1.66-1.5,3.69-2.49,6.09c-0.99,2.4-2.15,5.22-3.49,8.46c-1.34,3.24-2.89,6.98-4.64,11.23
			h-3.24l-13.96-33.96v33.96h-3.18V391.56z"/>
	</g>
</g>
</svg>
