<?xml version="1.0" encoding="utf-8"?>
<!-- Generator: Adobe Illustrator 23.0.4, SVG Export Plug-In . SVG Version: 6.00 Build 0)  -->
<svg version="1.1" id="Livello_1" xmlns="http://www.w3.org/2000/svg" xmlns:xlink="http://www.w3.org/1999/xlink" x="0px" y="0px"
	 viewBox="0 0 987.01 535.05" style="enable-background:new 0 0 987.01 535.05;" xml:space="preserve">
<style type="text/css">
	.st0{fill:#010202;}
</style>
<g>
	<g>
		<polygon class="st0" points="111.02,327.22 90.29,327.22 90.29,182.18 111.02,156.98 111.02,327.22 		"/>
		<g>
			<polygon class="st0" points="845.97,327.22 825.24,327.22 825.24,156.96 917.02,156.96 917.02,161 845.97,161 845.97,327.22 			
				"/>
			<polygon class="st0" points="915.37,327.22 854.15,327.22 854.15,323.39 915.37,323.39 915.37,327.22 			"/>
			<polygon class="st0" points="903.91,244.13 854.01,244.13 854.01,240.37 903.91,240.37 903.91,244.13 			"/>
		</g>
		<g>
			<polygon class="st0" points="793.76,327.22 740.85,327.22 740.85,323.39 793.76,323.39 793.76,327.22 			"/>
			<polygon class="st0" points="732.69,327.22 711.97,327.22 711.97,182.26 712.35,181.79 732.69,156.96 732.69,327.22 			"/>
		</g>
		<g>
			<polygon class="st0" points="267.58,278.81 263.56,274.79 263.56,274.62 263.63,156.57 267.58,156.57 267.58,278.81 			"/>
			<path class="st0" d="M267.58,294.93v14.14c0.01,2.41,0,4.88,0,7.44l-0.01,10.71l-3.68-4.21c-19.73-22.55-39.67-43.63-58.97-64.03
				c-18.15-19.19-36.87-38.98-55.47-60.04v128.27h-7.35V156.57l6.67,7.5c1.96,2.21,3.82,4.29,5.66,6.39
				c16.16,17.56,29.42,31.39,43.45,46.03c10.95,11.42,22.27,23.23,35.38,37.26c9.7,11.07,20.9,23.87,32.02,36.65l0.75,0.87l1.54,1.8
				L267.58,294.93L267.58,294.93z"/>
		</g>
		<path class="st0" d="M376.37,320.14c-10.43,4.81-20.89,7.21-31.32,7.21c-14.2,0-28.35-4.44-42.34-13.32l-0.35-0.23
			c-2.32-1.67-2.54-1.9-2.63-1.99l-0.93-0.88l5.86-7.12l0,0c3.1,2.15,4.3,2.51,7.49,4.17c1.57,0.82,3.18,1.65,4.83,2.58
			c9.18,5.13,18.11,7.83,26.95,8.13h0.02c21.76,0.15,29.38-10.69,30.89-13.29c0.19-0.33,0.29-0.53,0.3-0.55
			c0.83-1.61,1.59-3.55,2.46-6.07c3.63-10.58,1.13-20.43-7.66-30.11c-6.45-7.1-14.5-12.63-22.28-17.98
			c-1.54-1.06-3.08-2.11-4.6-3.18c-1.94-1.35-3.87-2.7-5.82-4.05c-7.75-5.38-15.76-10.93-23.26-16.91
			c-9.45-7.53-14.58-16.75-15.25-27.4c-1.01-16,12.25-30.55,24.99-37.29c1.9-0.97,3.8-1.8,5.69-2.5c0.01-0.01,0.03-0.01,0.04-0.01
			c22.09-8.18,43.21,0.93,50.63,4.81c0.97,0.48,1.87,0.97,2.64,1.48c0.02,0.01,0.04,0.03,0.06,0.04c0.01,0.01,0.02,0.01,0.03,0.02
			c0.02,0.01,0.04,0.03,0.05,0.03c0,0,0.01,0,0.01,0.01c0.01,0,0.28,0.18,0.28,0.18l-6.07,7.37c0,0,0.25,0.12-1.58-0.74
			c-4.01-1.88-7.8-3.65-11.8-4.84c-13.5-4.02-25.9-2.19-36.86,5.43c-5.49,3.82-8.95,9.18-9.76,15.1c-0.81,5.99,1.13,12.17,5.48,17.4
			c5.3,6.38,12.07,10.68,19.24,15.24c1.19,0.75,2.37,1.51,3.55,2.27c2.65,1.72,5.31,3.42,7.97,5.12
			c8.11,5.19,16.5,10.56,24.45,16.29c10,7.22,16.71,15.97,19.94,26.03C404.28,290.94,395.49,311.32,376.37,320.14z"/>
		<path class="st0" d="M529.97,156.47h-99v4.18c5.54,0,10.98,0.01,16.44,0.01c7.45,0.01,14.91,0.01,22.69,0.01v166.54h20.73V160.45
			h39.14V156.47z"/>
		<g>
			<polygon class="st0" points="680.88,156.57 632.41,239.46 632.41,232.25 632.47,232.15 676.64,156.57 680.88,156.57 			"/>
			<polygon class="st0" points="608.62,327.21 608.62,249.8 561.06,156.44 580.84,156.44 626.02,244.69 626.08,327.21 			"/>
		</g>
	</g>
	<g>
		<path class="st0" d="M263.86,417.84c-0.26,1.95-0.76,3.75-1.51,5.4c-0.75,1.65-1.77,3.09-3.06,4.3c-1.29,1.21-2.85,2.17-4.68,2.87
			c-1.84,0.7-3.97,1.05-6.39,1.05c-2.57,0-4.91-0.44-7.03-1.32c-2.11-0.88-3.93-2.19-5.46-3.94c-1.52-1.74-2.71-3.89-3.55-6.45
			c-0.85-2.55-1.27-5.5-1.27-8.84c0-3.38,0.46-6.36,1.38-8.95c0.92-2.59,2.16-4.76,3.72-6.5c1.56-1.74,3.38-3.07,5.46-3.97
			c2.07-0.9,4.29-1.35,6.64-1.35c2.39,0,4.44,0.31,6.17,0.94c1.73,0.63,3.19,1.5,4.38,2.62c1.19,1.12,2.16,2.45,2.89,3.99
			c0.73,1.54,1.32,3.21,1.76,5.01l-3.2,0.72c-0.4-1.62-0.91-3.07-1.51-4.35c-0.61-1.29-1.38-2.37-2.31-3.25
			c-0.94-0.88-2.07-1.56-3.39-2.04c-1.32-0.48-2.92-0.72-4.79-0.72c-2.17,0-4.1,0.44-5.79,1.32c-1.69,0.88-3.12,2.11-4.3,3.69
			c-1.18,1.58-2.08,3.45-2.7,5.62c-0.63,2.17-0.94,4.54-0.94,7.11c0,2.61,0.3,4.99,0.91,7.14c0.61,2.15,1.49,4.01,2.64,5.59
			c1.16,1.58,2.6,2.8,4.33,3.66c1.73,0.86,3.71,1.29,5.95,1.29c2.13,0,3.92-0.27,5.37-0.8c1.45-0.53,2.64-1.28,3.58-2.23
			c0.94-0.95,1.67-2.08,2.2-3.39c0.53-1.3,0.93-2.71,1.18-4.22H263.86z"/>
		<path class="st0" d="M295.48,431.45c-2.53,0-4.89-0.43-7.08-1.29c-2.19-0.86-4.07-2.16-5.65-3.88c-1.58-1.73-2.82-3.88-3.72-6.45
			c-0.9-2.57-1.35-5.55-1.35-8.93c0-3.38,0.45-6.36,1.35-8.95c0.9-2.59,2.15-4.76,3.75-6.5c1.6-1.74,3.48-3.07,5.65-3.97
			c2.17-0.9,4.52-1.35,7.05-1.35c2.53,0,4.89,0.43,7.05,1.29c2.17,0.86,4.03,2.16,5.59,3.88c1.56,1.73,2.79,3.87,3.69,6.42
			c0.9,2.55,1.35,5.52,1.35,8.9c0,3.42-0.44,6.42-1.32,9.01c-0.88,2.59-2.1,4.76-3.66,6.5c-1.56,1.75-3.43,3.07-5.59,3.97
			C300.43,431,298.06,431.45,295.48,431.45z M295.48,428.47c2.31,0,4.35-0.43,6.12-1.29c1.76-0.86,3.24-2.07,4.44-3.64
			c1.19-1.56,2.09-3.42,2.7-5.59c0.61-2.17,0.91-4.55,0.91-7.16c0-2.61-0.31-5-0.94-7.16c-0.63-2.17-1.53-4.03-2.73-5.59
			c-1.19-1.56-2.67-2.77-4.44-3.64c-1.76-0.86-3.78-1.29-6.06-1.29c-2.39,0-4.47,0.43-6.25,1.29c-1.78,0.86-3.26,2.08-4.44,3.64
			c-1.18,1.56-2.07,3.43-2.67,5.59c-0.61,2.17-0.91,4.56-0.91,7.16c0,2.61,0.29,5,0.88,7.16c0.59,2.17,1.48,4.03,2.67,5.59
			c1.19,1.56,2.68,2.77,4.46,3.64C291.01,428.04,293.1,428.47,295.48,428.47z"/>
		<path class="st0" d="M329.04,391.11h4.35l14.22,35.43l14.44-35.43h4.13v39.34h-3.14v-33.72c-0.18,0.33-0.77,1.75-1.76,4.24
			c-0.44,1.07-0.99,2.42-1.65,4.05c-0.66,1.63-1.48,3.64-2.45,6.01c-0.97,2.37-2.12,5.15-3.44,8.35c-1.32,3.2-2.85,6.89-4.57,11.08
			h-3.2l-13.78-33.5v33.5h-3.14V391.11z"/>
		<path class="st0" d="M383.48,391.11h4.35l14.22,35.43l14.44-35.43h4.13v39.34h-3.14v-33.72c-0.18,0.33-0.77,1.75-1.76,4.24
			c-0.44,1.07-0.99,2.42-1.65,4.05c-0.66,1.63-1.48,3.64-2.45,6.01c-0.97,2.37-2.12,5.15-3.44,8.35c-1.32,3.2-2.85,6.89-4.57,11.08
			h-3.2l-13.78-33.5v33.5h-3.14V391.11z"/>
		<path class="st0" d="M437.64,391.11h3.36v23.97c0,4.45,0.86,7.79,2.59,10.03c1.73,2.24,4.57,3.36,8.54,3.36
			c2.02,0,3.72-0.28,5.1-0.85c1.38-0.57,2.5-1.41,3.36-2.53c0.86-1.12,1.49-2.52,1.87-4.19c0.39-1.67,0.58-3.61,0.58-5.81v-23.97
			h3.36v23.91c0,2.9-0.32,5.39-0.96,7.47c-0.64,2.08-1.58,3.77-2.81,5.1c-1.23,1.32-2.74,2.3-4.52,2.92
			c-1.78,0.62-3.79,0.94-6.03,0.94c-2.31,0-4.36-0.31-6.14-0.94c-1.78-0.62-3.29-1.61-4.52-2.95c-1.23-1.34-2.17-3.07-2.81-5.18
			c-0.64-2.11-0.96-4.64-0.96-7.58V391.11z"/>
		<path class="st0" d="M483.43,391.11h3.69l22.04,34.05v-34.05h3.25v39.34h-3.64l-22.1-34.16v34.16h-3.25V391.11z"/>
		<path class="st0" d="M529.72,391.11h3.36v39.34h-3.36V391.11z"/>
		<path class="st0" d="M581.9,417.84c-0.26,1.95-0.76,3.75-1.51,5.4c-0.75,1.65-1.77,3.09-3.06,4.3c-1.29,1.21-2.85,2.17-4.68,2.87
			c-1.84,0.7-3.97,1.05-6.39,1.05c-2.57,0-4.91-0.44-7.03-1.32c-2.11-0.88-3.93-2.19-5.46-3.94c-1.52-1.74-2.71-3.89-3.55-6.45
			c-0.85-2.55-1.27-5.5-1.27-8.84c0-3.38,0.46-6.36,1.38-8.95c0.92-2.59,2.16-4.76,3.72-6.5c1.56-1.74,3.38-3.07,5.46-3.97
			c2.07-0.9,4.29-1.35,6.64-1.35c2.39,0,4.44,0.31,6.17,0.94c1.73,0.63,3.19,1.5,4.38,2.62c1.19,1.12,2.16,2.45,2.89,3.99
			c0.73,1.54,1.32,3.21,1.76,5.01l-3.2,0.72c-0.4-1.62-0.91-3.07-1.51-4.35c-0.61-1.29-1.38-2.37-2.31-3.25
			c-0.94-0.88-2.07-1.56-3.39-2.04c-1.32-0.48-2.92-0.72-4.79-0.72c-2.17,0-4.1,0.44-5.79,1.32c-1.69,0.88-3.12,2.11-4.3,3.69
			c-1.18,1.58-2.08,3.45-2.7,5.62c-0.62,2.17-0.94,4.54-0.94,7.11c0,2.61,0.3,4.99,0.91,7.14c0.61,2.15,1.49,4.01,2.64,5.59
			c1.16,1.58,2.6,2.8,4.33,3.66c1.73,0.86,3.71,1.29,5.95,1.29c2.13,0,3.92-0.27,5.37-0.8c1.45-0.53,2.64-1.28,3.58-2.23
			c0.94-0.95,1.67-2.08,2.2-3.39c0.53-1.3,0.93-2.71,1.18-4.22H581.9z"/>
		<path class="st0" d="M608.62,391.11h3.97l15.54,39.34h-3.64l-4.74-12.01h-18.51l-4.68,12.01h-3.53L608.62,391.11z M618.54,415.36
			l-8.1-20.55l-7.99,20.55H618.54z"/>
		<path class="st0" d="M646.14,394.2h-13.67v-3.09h30.64v3.09h-13.61v36.26h-3.36V394.2z"/>
		<path class="st0" d="M676.84,391.11h3.36v39.34h-3.36V391.11z"/>
		<path class="st0" d="M713.86,431.45c-2.53,0-4.89-0.43-7.08-1.29c-2.19-0.86-4.07-2.16-5.65-3.88c-1.58-1.73-2.82-3.88-3.72-6.45
			c-0.9-2.57-1.35-5.55-1.35-8.93c0-3.38,0.45-6.36,1.35-8.95c0.9-2.59,2.15-4.76,3.75-6.5c1.6-1.74,3.48-3.07,5.65-3.97
			c2.17-0.9,4.52-1.35,7.05-1.35c2.53,0,4.89,0.43,7.05,1.29c2.17,0.86,4.03,2.16,5.59,3.88c1.56,1.73,2.79,3.87,3.69,6.42
			c0.9,2.55,1.35,5.52,1.35,8.9c0,3.42-0.44,6.42-1.32,9.01c-0.88,2.59-2.1,4.76-3.66,6.5c-1.56,1.75-3.43,3.07-5.59,3.97
			C718.8,431,716.43,431.45,713.86,431.45z M713.86,428.47c2.31,0,4.35-0.43,6.12-1.29c1.76-0.86,3.24-2.07,4.44-3.64
			c1.19-1.56,2.09-3.42,2.7-5.59c0.61-2.17,0.91-4.55,0.91-7.16c0-2.61-0.31-5-0.94-7.16c-0.62-2.17-1.53-4.03-2.73-5.59
			c-1.19-1.56-2.67-2.77-4.44-3.64c-1.76-0.86-3.78-1.29-6.06-1.29c-2.39,0-4.47,0.43-6.25,1.29c-1.78,0.86-3.26,2.08-4.44,3.64
			c-1.18,1.56-2.07,3.43-2.67,5.59c-0.61,2.17-0.91,4.56-0.91,7.16c0,2.61,0.29,5,0.88,7.16c0.59,2.17,1.48,4.03,2.67,5.59
			c1.19,1.56,2.68,2.77,4.46,3.64C709.39,428.04,711.47,428.47,713.86,428.47z"/>
		<path class="st0" d="M747.42,391.11h3.69l22.04,34.05v-34.05h3.25v39.34h-3.64l-22.1-34.16v34.16h-3.25V391.11z"/>
	</g>
</g>
</svg>
