<svg enable-background="new 0 0 987.01 535.05" viewBox="0 0 987.01 535.05" xmlns="http://www.w3.org/2000/svg"><g fill="#010202"><path d="m111.67 328.22h-20.72v-145.04l20.72-25.19z"/><path d="m846.62 328.22h-20.72v-170.25h91.77v4.03h-71.05z"/><path d="m916.03 328.22h-61.23v-3.82h61.23z"/><path d="m904.57 245.14h-49.91v-3.76h49.91z"/><path d="m794.42 328.22h-52.92v-3.83h52.92z"/><path d="m733.35 328.22h-20.73v-144.96l.39-.47 20.34-24.82z"/><path d="m268.23 279.81-4.01-4.01v-.17l.06-118.05h3.95z"/><path d="m268.23 295.93v14.14c.01 2.41 0 4.88 0 7.44l-.01 10.71-3.68-4.21c-19.73-22.55-39.67-43.63-58.97-64.03-18.15-19.19-36.87-38.98-55.47-60.04v128.27h-7.35v-170.63l6.67 7.5c1.96 2.21 3.82 4.29 5.66 6.39 16.16 17.56 29.42 31.39 43.45 46.03 10.95 11.42 22.27 23.23 35.38 37.26 9.7 11.07 20.9 23.87 32.02 36.65l.75.87 1.54 1.8z"/><path d="m377.02 321.14c-10.43 4.81-20.89 7.21-31.32 7.21-14.2 0-28.35-4.44-42.34-13.32l-.35-.23c-2.32-1.67-2.54-1.9-2.63-1.99l-.93-.88 5.86-7.12c3.1 2.15 4.3 2.51 7.49 4.17 1.57.82 3.18 1.65 4.83 2.58 9.18 5.13 18.11 7.83 26.95 8.13h.02c21.76.15 29.38-10.69 30.89-13.29.19-.33.29-.53.3-.55.83-1.61 1.59-3.55 2.46-6.07 3.63-10.58 1.13-20.43-7.66-30.11-6.45-7.1-14.5-12.63-22.28-17.98-1.54-1.06-3.08-2.11-4.6-3.18-1.94-1.35-3.87-2.7-5.82-4.05-7.75-5.38-15.76-10.93-23.26-16.91-9.45-7.53-14.58-16.75-15.25-27.4-1.01-16 12.25-30.55 24.99-37.29 1.9-.97 3.8-1.8 5.69-2.5.01-.01.03-.01.04-.01 22.09-8.18 43.21.93 50.63 4.81.97.48 1.87.97 2.64 1.48.02.01.04.03.06.04.01.01.02.01.03.02.02.01.04.03.05.03 0 0 .01 0 .01.01.01 0 .28.18.28.18l-6.07 7.37s.25.12-1.58-.74c-4.01-1.88-7.8-3.65-11.8-4.84-13.5-4.02-25.9-2.19-36.86 5.43-5.49 3.82-8.95 9.18-9.76 15.1-.81 5.99 1.13 12.17 5.48 17.4 5.3 6.38 12.07 10.68 19.24 15.24 1.19.75 2.37 1.51 3.55 2.27 2.65 1.72 5.31 3.42 7.97 5.12 8.11 5.19 16.5 10.56 24.45 16.29 10 7.22 16.71 15.97 19.94 26.03 6.57 20.35-2.21 40.74-21.34 49.55z"/><path d="m530.63 157.47h-99v4.18c5.54 0 10.98.01 16.44.01 7.45.01 14.91.01 22.69.01v166.54h20.73v-166.76h39.14z"/><path d="m681.53 157.58-48.47 82.89v-7.21l.06-.1 44.17-75.58z"/><path d="m609.28 328.22v-77.41l-47.56-93.37h19.78l45.18 88.26.06 82.52z"/></g><path d="m281.42 392.03h13.34c2.77 0 5.26.4 7.47 1.19s4.09 1.99 5.62 3.6 2.71 3.63 3.54 6.06c.83 2.44 1.25 5.31 1.25 8.64 0 3.36-.44 6.29-1.33 8.8s-2.16 4.6-3.82 6.26-3.67 2.91-6.03 3.74-5 1.25-7.92 1.25h-12.12zm12.35 36.53c5.28 0 9.15-1.47 11.63-4.4 2.47-2.93 3.71-7.11 3.71-12.54 0-5.35-1.15-9.47-3.46-12.35s-5.93-4.32-10.88-4.32h-9.97v33.6h8.97z"/><path d="m328.59 392.03h3.38v39.53h-3.38z"/><path d="m350.62 421.2c.59 2.95 1.86 5.08 3.82 6.39s4.87 1.97 8.75 1.97c1.99 0 3.64-.22 4.95-.66s2.35-1.03 3.13-1.77c.77-.74 1.33-1.61 1.66-2.6.33-1 .5-2.05.5-3.16 0-.92-.1-1.8-.3-2.63s-.59-1.59-1.16-2.27-1.39-1.28-2.46-1.8-2.47-.92-4.21-1.22l-4.93-.83c-1.92-.33-3.63-.76-5.12-1.27-1.5-.52-2.76-1.19-3.79-2.02s-1.82-1.87-2.35-3.13c-.54-1.25-.8-2.79-.8-4.59 0-1.81.38-3.38 1.13-4.71.76-1.33 1.77-2.43 3.04-3.29 1.27-.87 2.77-1.51 4.48-1.94 1.72-.42 3.53-.64 5.45-.64 2.47 0 4.54.27 6.2.8 1.66.54 3.03 1.25 4.1 2.13 1.07.89 1.9 1.89 2.49 3.02s1.05 2.26 1.38 3.4l-3.1.89c-.37-1.14-.8-2.17-1.3-3.07s-1.16-1.67-1.99-2.3-1.87-1.11-3.13-1.44-2.79-.5-4.6-.5c-2.03 0-3.73.19-5.09.58-1.37.39-2.47.92-3.32 1.61-.85.68-1.46 1.49-1.83 2.44-.37.94-.55 1.95-.55 3.02 0 1.11.13 2.07.39 2.88s.7 1.51 1.33 2.1 1.47 1.09 2.52 1.49c1.05.41 2.37.76 3.96 1.05l5.59 1c1.99.37 3.72.85 5.18 1.44s2.67 1.34 3.63 2.24 1.67 1.98 2.13 3.24.69 2.73.69 4.43c0 1.51-.3 2.94-.89 4.29s-1.47 2.52-2.63 3.52-2.61 1.79-4.35 2.38-3.76.89-6.09.89c-2.14 0-4.12-.2-5.95-.61s-3.43-1.06-4.82-1.97c-1.38-.9-2.52-2.08-3.4-3.52-.89-1.44-1.44-3.19-1.66-5.26z"/><path d="m402.78 395.13h-13.73v-3.1h30.78v3.1h-13.67v36.43h-3.38z"/><path d="m433.61 392.03h12.4c2.84 0 5.18.31 7 .94 1.83.63 3.27 1.44 4.32 2.44s1.77 2.14 2.16 3.43.58 2.6.58 3.93c0 2.51-.56 4.65-1.69 6.42s-2.96 3.12-5.51 4.04l8.53 18.32h-3.93l-7.91-17.55c-.63.07-1.27.14-1.94.19s-1.37.08-2.1.08h-8.58v17.27h-3.32v-39.51zm12.85 19.26c1.99 0 3.64-.19 4.96-.58 1.31-.39 2.35-.95 3.13-1.69.77-.74 1.32-1.62 1.63-2.66.31-1.03.47-2.21.47-3.54 0-1.29-.17-2.43-.5-3.4-.33-.98-.91-1.8-1.74-2.46s-1.94-1.16-3.32-1.49-3.13-.5-5.23-.5h-8.91v16.33h9.51z"/><path d="m476.3 392.03h3.38v39.53h-3.38z"/><path d="m497.06 392.03h12.51c2.77 0 5.03.26 6.78.78s3.15 1.23 4.18 2.13 1.74 1.95 2.13 3.13.58 2.44.58 3.76c0 1.99-.46 3.73-1.38 5.2-.92 1.48-2.47 2.68-4.65 3.6 1.4.48 2.57 1.06 3.52 1.74.94.68 1.7 1.45 2.27 2.3s.98 1.76 1.22 2.74.36 1.97.36 2.96c0 1.55-.24 3.01-.72 4.37-.48 1.37-1.27 2.56-2.38 3.57-1.11 1.02-2.55 1.81-4.32 2.38s-3.95.86-6.53.86h-13.56v-39.52zm13.01 17.32c3.43 0 5.93-.62 7.5-1.85 1.57-1.24 2.35-3.07 2.35-5.51s-.78-4.22-2.35-5.34c-1.57-1.13-4.27-1.69-8.11-1.69h-9.08v14.39zm.44 19.21c2.1 0 3.83-.18 5.18-.55s2.42-.89 3.21-1.58c.79-.68 1.35-1.51 1.66-2.49s.47-2.08.47-3.29c0-2.69-.81-4.74-2.44-6.15-1.62-1.4-4.26-2.1-7.92-2.1h-10.3v16.17h10.14z"/><path d="m540.18 392.03h3.38v24.08c0 4.47.87 7.83 2.6 10.08s4.6 3.38 8.58 3.38c2.03 0 3.74-.29 5.12-.86s2.51-1.42 3.38-2.55 1.49-2.53 1.88-4.21.58-3.63.58-5.84v-24.08h3.38v24.03c0 2.92-.32 5.42-.97 7.5-.65 2.09-1.59 3.79-2.82 5.12-1.24 1.33-2.75 2.31-4.54 2.93-1.79.63-3.81.94-6.06.94-2.33 0-4.38-.31-6.17-.94s-3.3-1.61-4.54-2.96-2.18-3.08-2.82-5.2c-.65-2.12-.97-4.66-.97-7.61v-23.81z"/><path d="m596.32 395.13h-13.73v-3.1h30.78v3.1h-13.67v36.43h-3.38z"/><path d="m627.16 392.03h3.38v39.53h-3.38z"/><path d="m664.36 432.55c-2.55 0-4.92-.43-7.11-1.3-2.2-.87-4.09-2.17-5.67-3.9-1.59-1.73-2.83-3.89-3.74-6.48-.91-2.58-1.36-5.57-1.36-8.97s.45-6.39 1.36-9c.9-2.6 2.16-4.78 3.76-6.53 1.61-1.75 3.5-3.08 5.67-3.99 2.18-.9 4.54-1.36 7.09-1.36s4.91.43 7.09 1.3 4.05 2.17 5.62 3.9c1.57 1.74 2.8 3.88 3.71 6.45.9 2.57 1.36 5.55 1.36 8.94 0 3.43-.44 6.45-1.33 9.05s-2.11 4.78-3.68 6.53-3.44 3.08-5.62 3.99c-2.19.92-4.57 1.37-7.15 1.37zm0-2.99c2.33 0 4.37-.43 6.15-1.3 1.77-.87 3.26-2.08 4.46-3.65s2.1-3.44 2.71-5.62.91-4.58.91-7.2-.31-5.02-.94-7.2-1.54-4.05-2.74-5.62-2.68-2.79-4.46-3.65c-1.77-.87-3.8-1.3-6.09-1.3-2.4 0-4.49.43-6.28 1.3s-3.28 2.09-4.46 3.65c-1.18 1.57-2.08 3.44-2.69 5.62s-.91 4.58-.91 7.2.29 5.02.89 7.2c.59 2.18 1.48 4.05 2.68 5.62s2.69 2.79 4.48 3.65c1.8.87 3.89 1.3 6.29 1.3z"/><path d="m698.07 392.03h3.71l22.14 34.21v-34.21h3.27v39.53h-3.65l-22.2-34.32v34.32h-3.27z"/></svg>