<svg fill="none" height="106" viewBox="0 0 785 106" width="785" xmlns="http://www.w3.org/2000/svg"><g fill="#000"><path d="m688.288 58.7918c7.265-1.8048 13.56-3.3583 19.849-4.9369.945-.2363 1.86-.5983 2.805-.8497 6.264-1.644 10.372-6.3044 9.99-12.7999-.292-4.9168.472-8.9438 4.278-12.2016.448-.3821.684-1.0055.865-1.282-1.373-3.4891-2.886-6.6865-3.891-10.0348-1.418-4.7309.734-7.26974 5.56-8.22998 6.5-1.29206 12.885-3.16227 19.336-4.71576 10.829-2.60925 21.773-2.44837 32.723-1.0256 2.564.33182 4.555 1.75459 5.083 4.61521.533 2.87573-.83 4.53983-3.444 5.13803-6.51 1.4932-13.056 2.8204-19.577 4.2432-5.897 1.287-11.789 2.5841-17.661 3.9667-.9.2111-1.689.8848-2.534 1.3423-.05.4324-.106.8597-.156 1.2921 1.493.3418 3.052 1.1462 4.47.9401 4.685-.6737 9.3-1.7998 13.971-2.569 2.845-.4676 6.505 2.2975 7.571 5.4246.93 2.7249-.392 6.8122-3.263 8.245-3.041 1.5233-6.374 2.5037-9.627 3.5796-5.334 1.7596-10.729 3.3482-16.058 5.1229-3.182 1.0558-3.117 4.3639-4.188 6.8122-.136.3067 1.559 2.0663 2.157 1.9406 7.421-1.5384 15.168-2.3277 20.995-8.0489.261-.2564.558-.4877.88-.6536.97-.5178 1.965-.9954 2.92-1.4781 6.345 6.028 4.309 13.353-1.96 17.395-7.421 4.7812-15.485 8.6171-24.519 9.4416-2.388.2162-5.289.5782-7.179-.4977-5.797-3.288-11.307-1.0306-16.842.0955-7.416 1.5032-14.686 3.7907-22.131 5.0979-10.684 1.8752-14.746-3.4137-15.002-13.0111-.211-7.8831 2.639-15.2282 5.706-22.347 3.263-7.5815 6.405-15.1126 6.747-23.5436.166-4.1477 4.223-6.14358 8.009-4.2382 4.509 2.2724 6.711 7.4909 5.067 12.2972-2.855 8.3606-5.872 16.666-8.627 25.0619-.99 2.9913-1.402 6.1686-2.323 10.4118z"/><path d="m640.659 45.4288c-2.072 1.3474-3.364 2.5188-4.882 3.1221-4.575 1.8048-11.523-1.5384-12.498-6.6916-1.016-5.3944-.835-11.0201-1.121-16.5503-.091-1.7647-.015-3.5343-.015-5.0325-3.861.9451-7.486 1.659-10.985 2.7802-1.157.372-2.59 1.6389-2.851 2.745-2.574 10.8291-6.013 21.5275-5.158 32.9248.307 4.0672-1.906 7.7322-4.399 8.2249-2.886.5681-8.532-2.8003-9.2-6.2039-.739-3.7404-1.091-7.7121-.699-11.4877.734-7.0888 2.131-14.1121 3.222-21.1656.071-.4424-.16-.9301-.377-2.0563-3.303.7391-6.651 1.0206-9.607 2.2473-7.204 2.9813-12.478-1.7445-13.076-8.8986-.498-5.9475 1.005-7.4306 8.481-7.7624 8.401-.367 16.807-.5681 25.212-.8195 6.285-.191 12.554-.3066 18.527 2.2674.583.2514 1.568-.1055 2.237-.4424 3.735-1.8752 6.36-1.2367 8.964 2.0864 2.433 3.102 3.65 6.5659 3.69 10.4973.01.9351.302 1.8652.548 3.2779 5.148-4.0722 9.12-8.431 11.779-14.0065 1.277-2.6846 2.398-5.64579 6.325-5.73125 4.59-.09552 9.989 6.01285 9.235 11.04535-.337 2.2523-1.282 4.4191-2.011 6.606-3.785 11.4274-7.812 22.7845-11.226 34.3225-.825 2.7953-.025 6.2843.719 9.2807.95 3.846.508 7.5814-2.081 8.5366-3.364 1.2418-5.868-.3117-7.969-3.0064-5.993-7.6971-4.796-16.0728-2.509-24.5793.448-1.6289 1.006-3.2276 1.725-5.5302z"/><path d="m154.268 75.6538c2.081-.2765 3.921-.2816 5.62-.7793 9.754-2.8807 19.507-5.7614 29.175-8.9237 2.719-.8899 4.952-1.3122 6.656 1.3121 1.991 3.0668 1.533 6.5207-1.282 8.7378-2.112 1.659-4.439 3.0818-6.807 4.3688-9.97 5.4096-20.412 9.6779-31.517 12.0609-3.359.7189-6.958.8094-10.397.543-3.177-.2464-7.737-5.9978-7.526-9.8388.286-5.1632 1.558-10.261 2.116-15.4242.277-2.5841.352-5.3542-.271-7.8428-1.207-4.8063-1.875-8.9841 3.675-11.7442 1.005-.5027 1.322-2.9762 1.418-4.575.1-1.659-.518-3.3482-.709-5.0375-.684-6.048 2.016-9.522 8.064-10.5677 9.296-1.6088 18.551-3.5092 27.887-4.8364 9.809-1.3926 19.602-.6133 29.32 1.3624 2.811.5732 4.55 2.7149 4.203 4.756-.296 1.7596-2.715 4.1426-4.535 4.4946-7.229 1.3976-14.579 2.2824-21.914 3.0164-6.998.6989-13.906 1.5988-20.276 4.7912-1.247.6234-2.328 1.5887-3.484 2.3931.065.372.136.739.201 1.111 1.413.0905 2.846.3771 4.228.2313 6.943-.734 13.866-1.644 20.809-2.3629 3.67-.3771 5.404 2.383 6.39 5.128 1.051 2.9159.05 5.867-3.208 6.7921-9.059 2.5791-18.169 5.0174-27.334 7.2043-6.883 1.639-10.417 5.6811-10.502 13.6295z"/><path d="m426.68 36.4998c4.007-.2313 8.014-.5631 12.021-.6586 3.63-.0905 6.601 1.5334 8.592 4.5096 1.453 2.1769 1.488 4.6655-.091 6.9077-1.96 2.7953-4.816 3.3232-8.079 3.5293-6.988.4374-14.006 1.2569-19.642 6.0631-.86.734-.925 2.3881-1.362 3.6148 1.292.2363 2.719.9602 3.846.6334 6.224-1.7998 12.377-3.8208 18.536-5.8419 1.272-.4173 2.639-.9301 3.604-1.7948 2.117-1.8953 4.098-2.6293 6.496-.548 2.403 2.0864 4.811 4.6906 3.212 7.7574-1.603 3.0718-4.072 6.3396-7.023 7.9484-9.436 5.1481-19.823 8.0138-30.396 9.5522-3.62.5278-7.345-1.3021-10.568-4.3287-5.691-5.3442-4.348-12.639-6.596-18.8831-1.634-4.5448-1.161-8.4109 3.334-11.4777 2.594-1.7696 2.709-4.8314 2.141-8.0037-.523-2.9159-1.005-6.224-.145-8.9237 2.317-7.2546 4.394-7.3602 11.678-6.7418 2.494.2111 5.259.4826 7.511-.3369 10.166-3.7102 20.216-3.5544 30.195.2966 1.277.4927 2.911 2.745 2.68 3.8109-.347 1.5685-1.991 3.6046-3.484 4.032-5.525 1.5786-11.272 2.3729-16.827 3.8661-3.449.9301-6.702 2.5891-10.04 3.9214.136.362.272.729.407 1.096z"/><path d="m329.142 65.4533c-.377-2.5892-1.327-5.857-1.227-9.0897.181-5.9776 1.146-11.9301 1.443-17.9128.146-2.9913-.643-6.0178-.704-9.0393-.085-4.1527 4.047-7.3703 8.024-6.4704 6.586 1.4932 10.422 8.2601 8.295 14.7807-3.685 11.3118-4.539 22.6336-.703 34.1264 1.357 4.0622-.091 5.5553-4.299 4.8414-1.538-.2614-3.037-.7692-4.811-1.2367-2.212 5.2336-7.22 6.3145-12.207 7.7775-7.616 2.2372-15.052 5.0777-22.654 7.3702-8.074 2.4333-14.137 1.1714-16.701-8.5316-.342-1.3021-.397-2.8003-.151-4.1225 2.997-16.299 6.159-32.5628 9.055-48.8769.457-2.569.125-5.3794-.352-7.9886-.92-5.0426 2.006-8.4311 7.139-7.873 6.093.6636 9.924 7.1641 8.491 13.2272-2.066 8.7277-3.589 17.586-5.258 26.4042-1.076 5.686-2.057 11.3872-2.987 17.0984-.628 3.8711.166 4.3387 3.796 3.2075 8.501-2.6595 17.058-5.1029 25.811-7.692z"/><path d="m15.0868 90.3993c5.8821-1.8501 10.8492-3.4035 15.8113-4.9771 6.038-1.9155 12.0056-4.0924 18.129-5.6911 5.1582-1.3424 9.7131 2.1668 10.4571 7.4356.3922 2.7651-2.378 6.7971-5.5201 7.6417-6.9379 1.8652-13.9361 3.5042-20.864 5.4096-3.4287.945-6.7066 2.448-10.1404 3.368-3.479.93-7.0535 1.941-10.6179 2.057-6.99825.236-13.187052-6.4909-12.2469181-13.8611.8647221-6.782 2.9209481-13.4183 4.4844881-20.1098 1.98082-8.4813 4.10743-16.9325 5.90723-25.449.5028-2.378-.3066-5.0325.1659-7.4205.3922-1.9758 1.3725-4.7661 2.8456-5.3744 2.3428-.9703 5.8369-1.4278 7.9182-.3368 6.1938 3.2477 7.5362 9.5019 4.3337 15.2332-2.559 4.58-3.0466 10.3113-4.4744 15.5298-1.8803 6.8725-3.8159 13.7249-5.6308 20.6125-.362 1.3876-.2866 2.8908-.558 5.9324z"/><path d="m551.324 73.7233c-10.331-.3971-16.565-1.5534-19.305-9.6125-.84-2.4684-.272-3.7203 1.005-5.143 1.725-1.9205 3.877-1.2569 5.681-.181 4.344 2.5992 15.746 1.0608 19.215-2.745 1.292-1.4178-.005-4.2382-2.684-5.862-5.867-3.5494-11.84-6.9379-17.566-10.7035-5.525-3.6298-9.045-8.9639-9.98-15.4644-.874-6.0983 2.393-10.6482 7.2-14.07188 6.611-4.71073 14.192-7.23954 21.995-8.974009 5.751-1.282001 12.242 5.138059 11.457 10.884489-.427 3.1321-4.288 5.8469-8.099 5.0626-6.138-1.2719-11.055 1.4278-15.821 4.4191-4.007 2.5138-3.736 5.9475.724 8.964 5.469 3.7052 11.14 7.1138 16.756 10.5928 5.354 3.3182 8.678 8.2903 11.121 13.8708 1.815 4.1426-1.458 12.6591-5.877 14.288-6.124 2.2523-12.534 3.7304-15.822 4.6755z"/><path d="m99.1909 66.5341c-.5178 5.4548-4.1376 11.8195-10.8241 16.3895-4.7962 3.2779-9.7432 6.3547-15.9069 5.8318-7.4858-.6385-12.83-4.2281-16.9475-10.7788-4.4795-7.134-4.0019-14.9065-2.569-21.9198 2.5237-12.3172 18.129-23.0006 31.9494-15.5298 8.6774 4.6957 14.2931 13.9563 14.2981 26.0071zm-20.9092-16.6962c-4.6504-.1056-8.8684 3.3282-9.6074 7.9333-.5028 3.1522-1.0407 6.3145-1.2418 9.4918-.3369 5.3392 2.6796 8.1445 6.9328 6.0531 3.6299-1.7847 7.2547-4.2381 9.8539-7.2798 2.8505-3.3332 3.5695-7.6719 1.3172-12.091-1.5837-3.107-4.198-3.8762-7.2547-4.1074z"/><path d="m116.436 62.0849c1.679-4.9671 3.67-9.8588 4.962-14.9265 1.574-6.1687 2.625-12.4731 3.766-18.7474.84-4.6001 2.574-6.7971 5.746-6.8021 3.821-.005 8.527 3.6851 8.658 7.3753.1 2.7952.135 6.1938-1.287 8.3305-3.882 5.8268-3.66 12.6641-5.737 18.8831-2.217 6.6312-4.394 13.2775-6.792 19.8434-1.453 3.9867-3.132 7.9132-4.992 11.729-1.674 3.4287-6.264 3.6449-9.366 1.2921-6.119-4.6353-6.792-11.4626-8.22-18.1441-1.579-7.3853-3.5043-14.6953-5.2991-22.0303-.8295-3.3986-2.6595-6.8575-.2161-10.1907.7692-1.0507 2.4582-2.0663 3.6902-2.0311 5.626.1659 9.09 3.5494 10.563 9.9996 1.161 5.0828 2.166 10.2007 3.242 15.2986.433.0452.855.0855 1.282.1206z"/><path d="m376.636 47.7314c3.358-9.6377 6.39-19.3557 6.953-29.6721.231-4.1677 2.835-7.9082 5.44-8.21484 4.846-.5681 9.094 2.83544 10.321 6.85244.508 1.659-.282 3.8208-.799 5.6609-2.177 7.7373-4.575 15.4142-6.702 23.1665-1.916 6.9932-3.318 14.1422-5.5 21.0449-.749 2.378-2.826 5.5353-4.872 6.0531-3.941.9904-7.998-.4374-10.512-4.218-5.606-8.4311-8.476-17.9983-11.066-27.6309-1.447-5.3945-2.83-10.8744-3.423-16.3996-.221-2.0713 1.438-4.8264 3.051-6.4703 1.599-1.6289 6.702.372 8.934 2.6344 3.494 3.5544 3.067 8.3305 4.108 12.6189 1.176 4.8414 1.955 9.7784 2.905 14.6701.393-.0252.775-.0603 1.162-.0955z"/><path d="m230.293 44.2373c6.289.176 10.834 5.4498 10.919 10.5325.076 4.4393-4.559 10.0047-8.149 10.1002-4.359.1206-10.422-7.7071-10.281-13.2775.105-4.2432 3.273-7.3451 7.511-7.3552z"/><path d="m465.225 43.458c1.202-1.9657 1.966-4.7912 3.715-5.681 2.358-1.2016 5.561-2.3328 8.074.6737 1.906 2.2824 4.495 4.1024 5.963 6.606 1.946 3.3282.095 7.496-3.685 9.8941-2.217 1.4077-7.084.6837-9.17-1.3072-2.785-2.6595-4.646-5.686-4.002-9.7884-.297-.1257-.593-.2614-.895-.3972z"/></g></svg>