<svg fill="none" height="75" viewBox="0 0 451 75" width="451" xmlns="http://www.w3.org/2000/svg" xmlns:xlink="http://www.w3.org/1999/xlink"><clipPath id="a"><path d="m0 0h451v75h-451z"/></clipPath><g clip-path="url(#a)" fill="#000"><path d="m398.248 24.6276c-.126-.3303-.362-.9121-.583-1.494-1.621-4.4506-.173-7.6903 4.282-9.1372 7.525-2.4533 15.16-4.60784 23.078-5.29981 5.73-.50325 11.508-.75488 17.27-.69197 1.999.01572 4.187.97504 5.934 2.07588 3.464 2.186 3.7 7.077.63 9.0585-.756.4876-1.873.692-2.786.5976-8.454-.9121-16.797-.2359-25.094 1.4626-3.557.7234-7.131 1.3682-10.689 2.1074-1.227.2516-2.471.5347-3.605 1.0536-1.763.7864-2.015 1.7929-1.149 3.6014 2.566 5.3628 2.566 5.3785 8.942 4.9382 2.755-.1887 5.51-.4089 8.249-.7077 3.762-.4089 5.651.975 6.281 4.6708.535 3.1453-1.37 6.1019-4.486 6.8096-1.465.3302-2.976.5347-4.471.6605-4.251.3302-8.501.5976-12.767.8807-2.409.1572-3.07.7077-3.621 3.0195-.079.3617-.126.7391-.173 1.1166-.661 5.4571-.032 6.3378 5.384 6.0861 5.887-.2673 11.743-.8964 17.615-1.3682.504-.0471 1.008-.0786 1.512-.0786 2.093 0 4.344-.5662 5.368 2.2017.96 2.6106.456 5.064-1.559 7.1399-1.275 1.321-2.676 1.9973-4.518 2.3904-8.422 1.8086-16.986 1.8086-25.502 1.9501-6.549.1101-9.32-3.1138-9.21-9.6561.063-3.7586.457-7.5173.583-11.2759.063-1.7457.094-3.5385-.283-5.2213-.677-3.0195-.126-5.5986 1.605-8.1463.945-1.3997 1.386-3.1611 2.047-4.7652.472-1.148.976-2.2646 1.716-3.9788z"/><path d="m38.4111 22.064c-.2204 7.2027-.4093 14.4527-.6769 21.7026-.0945 2.7522-.3621 5.5043-.5825 8.2565-.4408 5.4256.0787 10.7727 1.0862 16.1197.7714 4.0889-.3306 5.6616-4.1087 6.7152-1.8261.5033-4.2976-.2988-5.4311-2.2489-.976-1.6984-1.9835-3.68-2.0622-5.5672-.2204-5.7559-.0945-11.5275.0787-17.2835.2361-7.7846.6454-15.5535.9288-23.3225.0315-.8492-.2204-1.6984-.3936-2.9565-1.3538.0943-2.5817.0157-3.7151.2988-4.7542 1.148-9.4926 2.3747-14.2153 3.6328-3.62072.9593-6.56452-.0944-8.2332-3.3183-2.47153-4.7966-.913051-8.5553 5.3996-9.3416 5.9663-.7391 11.9011-1.7456 17.8517-2.6735.7399-.1101 1.4326-.4246 2.566-.7863 0-1.65133-.0315-3.3498 0-5.04827.0472-2.40616-.0787-5.17404 2.6919-6.038998 2.6447-.833508 4.5338 1.258128 5.9506 3.145318 1.2436 1.65128 1.9678 3.69574 3.1642 6.039 2.3141-.40889 4.8644-.80206 7.3989-1.28958 6.6589-1.27385 13.2864-2.68924 19.9769-3.83728 2.078-.36172 4.2819-.25163 6.3913.01572 3.243.40889 6.2025 3.94737 6.2025 7.06119.0157 2.5792-.6612 3.4913-3.2429 3.57-12.2947.3617-23.8653 4.6865-35.8924 6.4636-.2203.0157-.4093.2359-1.1334.692z"/><path d="m391.384 24.8c-2.566 2.0759-5.053 3.6328-8.391 3.9002-7.241.5818-14.482 1.3524-21.708 2.1388-2.897.3145-5.683 1.1637-8.013 3.0038-.614.4875-.913 1.3524-1.354 2.0601.772.4876 1.543 1.3525 2.33 1.3682 2.755.0629 5.526-.1415 8.281-.2988 1.873-.11 3.746-.4089 5.635-.4246 3.212-.0314 4.77 1.4311 5.242 4.6394.394 2.6577-1.165 5.5514-3.762 6.1805-3.023.7391-6.155 1.0537-9.241 1.6041-2.707.4875-5.447.8807-8.091 1.5884-2.566.692-3.464 2.6735-3.117 5.9604.252 2.4218 1.511 3.6485 4.219 3.9631 5.462.6133 10.767-.346 15.978-1.8558.598-.173 1.165-.4875 1.763-.6448 1.732-.4718 3.479-1.9501 5.195 0 1.464 1.667 1.842 5.1269.835 7.1084-1.055 2.0759-2.503 3.6486-4.786 4.5293-7.446 2.8308-15.16 3.6643-22.968 2.5792-7.116-.9751-12.106-7.6589-11.681-14.7988.425-6.9983 2.015-13.918 1.244-20.9792-.063-.5819.11-1.3053.425-1.8085 3.133-4.9382 5.195-10.6941 11.586-12.8958 9.965-3.4284 20.182-3.7744 30.524-3.1611 1.827.1101 3.621.7392 5.416 1.211 1.668.4403 2.172 1.0694 4.439 5.0325z"/><path d="m122.79 45.9842c-.536 3.9159-.063 7.3915.078 10.8671.079 2.2174.048 4.5292-.488 6.6523-.645 2.5477-3.006 3.8373-5.478 3.6328-2.456-.2201-5.195-2.469-5.494-4.7651-1.102-8.0677-3.086-16.0097-3.274-24.2189-.095-4.3091.299-8.4766 1.527-12.6285 2.141-7.2342 7.147-11.2759 14.309-12.1566 11.634-1.4154 21.551 2.2804 29.155 11.4175 1.102 1.321 1.952 2.9251 2.629 4.5135 1.527 3.6171.661 6.8411-1.936 9.7033-3.983 4.4035-9.194 6.3693-14.782 7.706-5.243 1.2739-10.406.4718-16.246-.7234zm-1.606-9.8448c2.834-1.4469 5.163-1.0694 7.682-.3145 5.368 1.6041 10.406.3145 15.065-2.5792.788-.4875 1.37-1.321 2.141-2.0916-3.101-4.4978-7.587-6.1019-12.263-7.0298-4.234-.8335-8.516-.6134-12.326 1.9186-2.298 1.5255-3.51 3.7901-2.786 6.039.425 1.3682 1.495 2.5163 2.487 4.0575z"/><path d="m78.6168 55.9077c-1.8104.2359-3.054.6291-4.2504.5347-5.2422-.4404-7.7295 2.4848-9.1935 7.014-.8028 2.4848-1.8104 4.9382-3.054 7.2185-1.6687 3.0667-3.4475 3.5857-6.533 2.1388-4.093-1.9186-6.7692-7.2342-2.4873-11.386.8028-.7863 1.59-1.6356 2.1882-2.5791 1.0075-1.6042 1.7316-3.2397 1.0547-5.2999-.4093-1.2424-.2361-2.7207-.1417-4.0732.1417-2.0916 1.1492-3.6171 3.3374-3.9473 2.4558-.3775 3.8253-1.8086 5.1162-3.9002 4.0458-6.6052 8.3749-13.0531 12.5781-19.5639 1.527-2.3747 3.1957-2.6106 5.6515-1.1952 4.4865 2.5634 5.4783 6.9197 6.1709 11.4332.2676 1.7299.0945 3.507.2519 5.2684.1417 1.7142.4565 3.4127.7084 5.2212 1.2751.2202 2.2511.3932 3.2114.5505 2.0937.3459 2.7077 2.0759 3.3059 3.7114.5667 1.5412-.7556 2.2175-1.7002 3.0038-.5824.4875-1.1019 1.0851-1.7631 1.3997-3.479 1.6355-3.4948 4.5292-2.8808 7.6745.4093 2.0917.9917 4.1676 1.1334 6.2749.1102 1.4312-.0945 3.051-.6927 4.3406-1.3223 2.8937-4.2661 3.4913-6.9108 1.6355-2.3928-1.6827-3.7309-4.026-4.1087-6.9039-.3464-2.6893-.6297-5.41-.9918-8.571zm-3.1642-12.3139c3.8883-.3303 4.2347-1.0694 2.4086-4.5135-.8029 1.494-1.4641 2.7364-2.4086 4.5135z"/><path d="m319.3 9.26286c4.014-.01572 7.777 1.06944 11.35 2.64204 2.692 1.1795 4.345 3.6171 4.707 6.4165.173 1.3682-.677 3.161-1.637 4.309-1.118 1.3525-2.771.6448-4.156-.11-4.66-2.5792-9.571-2.8623-14.609-1.3997-6.643 1.9186-7.446 5.1426-2.566 10.0965 2.472 2.5005 4.943 5.001 7.462 7.4543 3.432 3.3655 6.203 7.2343 8.753 11.276 2.534 3.9945 2.597 10.6311-1.747 14.8616-5.258 5.1269-11.65 7.2499-18.561 8.3823-1.952.3145-3.998.2201-5.966.0629-3.983-.3146-6.627-3.3026-6.58-7.2028.047-3.1453 2.456-5.2999 5.462-4.3877 6.644 2.0287 12.059-.6134 17.191-4.2147 2.377-1.6671 2.582-3.0195 1.086-5.4729-1.039-1.6985-2.283-3.3183-3.652-4.7809-3.259-3.4755-6.643-6.841-9.996-10.2537-3.133-3.1767-6.014-6.668-6.612-11.1658-.96-7.2028 1.432-11.4175 7.21-13.7293 2.078-.8335 4.313-1.3368 6.517-1.8086 2.11-.44033 4.235-.6605 6.344-.97504z"/><path d="m215.669 45.7328c-2.944 3.397-5.636 6.3221-8.107 9.4202-2.346 2.9252-4.471 6.0233-6.675 9.0743-1.354 1.8871-3.023 2.988-5.431 2.3118-2.55-.7077-4.723-2.013-5.242-4.7966-.394-2.076-.567-4.2619 1.448-5.8818 4.738-3.7744 8.422-8.5395 12.185-13.226 1.873-2.3433 3.636-4.7809 5.525-7.1242.787-.975 1.716-1.84 2.661-2.6577 1.164-1.0223 2.518-1.1953 3.809-.2674 1.511 1.0851 3.243 2.0445 4.345 3.4756 2.771 3.5542 5.258 7.3128 7.808 11.0243 2.267 3.3026 4.345 6.7152 6.706 9.9392 1.181 1.6041 1.937 3.1768 1.716 5.174-.252 2.2017-1.464 3.8845-3.384 4.6236-1.952.7706-4.093.3303-5.479-1.3996-1.558-1.9344-2.943-4.0418-4.187-6.1963-1.826-3.1453-3.463-6.4007-5.226-9.5775-.63-1.1795-1.417-2.2646-2.472-3.9159z"/></g></svg>